<svg width="50" height="50" viewBox="0 0 50 50" fill="none" xmlns="http://www.w3.org/2000/svg">
<path d="M6.88469 33.3008V29.1992C6.88469 29.0374 6.75354 28.9062 6.59172 28.9062H3.81311C2.50236 28.9062 1.39465 29.9788 1.41633 31.2894C1.43732 32.5633 2.48078 33.5938 3.75969 33.5938H6.59172C6.75354 33.5938 6.88469 33.4626 6.88469 33.3008Z" fill="url(#paint0_linear_2524_16545)"/>
<path d="M6.59102 35.1563C4.26406 35.1574 3.67656 35.1703 3.30166 35.1305C3.12861 35.112 2.97852 35.2476 2.97852 35.4216V40.625C2.97852 43.0771 4.39795 45.2047 6.45947 46.2268C6.65508 46.3237 6.88496 46.1832 6.88477 45.9648C6.88438 45.1485 6.88477 42.7362 6.88477 35.4495C6.88477 35.2877 6.75293 35.1563 6.59102 35.1563Z" fill="url(#paint1_linear_2524_16545)"/>
<path d="M46.1868 28.9062H43.1152C42.9534 28.9062 42.8223 29.0374 42.8223 29.1992V33.3008C42.8223 33.4626 42.9534 33.5938 43.1152 33.5938H46.2402C47.5191 33.5938 48.5626 32.5633 48.5837 31.2894C48.6054 29.9788 47.4976 28.9062 46.1868 28.9062Z" fill="url(#paint2_linear_2524_16545)"/>
<path d="M42.8223 35.4495C42.8223 42.7366 42.8227 45.1487 42.8223 45.9649C42.8222 46.1833 43.052 46.3238 43.2476 46.2268C45.3091 45.2047 46.7285 43.0771 46.7285 40.625V35.4443C46.7285 35.2787 46.5917 35.1462 46.4261 35.1516C46.1319 35.1611 45.4556 35.1566 43.1162 35.1562C42.9544 35.1562 42.8223 35.2876 42.8223 35.4495Z" fill="url(#paint3_linear_2524_16545)"/>
<path d="M18.6035 6.38838V2.73438C18.6035 1.22422 17.3793 0 15.8691 0H12.7441C11.234 0 10.0098 1.22422 10.0098 2.73438V12.4159C10.0098 12.6969 10.3659 12.8159 10.5358 12.5921C12.5437 9.94678 15.2669 7.87344 18.415 6.66123C18.5283 6.61758 18.6035 6.50977 18.6035 6.38838Z" fill="url(#paint4_linear_2524_16545)"/>
<path d="M39.6973 12.4159V2.73438C39.6973 1.22422 38.473 0 36.9629 0H33.8379C32.3277 0 31.1035 1.22422 31.1035 2.73438V6.38838C31.1035 6.50967 31.1787 6.61758 31.292 6.66113C34.4401 7.87334 37.1634 9.94668 39.1712 12.592C39.3411 12.8159 39.6973 12.6969 39.6973 12.4159Z" fill="url(#paint5_linear_2524_16545)"/>
<path d="M26.7939 5.57276C27.2208 5.61886 27.6428 5.67989 28.0602 5.75567C28.2956 5.79835 28.4819 5.55753 28.3784 5.3419C28.1896 4.94894 27.9335 4.58663 27.6161 4.26866C25.6823 2.33751 22.4596 2.96055 21.3289 5.34288C21.2266 5.55831 21.4127 5.79796 21.6472 5.75558C22.0651 5.68009 22.4876 5.61896 22.9143 5.57286C22.9886 5.56485 23.0557 5.52774 23.1053 5.47198C24.0407 4.42071 25.6805 4.43204 26.6022 5.47149C26.652 5.52735 26.7193 5.56466 26.7939 5.57276Z" fill="url(#paint6_linear_2524_16545)"/>
<path d="M32.8613 33.5938H16.0645C14.8779 33.5938 13.916 34.5557 13.916 35.7422V36.4258C13.916 36.5876 14.0472 36.7188 14.209 36.7188H34.7168C34.8786 36.7188 35.0098 36.5876 35.0098 36.4258V35.7422C35.0098 34.5557 34.0478 33.5938 32.8613 33.5938Z" fill="url(#paint7_linear_2524_16545)"/>
<path d="M17.8223 39.8438C17.8223 40.2924 17.4439 40.6528 16.989 40.6233C16.5737 40.5964 16.2598 40.2331 16.2598 39.817V38.5742C16.2598 38.4124 16.1286 38.2812 15.9668 38.2812H14.209C14.0472 38.2812 13.916 38.4124 13.916 38.5742V43.5547C13.916 43.6626 14.0034 43.75 14.1113 43.75H34.8145C34.9224 43.75 35.0098 43.6626 35.0098 43.5547V38.5742C35.0098 38.4124 34.8786 38.2812 34.7168 38.2812H18.1152C17.9534 38.2812 17.8223 38.4124 17.8223 38.5742V39.8438Z" fill="url(#paint8_linear_2524_16545)"/>
<path d="M24.8535 7.03125C15.807 7.03125 8.44727 14.391 8.44727 23.4375V46.2891C8.44727 48.3353 10.112 50 12.1582 50H37.5488C39.595 50 41.2598 48.3353 41.2598 46.2891V23.4375C41.2598 14.391 33.9 7.03125 24.8535 7.03125ZM18.6035 18.1641C18.6035 17.1948 19.3921 16.4062 20.3613 16.4062H29.3457C30.3149 16.4062 31.1035 17.1948 31.1035 18.1641V22.4609C31.1035 23.4302 30.3149 24.2188 29.3457 24.2188H20.3613C19.3921 24.2188 18.6035 23.4302 18.6035 22.4609V18.1641ZM36.5723 43.5547C36.5723 44.5239 35.7837 45.3125 34.8145 45.3125H14.1113C13.1421 45.3125 12.3535 44.5239 12.3535 43.5547C12.3535 41.9676 12.3535 37.3632 12.3535 35.7422C12.3535 33.696 14.0183 32.0312 16.0645 32.0312H32.8613C34.9075 32.0312 36.5723 33.696 36.5723 35.7422V43.5547Z" fill="url(#paint9_linear_2524_16545)"/>
<path d="M20.3613 22.6562H29.3457C29.4534 22.6562 29.541 22.5687 29.541 22.4609V18.1641C29.541 18.0563 29.4534 17.9688 29.3457 17.9688H20.3613C20.2536 17.9688 20.166 18.0563 20.166 18.1641V22.4609C20.166 22.5687 20.2536 22.6562 20.3613 22.6562ZM22.5098 19.5312H27.1973C27.6287 19.5312 27.9785 19.8811 27.9785 20.3125C27.9785 20.7439 27.6287 21.0938 27.1973 21.0938H22.5098C22.0783 21.0938 21.7285 20.7439 21.7285 20.3125C21.7285 19.8811 22.0783 19.5312 22.5098 19.5312Z" fill="url(#paint10_linear_2524_16545)"/>
<defs>
<linearGradient id="paint0_linear_2524_16545" x1="4.15035" y1="28.9062" x2="4.15035" y2="33.5938" gradientUnits="userSpaceOnUse">
<stop stop-color="#FFD572"/>
<stop offset="1" stop-color="#FEBD38"/>
</linearGradient>
<linearGradient id="paint1_linear_2524_16545" x1="4.93164" y1="35.1288" x2="4.93164" y2="46.258" gradientUnits="userSpaceOnUse">
<stop stop-color="#FFD572"/>
<stop offset="1" stop-color="#FEBD38"/>
</linearGradient>
<linearGradient id="paint2_linear_2524_16545" x1="45.7031" y1="28.9062" x2="45.7031" y2="33.5938" gradientUnits="userSpaceOnUse">
<stop stop-color="#FFD572"/>
<stop offset="1" stop-color="#FEBD38"/>
</linearGradient>
<linearGradient id="paint3_linear_2524_16545" x1="44.7754" y1="35.1514" x2="44.7754" y2="46.2581" gradientUnits="userSpaceOnUse">
<stop stop-color="#FFD572"/>
<stop offset="1" stop-color="#FEBD38"/>
</linearGradient>
<linearGradient id="paint4_linear_2524_16545" x1="14.3066" y1="0" x2="14.3066" y2="12.709" gradientUnits="userSpaceOnUse">
<stop stop-color="#FFD572"/>
<stop offset="1" stop-color="#FEBD38"/>
</linearGradient>
<linearGradient id="paint5_linear_2524_16545" x1="35.4004" y1="0" x2="35.4004" y2="12.7089" gradientUnits="userSpaceOnUse">
<stop stop-color="#FFD572"/>
<stop offset="1" stop-color="#FEBD38"/>
</linearGradient>
<linearGradient id="paint6_linear_2524_16545" x1="24.8539" y1="3.12634" x2="24.8539" y2="5.76063" gradientUnits="userSpaceOnUse">
<stop stop-color="#FFD572"/>
<stop offset="1" stop-color="#FEBD38"/>
</linearGradient>
<linearGradient id="paint7_linear_2524_16545" x1="24.4629" y1="33.5938" x2="24.4629" y2="36.7188" gradientUnits="userSpaceOnUse">
<stop stop-color="#FFD572"/>
<stop offset="1" stop-color="#FEBD38"/>
</linearGradient>
<linearGradient id="paint8_linear_2524_16545" x1="24.4629" y1="38.2812" x2="24.4629" y2="43.75" gradientUnits="userSpaceOnUse">
<stop stop-color="#FFD572"/>
<stop offset="1" stop-color="#FEBD38"/>
</linearGradient>
<linearGradient id="paint9_linear_2524_16545" x1="24.8535" y1="7.03125" x2="24.8535" y2="50" gradientUnits="userSpaceOnUse">
<stop stop-color="#FFD572"/>
<stop offset="1" stop-color="#FEBD38"/>
</linearGradient>
<linearGradient id="paint10_linear_2524_16545" x1="24.8535" y1="17.9688" x2="24.8535" y2="22.6562" gradientUnits="userSpaceOnUse">
<stop stop-color="#FFD572"/>
<stop offset="1" stop-color="#FEBD38"/>
</linearGradient>
</defs>
</svg>
