<svg width="50" height="50" viewBox="0 0 50 50" fill="none" xmlns="http://www.w3.org/2000/svg">
<path fill-rule="evenodd" clip-rule="evenodd" d="M7.5141 19.2317V38.0828C7.5141 40.7776 9.71898 42.9825 12.4137 42.9825H18.6886V26.6374C18.6886 25.3698 19.7257 24.3326 20.9934 24.3326H25.8825C26.7596 24.3326 27.5263 24.8294 27.9156 25.5554C30.4044 23.5779 33.5539 22.3962 36.9796 22.3962C37.791 22.3962 38.5865 22.4635 39.3618 22.5909V19.2317L41.4381 20.7402C42.9704 21.8507 45.1129 21.5086 46.2234 19.9762C47.3337 18.4438 46.9917 16.3014 45.4593 15.1909L25.5079 0.695503C24.3371 -0.192387 22.6788 -0.254497 21.4274 0.652339L1.41663 15.191C-0.11569 16.3015 -0.45778 18.4438 0.652571 19.9763C1.76302 21.5086 3.9055 21.8507 5.43783 20.7403L7.5141 19.2317ZM36.9796 23.9586C44.1708 23.9586 50.0004 29.7882 50.0004 36.9794C50.0004 44.1706 44.1708 50.0003 36.9796 50.0003C29.7884 50.0003 23.9588 44.1707 23.9588 36.9795C23.9588 29.7883 29.7884 23.9586 36.9796 23.9586ZM41.2514 29.7125C41.5106 29.3523 42.0127 29.2706 42.3729 29.5298C42.733 29.789 42.8148 30.2911 42.5556 30.6513L32.716 44.3474C32.4569 44.7075 31.9547 44.7893 31.5946 44.5301C31.2344 44.2709 31.1527 43.7687 31.4119 43.4086L41.2514 29.7125ZM33.0705 29.1548C33.9383 29.1548 34.724 29.5065 35.2926 30.0753C35.8613 30.644 36.213 31.4297 36.213 32.2974C36.213 33.165 35.8613 33.9508 35.2926 34.5194C34.7239 35.0882 33.9383 35.4399 33.0705 35.4399C32.2028 35.4399 31.4171 35.0882 30.8484 34.5194C30.2797 33.9508 29.928 33.1651 29.928 32.2974C29.928 31.4296 30.2797 30.6439 30.8484 30.0753C31.4171 29.5065 32.2028 29.1548 33.0705 29.1548ZM34.1522 31.2156C34.4289 31.4924 34.6001 31.8748 34.6001 32.2974C34.6001 32.7199 34.4289 33.1023 34.1522 33.3791C33.8754 33.6559 33.493 33.827 33.0704 33.827C32.6479 33.827 32.2655 33.6559 31.9887 33.3791C31.7119 33.1023 31.5408 32.7199 31.5408 32.2974C31.5408 31.8749 31.7119 31.4924 31.9887 31.2156C32.2655 30.9389 32.648 30.7677 33.0704 30.7677C33.4929 30.7677 33.8754 30.9389 34.1522 31.2156ZM40.8886 38.5189C41.7564 38.5189 42.542 38.8707 43.1107 39.4394C43.6794 40.0082 44.0312 40.7937 44.0312 41.6616C44.0312 42.5294 43.6794 43.315 43.1107 43.8837C42.542 44.4523 41.7564 44.8041 40.8886 44.8041C40.0209 44.8041 39.2352 44.4523 38.6665 43.8837C38.0978 43.315 37.746 42.5294 37.746 41.6616C37.746 40.7938 38.0978 40.0082 38.6665 39.4394C39.2353 38.8708 40.0209 38.5189 40.8886 38.5189ZM41.9703 40.5798C42.2471 40.8565 42.4183 41.239 42.4183 41.6615C42.4183 42.0841 42.2471 42.4665 41.9703 42.7433C41.6937 43.02 41.3112 43.1912 40.8886 43.1912C40.4661 43.1912 40.0836 43.02 39.8069 42.7433C39.5301 42.4665 39.3589 42.0841 39.3589 41.6615C39.3589 41.239 39.5301 40.8565 39.8069 40.5798C40.0836 40.303 40.4661 40.1318 40.8886 40.1318C41.3112 40.1318 41.6937 40.303 41.9703 40.5798Z" fill="url(#paint0_linear_2524_17021)"/>
<defs>
<linearGradient id="paint0_linear_2524_17021" x1="25.0005" y1="0.000320435" x2="25.0005" y2="50.0003" gradientUnits="userSpaceOnUse">
<stop stop-color="#FE6C6C"/>
<stop offset="1" stop-color="#FE464B"/>
</linearGradient>
</defs>
</svg>
