<svg width="50" height="50" viewBox="0 0 50 50" fill="none" xmlns="http://www.w3.org/2000/svg">
<path d="M10.4492 0.019165C8.02598 0.019165 5.95703 1.99045 5.95703 4.4137V7.5387C5.95703 9.96194 8.02598 11.9332 10.4492 11.9332C12.8725 11.9332 14.8438 9.96194 14.8438 7.5387V4.4137C14.8438 1.99036 12.8725 0.019165 10.4492 0.019165Z" fill="url(#paint0_linear_3458_17689)"/>
<path d="M28.0273 0.019165C25.6041 0.019165 23.6328 1.99045 23.6328 4.4137V7.5387C23.6328 9.96194 25.6041 11.9332 28.0273 11.9332C30.4506 11.9332 32.4219 9.96194 32.4219 7.5387V4.4137C32.4219 1.99045 30.4506 0.019165 28.0273 0.019165Z" fill="url(#paint1_linear_3458_17689)"/>
<path d="M4.49219 14.8629C2.06895 14.8629 0 16.8342 0 19.2574V22.1871C0 24.6104 2.06895 26.5817 4.49219 26.5817C6.91543 26.5817 8.88672 24.6104 8.88672 22.1871V19.2574C8.88672 16.8342 6.91543 14.8629 4.49219 14.8629Z" fill="url(#paint2_linear_3458_17689)"/>
<path d="M45.6055 0.019165C43.1822 0.019165 41.2109 1.99045 41.2109 4.4137V7.5387C41.2109 9.96194 43.1822 11.9332 45.6055 11.9332C48.0287 11.9332 50 9.96194 50 7.5387V4.4137C50 1.99036 48.0287 0.019165 45.6055 0.019165Z" fill="url(#paint3_linear_3458_17689)"/>
<path d="M1.46484 0.019165C0.655176 0.019165 0 0.674341 0 1.48401V10.4684C0 11.2781 0.655176 11.9332 1.46484 11.9332C2.27451 11.9332 2.92969 11.2781 2.92969 10.4684V1.48401C2.92969 0.674341 2.27451 0.019165 1.46484 0.019165Z" fill="url(#paint4_linear_3458_17689)"/>
<path d="M1.46484 29.5114C0.655176 29.5114 0 30.1665 0 30.9762V39.7653C0 40.5749 0.655176 41.2301 1.46484 41.2301C2.27451 41.2301 2.92969 40.5749 2.92969 39.7653V30.9762C2.92969 30.1665 2.27451 29.5114 1.46484 29.5114Z" fill="url(#paint5_linear_3458_17689)"/>
<path d="M19.2383 0.019165C18.4286 0.019165 17.7734 0.674341 17.7734 1.48401V10.4684C17.7734 11.2781 18.4286 11.9332 19.2383 11.9332C20.0479 11.9332 20.7031 11.2781 20.7031 10.4684V1.48401C20.7031 0.674341 20.0479 0.019165 19.2383 0.019165Z" fill="url(#paint6_linear_3458_17689)"/>
<path d="M36.8164 0.019165C36.0067 0.019165 35.3516 0.674341 35.3516 1.48401V10.4684C35.3516 11.2781 36.0067 11.9332 36.8164 11.9332C37.6261 11.9332 38.2812 11.2781 38.2812 10.4684V1.48401C38.2812 0.674341 37.6261 0.019165 36.8164 0.019165Z" fill="url(#paint7_linear_3458_17689)"/>
<path d="M48.5352 14.8629C47.7255 14.8629 47.0703 15.5181 47.0703 16.3278V25.1168C47.0703 25.9265 47.7255 26.5817 48.5352 26.5817C49.3448 26.5817 50 25.9265 50 25.1168V16.3278C50 15.5181 49.3448 14.8629 48.5352 14.8629Z" fill="url(#paint8_linear_3458_17689)"/>
<path d="M28.0273 14.8629C20.7575 14.8629 14.8438 20.7766 14.8438 28.0465C14.8438 35.3163 20.7575 41.2301 28.0273 41.2301C35.2972 41.2301 41.2109 35.3163 41.2109 28.0465C41.2109 20.7767 35.2972 14.8629 28.0273 14.8629ZM28.0273 35.3707C27.2184 35.3707 26.5625 34.7149 26.5625 33.9059C26.5625 33.0967 27.2184 32.441 28.0273 32.441C28.8363 32.441 29.4922 33.0967 29.4922 33.9059C29.4922 34.7149 28.8363 35.3707 28.0273 35.3707ZM29.4922 28.0465C29.4922 28.8562 28.837 29.5113 28.0273 29.5113C27.2177 29.5113 26.5625 28.8562 26.5625 28.0465V22.1871C26.5625 21.3775 27.2177 20.7223 28.0273 20.7223C28.837 20.7223 29.4922 21.3775 29.4922 22.1871V28.0465Z" fill="url(#paint9_linear_3458_17689)"/>
<path d="M16.3086 14.863C13.8854 14.8629 11.9141 16.8341 11.9141 19.2574V22.1871C11.9141 22.8807 12.1262 23.5166 12.421 24.1087C13.2823 20.6985 15.2717 17.5705 18.1983 15.3071C17.6236 15.0308 16.9878 14.863 16.3086 14.863Z" fill="url(#paint10_linear_3458_17689)"/>
<path d="M39.7462 14.8629C39.0671 14.8629 38.4312 15.0308 37.8564 15.3071C40.7698 17.5603 42.7688 20.6838 43.6338 24.1086C43.9286 23.5165 44.1407 22.8807 44.1407 22.187V19.2573C44.1407 16.8341 42.1694 14.8629 39.7462 14.8629Z" fill="url(#paint11_linear_3458_17689)"/>
<path d="M12.016 29.8129C11.5276 29.6254 11.0028 29.5114 10.4492 29.5114C8.02598 29.5114 5.95703 31.4826 5.95703 33.9059V36.8356C5.95703 39.2588 8.02598 41.2301 10.4492 41.2301C12.7379 41.2301 14.6017 39.4657 14.8041 37.2287C13.3057 35.0775 12.3159 32.5491 12.016 29.8129Z" fill="url(#paint12_linear_3458_17689)"/>
<path d="M48.6597 42.3373L42.0326 35.7113C40.5584 38.5754 38.3941 40.7224 35.7822 42.1631L42.4455 48.5543C44.1606 50.2638 46.9459 50.537 48.6597 48.8261C50.3734 47.1123 50.3734 44.3242 48.6597 42.3373Z" fill="url(#paint13_linear_3458_17689)"/>
<defs>
<linearGradient id="paint0_linear_3458_17689" x1="5.84368" y1="0.0191646" x2="16.1447" y2="1.34007" gradientUnits="userSpaceOnUse">
<stop stop-color="#FDB3FF"/>
<stop offset="1" stop-color="#F77CF2"/>
</linearGradient>
<linearGradient id="paint1_linear_3458_17689" x1="23.5207" y1="0.0191646" x2="33.7121" y2="1.31166" gradientUnits="userSpaceOnUse">
<stop stop-color="#FDB3FF"/>
<stop offset="1" stop-color="#F77CF2"/>
</linearGradient>
<linearGradient id="paint2_linear_3458_17689" x1="-0.113351" y1="14.8629" x2="10.182" y2="16.2051" gradientUnits="userSpaceOnUse">
<stop stop-color="#FDB3FF"/>
<stop offset="1" stop-color="#F77CF2"/>
</linearGradient>
<linearGradient id="paint3_linear_3458_17689" x1="41.0988" y1="0.0191646" x2="51.2902" y2="1.31166" gradientUnits="userSpaceOnUse">
<stop stop-color="#FDB3FF"/>
<stop offset="1" stop-color="#F77CF2"/>
</linearGradient>
<linearGradient id="paint4_linear_3458_17689" x1="-0.0373685" y1="0.0191646" x2="3.40824" y2="0.164825" gradientUnits="userSpaceOnUse">
<stop stop-color="#FDB3FF"/>
<stop offset="1" stop-color="#F77CF2"/>
</linearGradient>
<linearGradient id="paint5_linear_3458_17689" x1="-0.0373685" y1="29.5114" x2="3.40803" y2="29.6594" gradientUnits="userSpaceOnUse">
<stop stop-color="#FDB3FF"/>
<stop offset="1" stop-color="#F77CF2"/>
</linearGradient>
<linearGradient id="paint6_linear_3458_17689" x1="17.7361" y1="0.0191646" x2="21.1817" y2="0.164825" gradientUnits="userSpaceOnUse">
<stop stop-color="#FDB3FF"/>
<stop offset="1" stop-color="#F77CF2"/>
</linearGradient>
<linearGradient id="paint7_linear_3458_17689" x1="35.3142" y1="0.0191646" x2="38.7598" y2="0.164825" gradientUnits="userSpaceOnUse">
<stop stop-color="#FDB3FF"/>
<stop offset="1" stop-color="#F77CF2"/>
</linearGradient>
<linearGradient id="paint8_linear_3458_17689" x1="47.0329" y1="14.8629" x2="50.4783" y2="15.011" gradientUnits="userSpaceOnUse">
<stop stop-color="#FDB3FF"/>
<stop offset="1" stop-color="#F77CF2"/>
</linearGradient>
<linearGradient id="paint9_linear_3458_17689" x1="14.5074" y1="14.8629" x2="44.6815" y2="20.0503" gradientUnits="userSpaceOnUse">
<stop stop-color="#FDB3FF"/>
<stop offset="1" stop-color="#F77CF2"/>
</linearGradient>
<linearGradient id="paint10_linear_3458_17689" x1="11.8339" y1="14.863" x2="19.1383" y2="15.7165" gradientUnits="userSpaceOnUse">
<stop stop-color="#FDB3FF"/>
<stop offset="1" stop-color="#F77CF2"/>
</linearGradient>
<linearGradient id="paint11_linear_3458_17689" x1="37.7763" y1="14.8629" x2="45.0807" y2="15.7164" gradientUnits="userSpaceOnUse">
<stop stop-color="#FDB3FF"/>
<stop offset="1" stop-color="#F77CF2"/>
</linearGradient>
<linearGradient id="paint12_linear_3458_17689" x1="5.84419" y1="29.5114" x2="16.0952" y2="30.8418" gradientUnits="userSpaceOnUse">
<stop stop-color="#FDB3FF"/>
<stop offset="1" stop-color="#F77CF2"/>
</linearGradient>
<linearGradient id="paint13_linear_3458_17689" x1="35.6016" y1="35.7113" x2="51.8161" y2="38.478" gradientUnits="userSpaceOnUse">
<stop stop-color="#FDB3FF"/>
<stop offset="1" stop-color="#F77CF2"/>
</linearGradient>
</defs>
</svg>
