<svg width="50" height="50" viewBox="0 0 50 50" fill="none" xmlns="http://www.w3.org/2000/svg">
<g clip-path="url(#clip0_3458_17632)">
<path d="M48.8282 1.50182C48.8233 1.49674 48.8178 1.49254 48.8129 1.48756C48.2467 0.918814 47.327 0.908072 46.7485 1.46794L45.4218 2.75212C44.0452 4.09567 46.0806 6.19635 47.4676 4.86579L48.7943 3.58161C49.378 3.01667 49.3931 2.08561 48.8282 1.50182Z" fill="url(#paint0_linear_3458_17632)"/>
<path d="M41.1385 9.36014C40.5895 8.76581 39.6628 8.72919 39.0685 9.27802L37.3705 10.8465C36.7536 11.4164 35.9512 11.7303 35.1112 11.7303H34.0036C32.7392 11.7303 31.7104 10.7016 31.7104 9.437V5.22313C31.7104 2.34325 29.3674 0.000183105 26.4874 0.000183105H22.0186C19.4675 0.00106201 17.3413 1.84071 16.8867 4.25839H19.9388C20.3038 3.47469 21.0985 2.92987 22.0185 2.92987H26.4873C27.7518 2.92987 28.7806 3.95858 28.7806 5.22303V9.4369C28.7806 12.3168 31.1235 14.6599 34.0035 14.6599H35.1111C36.6901 14.6599 38.1985 14.0698 39.3584 12.9984L41.0564 11.43C41.6507 10.8811 41.6874 9.95438 41.1385 9.36014Z" fill="url(#paint1_linear_3458_17632)"/>
<path d="M25.3045 11.9608C23.1006 11.1776 20.7299 10.7496 18.2606 10.7496C15.7915 10.7496 13.4207 11.1776 11.2168 11.9608V8.65295C11.2168 7.84397 11.8727 7.18811 12.6816 7.18811H23.8396C24.6485 7.18811 25.3044 7.84397 25.3044 8.65295V11.9608H25.3045Z" fill="url(#paint2_linear_3458_17632)"/>
<path d="M38.1372 4.73659C37.4275 4.73659 36.8029 4.22184 36.6868 3.4987L36.3987 1.70407C36.27 0.902114 36.8158 0.147621 37.6177 0.0188129C38.4191 -0.110191 39.1743 0.435805 39.3031 1.23795L39.5912 3.03258C39.7199 3.83454 39.1741 4.58903 38.3721 4.71784C38.2932 4.73043 38.2146 4.73659 38.1372 4.73659Z" fill="url(#paint3_linear_3458_17632)"/>
<path d="M48.4309 14.0144C48.4077 14.0144 48.3844 14.0139 48.3609 14.0127L46.4869 13.9249C45.6756 13.8869 45.0486 13.1983 45.0866 12.3869C45.1247 11.5755 45.8118 10.9486 46.6246 10.9866L48.4986 11.0744C49.3099 11.1124 49.9369 11.801 49.8989 12.6124C49.8621 13.4004 49.2115 14.0144 48.4309 14.0144Z" fill="url(#paint4_linear_3458_17632)"/>
<path d="M18.2609 13.6793C8.24727 13.6793 0.100586 21.8259 0.100586 31.8396C0.100586 41.8533 8.24727 50 18.2609 50C28.2746 50 36.4214 41.8533 36.4214 31.8396C36.4214 21.8259 28.2746 13.6793 18.2609 13.6793ZM22.7664 35.0687C22.7032 37.0074 21.4317 38.6662 19.6998 39.3244V39.3971C19.6998 40.1974 19.0578 40.8466 18.2609 40.8607C18.2522 40.8608 18.2438 40.862 18.235 40.862C17.4423 40.862 16.7983 40.2319 16.7726 39.4455C15.4562 39.0626 14.3739 38.0986 13.8576 36.777C13.5632 36.0235 13.9355 35.174 14.6891 34.8796C15.4425 34.585 16.2921 34.9574 16.5865 35.711C16.8208 36.3107 17.3978 36.6982 18.0563 36.6982C18.1255 36.6982 18.1936 36.6929 18.2609 36.685C19.1197 36.5836 19.8095 35.8553 19.8382 34.9734C19.8524 34.5342 19.6974 34.124 19.4013 33.8181C19.1052 33.5123 18.7002 33.3439 18.2608 33.3439C17.0208 33.3439 15.8682 32.8587 15.0153 31.9776C14.1625 31.0965 13.715 29.9287 13.7554 28.6894C13.8179 26.7702 15.0647 25.1253 16.77 24.4539V24.3081C16.77 23.4991 17.4259 22.8432 18.2349 22.8432C18.2437 22.8432 18.2521 22.8444 18.2608 22.8445C19.0547 22.8585 19.6944 23.5029 19.6993 24.2989C20.4357 24.5044 21.1088 24.8933 21.6601 25.4447C22.2321 26.0168 22.232 26.9443 21.66 27.5164C21.0879 28.0883 20.1605 28.0882 19.5884 27.5163C19.294 27.2219 18.8953 27.0598 18.4655 27.0598C18.3963 27.0598 18.3282 27.0651 18.2608 27.073C17.402 27.1745 16.7122 27.9028 16.6836 28.7847C16.6693 29.2239 16.8244 29.6341 17.1205 29.9399C17.4165 30.2458 17.8215 30.4141 18.2609 30.4141C19.501 30.4141 20.6535 30.8994 21.5064 31.7804C22.3594 32.6615 22.8067 33.8294 22.7664 35.0687Z" fill="url(#paint5_linear_3458_17632)"/>
</g>
<defs>
<linearGradient id="paint0_linear_3458_17632" x1="47.103" y1="1.05444" x2="47.103" y2="5.29051" gradientUnits="userSpaceOnUse">
<stop stop-color="#B09FFF"/>
<stop offset="1" stop-color="#8D79F6"/>
</linearGradient>
<linearGradient id="paint1_linear_3458_17632" x1="29.207" y1="0.000183105" x2="29.207" y2="14.6599" gradientUnits="userSpaceOnUse">
<stop stop-color="#B09FFF"/>
<stop offset="1" stop-color="#8D79F6"/>
</linearGradient>
<linearGradient id="paint2_linear_3458_17632" x1="18.2606" y1="7.18811" x2="18.2606" y2="11.9608" gradientUnits="userSpaceOnUse">
<stop stop-color="#B09FFF"/>
<stop offset="1" stop-color="#8D79F6"/>
</linearGradient>
<linearGradient id="paint3_linear_3458_17632" x1="37.9949" y1="-6.10352e-05" x2="37.9949" y2="4.73659" gradientUnits="userSpaceOnUse">
<stop stop-color="#B09FFF"/>
<stop offset="1" stop-color="#8D79F6"/>
</linearGradient>
<linearGradient id="paint4_linear_3458_17632" x1="47.4928" y1="10.985" x2="47.4928" y2="14.0144" gradientUnits="userSpaceOnUse">
<stop stop-color="#B09FFF"/>
<stop offset="1" stop-color="#8D79F6"/>
</linearGradient>
<linearGradient id="paint5_linear_3458_17632" x1="18.261" y1="13.6793" x2="18.261" y2="50" gradientUnits="userSpaceOnUse">
<stop stop-color="#B09FFF"/>
<stop offset="1" stop-color="#8D79F6"/>
</linearGradient>
<clipPath id="clip0_3458_17632">
<rect width="50" height="50" fill="white"/>
</clipPath>
</defs>
</svg>
