<svg width="39" height="39" viewBox="0 0 39 39" fill="none" xmlns="http://www.w3.org/2000/svg">
<g clip-path="url(#clip0_2431_15533)">
<path d="M12.8877 23.973C14.1994 23.973 15.2627 22.9097 15.2627 21.598C15.2627 20.2863 14.1994 19.223 12.8877 19.223C11.576 19.223 10.5127 20.2863 10.5127 21.598C10.5127 22.9097 11.576 23.973 12.8877 23.973Z" fill="url(#paint0_linear_2431_15533)"/>
<path d="M35.506 17.5828C35.6865 16.0248 35.8528 14.2499 35.8528 13.0291C35.8528 4.27802 25.6561 1.01636 19.2278 1.01636C15.0573 1.01636 12.0474 3.25361 11.0356 4.12286C7.86895 4.30494 2.60278 6.32052 2.60278 13.0291C2.60278 14.2673 2.76745 16.0343 2.94637 17.5844C1.34245 18.2399 0.227783 19.7915 0.227783 21.5997C0.227783 23.886 2.00587 25.7464 4.24787 25.9206C6.39328 32.1479 12.2912 36.6414 19.2278 36.6414C26.1644 36.6414 32.0623 32.1494 34.2077 25.9206C36.4513 25.7464 38.2278 23.886 38.2278 21.5997C38.2278 19.7899 37.1131 18.2383 35.506 17.5828ZM32.1715 24.4924C32.1715 24.4956 32.1684 24.4972 32.1684 24.5004V24.5051C30.5439 30.1339 25.3632 34.2664 19.2278 34.2664C12.5382 34.2664 6.98703 29.3533 5.94203 22.9439L7.5222 17.4165C8.93295 16.9684 12.0933 15.7002 13.4771 13.0228C15.6067 15.0352 20.3789 17.5052 30.9983 17.6366L32.5151 22.936C32.4296 23.4649 32.3172 23.9842 32.1715 24.4924Z" fill="url(#paint1_linear_2431_15533)"/>
<path d="M25.5576 23.973C26.8693 23.973 27.9326 22.9097 27.9326 21.598C27.9326 20.2863 26.8693 19.223 25.5576 19.223C24.2459 19.223 23.1826 20.2863 23.1826 21.598C23.1826 22.9097 24.2459 23.973 25.5576 23.973Z" fill="url(#paint2_linear_2431_15533)"/>
<path d="M22.3572 27.4722C20.6298 29.1426 17.8178 29.1426 16.0904 27.4722C15.6202 27.021 14.8665 27.0305 14.4105 27.5039C13.9545 27.9757 13.9687 28.7262 14.4406 29.1838C15.7595 30.4568 17.4917 31.0917 19.2238 31.0917C20.956 31.0917 22.6882 30.4568 24.0071 29.1838C24.4789 28.7278 24.4916 27.9757 24.0372 27.5039C23.5812 27.0305 22.8291 27.021 22.3572 27.4722Z" fill="url(#paint3_linear_2431_15533)"/>
</g>
<defs>
<linearGradient id="paint0_linear_2431_15533" x1="12.8877" y1="19.223" x2="12.8877" y2="23.973" gradientUnits="userSpaceOnUse">
<stop stop-color="#FFD572"/>
<stop offset="1" stop-color="#FEBD38"/>
</linearGradient>
<linearGradient id="paint1_linear_2431_15533" x1="19.2278" y1="1.01636" x2="19.2278" y2="36.6414" gradientUnits="userSpaceOnUse">
<stop stop-color="#FFD572"/>
<stop offset="1" stop-color="#FEBD38"/>
</linearGradient>
<linearGradient id="paint2_linear_2431_15533" x1="25.5576" y1="19.223" x2="25.5576" y2="23.973" gradientUnits="userSpaceOnUse">
<stop stop-color="#FFD572"/>
<stop offset="1" stop-color="#FEBD38"/>
</linearGradient>
<linearGradient id="paint3_linear_2431_15533" x1="19.2235" y1="27.1411" x2="19.2235" y2="31.0917" gradientUnits="userSpaceOnUse">
<stop stop-color="#FFD572"/>
<stop offset="1" stop-color="#FEBD38"/>
</linearGradient>
<clipPath id="clip0_2431_15533">
<rect width="38" height="38" fill="white" transform="translate(0.223145 0.223022)"/>
</clipPath>
</defs>
</svg>
