<svg width="50" height="50" viewBox="0 0 50 50" fill="none" xmlns="http://www.w3.org/2000/svg">
<g clip-path="url(#clip0_2524_16999)">
<path d="M48.5448 34.1703H17.4731C15.8513 34.1639 14.5406 32.8461 14.543 31.2242V5.94765C14.5471 2.68488 11.9054 0.0364631 8.64249 0.0322876C8.63901 0.0322876 8.63539 0.0322876 8.63191 0.0322876L1.45303 0.0467628C0.633087 0.0644393 -0.0173246 0.743384 0.000351931 1.56318C0.0174717 2.35946 0.659671 3.00041 1.45609 3.016L8.63776 3.00152C10.2604 3.00264 11.5748 4.31877 11.5737 5.94139V5.94765V31.2242C11.5729 34.4853 14.2121 37.1315 17.4731 37.1396H48.5448C49.3647 37.1232 50.0161 36.4453 49.9998 35.6252C49.9838 34.8284 49.3416 34.1862 48.5448 34.1703Z" fill="url(#paint0_linear_2524_16999)"/>
<path d="M23.3262 40.7686C20.7861 40.8084 18.7591 42.9002 18.7989 45.4403C18.8379 47.9243 20.8423 49.9286 23.3263 49.9679C25.8666 49.9353 27.8995 47.8496 27.867 45.3093C27.8351 42.8149 25.8207 40.8004 23.3262 40.7686Z" fill="url(#paint1_linear_2524_16999)"/>
<path d="M41.1416 40.7686C38.6015 40.8084 36.5745 42.9002 36.6143 45.4403C36.6533 47.9243 38.6577 49.9286 41.1418 49.9679C43.682 49.9353 45.715 47.8496 45.6824 45.3093C45.6505 42.8149 43.6361 40.8004 41.1416 40.7686Z" fill="url(#paint2_linear_2524_16999)"/>
<path d="M22.587 17.4581H45.7771C46.187 17.4581 46.5193 17.7905 46.5193 18.2004V25.9651C46.5143 28.7836 44.2307 31.0672 41.4122 31.0723H39.4821C37.7334 31.0638 36.3201 29.6439 36.3198 27.8951V24.7922C36.3081 23.5972 35.3298 22.6379 34.1348 22.6496C33.9654 22.6513 33.797 22.6728 33.6326 22.7138C31.4395 23.2443 32.1098 26.2374 32.0144 27.8952C32.0141 29.6439 30.6009 31.0638 28.8521 31.0723H26.9518C24.1346 31.064 21.8529 28.7822 21.8447 25.9651V18.2005C21.8449 17.7905 22.1771 17.4581 22.587 17.4581Z" fill="url(#paint3_linear_2524_16999)"/>
<path d="M48.1296 14.4888H20.2055C19.7958 14.4895 19.463 14.1578 19.4624 13.748C19.462 13.5026 19.5831 13.2729 19.7856 13.1344C23.9208 10.3191 33.351 4.11127 33.351 4.11127C33.8463 3.78461 34.4887 3.78461 34.984 4.11127C34.984 4.11127 44.4142 10.3192 48.5494 13.1344C48.8876 13.3657 48.9745 13.8274 48.7432 14.1656C48.6047 14.3681 48.375 14.4892 48.1296 14.4888Z" fill="url(#paint4_linear_2524_16999)"/>
</g>
<defs>
<linearGradient id="paint0_linear_2524_16999" x1="25" y1="0.0322876" x2="25" y2="37.1396" gradientUnits="userSpaceOnUse">
<stop stop-color="#FE6C6C"/>
<stop offset="1" stop-color="#FE464B"/>
</linearGradient>
<linearGradient id="paint1_linear_2524_16999" x1="23.3328" y1="40.7686" x2="23.3328" y2="49.9679" gradientUnits="userSpaceOnUse">
<stop stop-color="#FE6C6C"/>
<stop offset="1" stop-color="#FE464B"/>
</linearGradient>
<linearGradient id="paint2_linear_2524_16999" x1="41.1483" y1="40.7686" x2="41.1483" y2="49.9679" gradientUnits="userSpaceOnUse">
<stop stop-color="#FE6C6C"/>
<stop offset="1" stop-color="#FE464B"/>
</linearGradient>
<linearGradient id="paint3_linear_2524_16999" x1="34.182" y1="17.4581" x2="34.182" y2="31.0723" gradientUnits="userSpaceOnUse">
<stop stop-color="#FE6C6C"/>
<stop offset="1" stop-color="#FE464B"/>
</linearGradient>
<linearGradient id="paint4_linear_2524_16999" x1="34.1676" y1="3.86627" x2="34.1676" y2="14.4888" gradientUnits="userSpaceOnUse">
<stop stop-color="#FE6C6C"/>
<stop offset="1" stop-color="#FE464B"/>
</linearGradient>
<clipPath id="clip0_2524_16999">
<rect width="50" height="50" fill="white"/>
</clipPath>
</defs>
</svg>
