<svg width="50" height="50" viewBox="0 0 50 50" fill="none" xmlns="http://www.w3.org/2000/svg">
<g clip-path="url(#clip0_2524_16773)">
<path fill-rule="evenodd" clip-rule="evenodd" d="M49.0965 13.5114V43.3674C49.0965 47.0154 46.1118 50 42.4638 50H7.53597C3.88792 50 0.90332 47.0154 0.90332 43.3674V13.5114H49.0965ZM8.78882 30.0263C16.4224 25.857 20.8446 30.445 20.7437 34.1485L15.5231 31.1344C14.7557 30.6914 13.7705 30.9538 13.3263 31.7207C12.8817 32.4882 13.1447 33.4754 13.913 33.919L19.3192 37.0404C18.6632 37.5274 17.7747 37.8326 16.6389 37.8554C14.5482 37.8974 12.8446 36.324 12.2387 34.4061C11.9056 33.3515 10.8479 30.5827 8.78882 30.0263ZM41.2109 32.3732C32.5077 27.6197 27.494 32.9257 27.687 37.1321L32.9628 33.7334C33.7067 33.2542 34.7087 33.473 35.1865 34.2174C35.6639 34.9611 35.4457 35.9607 34.703 36.4391L29.0293 40.0941C29.7908 40.7701 30.8817 41.2038 32.3275 41.2329C34.6934 41.2803 36.6212 39.5 37.3069 37.3296C37.6839 36.1362 38.8807 33.0029 41.2109 32.3732ZM34.2255 35.6979C34.5632 35.4811 34.6614 35.0315 34.4445 34.6936C34.2277 34.3559 33.7781 34.2578 33.4403 34.4746L24.7829 40.0516C24.7933 39.4017 24.7995 38.7039 24.7996 37.9694C24.8011 37.9425 24.801 37.9156 24.7995 37.8888C24.7979 34.9571 24.6953 31.4508 24.347 28.0681L30.0247 22.3904C30.3092 22.106 30.3092 21.6449 30.0247 21.3605C29.7404 21.0762 29.2793 21.0762 28.9948 21.3605L24.1298 26.2255C23.6698 22.7854 22.9171 19.6161 21.7081 17.5003C21.5085 17.1517 21.064 17.0305 20.7152 17.2301C20.3664 17.4296 20.2454 17.8743 20.445 18.2231C21.7188 20.4522 22.4548 23.977 22.8676 27.7396C22.8615 27.8269 22.871 27.9153 22.8962 28C23.2048 30.9252 23.3216 33.9789 23.3462 36.6692L15.0822 31.898C14.7349 31.6968 14.2904 31.8154 14.0893 32.1626C13.8882 32.5097 14.0067 32.9544 14.3539 33.1554L23.3502 38.3495C23.3457 39.4474 23.3275 40.4556 23.3041 41.3329C23.3008 41.3664 23.2999 41.4001 23.3013 41.4339C23.2448 43.4932 23.1606 44.8076 23.1597 44.8221C23.136 45.2228 23.4418 45.5667 23.8425 45.5903C24.2431 45.6138 24.587 45.3081 24.6106 44.9074C24.6115 44.8934 24.6878 43.7031 24.7432 41.8063L34.2255 35.6979ZM34.8028 17.8209C28.0381 16.1791 25.3325 20.3033 25.8072 23.3011L28.3714 20.7371C28.9998 20.1086 30.0198 20.1086 30.6483 20.7371C31.2767 21.3656 31.2767 22.3854 30.6483 23.0139L27.7722 25.89C28.4071 26.1281 29.1842 26.1745 30.095 25.9501C31.8152 25.5259 32.8645 23.8646 32.9397 22.162C32.9812 21.226 33.2396 18.7279 34.8028 17.8209Z" fill="url(#paint0_linear_2524_16773)"/>
<path fill-rule="evenodd" clip-rule="evenodd" d="M49.0965 12.6225V8.48712C49.0965 6.21268 47.2355 4.35175 44.9611 4.35175H42.1812V6.72249C42.1812 8.29876 40.8947 9.58529 39.3184 9.58529C37.7422 9.58529 36.4556 8.29876 36.4556 6.72249V4.35175H32.6355V6.72249C32.6355 8.29876 31.349 9.58529 29.7727 9.58529C28.1964 9.58529 26.91 8.29876 26.91 6.72249V4.35175H23.0898V6.72249C23.0898 8.29876 21.8032 9.58529 20.2271 9.58529C18.6508 9.58529 17.3643 8.29876 17.3643 6.72249V4.35175H13.5442V6.72249C13.5442 8.29876 12.2576 9.58529 10.6814 9.58529C9.10509 9.58529 7.81856 8.29876 7.81856 6.72249V4.35175H5.03869C2.76425 4.35175 0.90332 6.21268 0.90332 8.48712V12.6225H49.0965Z" fill="url(#paint1_linear_2524_16773)"/>
<path d="M12.6622 1.98158C12.6622 0.887185 11.7753 0 10.6812 0C9.58712 0 8.7002 0.887185 8.7002 1.98158V6.72215C8.7002 7.81655 9.58712 8.70374 10.6812 8.70374C11.7753 8.70374 12.6622 7.81655 12.6622 6.72215V1.98158Z" fill="url(#paint2_linear_2524_16773)"/>
<path d="M22.2079 1.98158C22.2079 0.887185 21.3209 0 20.2269 0C19.1328 0 18.2458 0.887185 18.2458 1.98158V6.72215C18.2458 7.81655 19.1328 8.70374 20.2269 8.70374C21.3209 8.70374 22.2079 7.81655 22.2079 6.72215V1.98158Z" fill="url(#paint3_linear_2524_16773)"/>
<path d="M31.7535 1.98158C31.7535 0.887185 30.8666 0 29.7725 0C28.6784 0 27.7915 0.887185 27.7915 1.98158V6.72215C27.7915 7.81655 28.6784 8.70374 29.7725 8.70374C30.8666 8.70374 31.7535 7.81655 31.7535 6.72215V1.98158Z" fill="url(#paint4_linear_2524_16773)"/>
<path d="M41.2994 1.98158C41.2994 0.887185 40.4125 0 39.3184 0C38.2243 0 37.3374 0.887185 37.3374 1.98158V6.72215C37.3374 7.81655 38.2243 8.70374 39.3184 8.70374C40.4125 8.70374 41.2994 7.81655 41.2994 6.72215V1.98158Z" fill="url(#paint5_linear_2524_16773)"/>
</g>
<defs>
<linearGradient id="paint0_linear_2524_16773" x1="43.6815" y1="23.5561" x2="43.6815" y2="40.9804" gradientUnits="userSpaceOnUse">
<stop stop-color="#78D85B"/>
<stop offset="1" stop-color="#5AB83D"/>
</linearGradient>
<linearGradient id="paint1_linear_2524_16773" x1="43.6815" y1="6.62852" x2="43.6815" y2="10.578" gradientUnits="userSpaceOnUse">
<stop stop-color="#78D85B"/>
<stop offset="1" stop-color="#5AB83D"/>
</linearGradient>
<linearGradient id="paint2_linear_2524_16773" x1="12.217" y1="2.39597" x2="12.217" y2="6.55225" gradientUnits="userSpaceOnUse">
<stop stop-color="#78D85B"/>
<stop offset="1" stop-color="#5AB83D"/>
</linearGradient>
<linearGradient id="paint3_linear_2524_16773" x1="21.7627" y1="2.39597" x2="21.7627" y2="6.55225" gradientUnits="userSpaceOnUse">
<stop stop-color="#78D85B"/>
<stop offset="1" stop-color="#5AB83D"/>
</linearGradient>
<linearGradient id="paint4_linear_2524_16773" x1="31.3083" y1="2.39597" x2="31.3083" y2="6.55225" gradientUnits="userSpaceOnUse">
<stop stop-color="#78D85B"/>
<stop offset="1" stop-color="#5AB83D"/>
</linearGradient>
<linearGradient id="paint5_linear_2524_16773" x1="40.8542" y1="2.39597" x2="40.8542" y2="6.55225" gradientUnits="userSpaceOnUse">
<stop stop-color="#78D85B"/>
<stop offset="1" stop-color="#5AB83D"/>
</linearGradient>
<clipPath id="clip0_2524_16773">
<rect width="50" height="50" fill="white"/>
</clipPath>
</defs>
</svg>
