<svg width="38" height="38" viewBox="0 0 38 38" fill="none" xmlns="http://www.w3.org/2000/svg">
<g clip-path="url(#clip0_2431_15768)">
<path d="M37.7362 13.9653C37.6459 13.7023 37.3257 13.4978 37.0584 13.4978C35.9009 13.4978 34.7436 13.4978 33.5862 13.4978C33.319 13.4978 32.9987 13.7023 32.9083 13.9653C32.8199 14.2227 32.7538 14.4523 32.7099 14.6683L30.3905 8.25155C30.008 7.19344 28.9948 6.48254 27.8698 6.48254H10.1303C9.00519 6.48254 7.99223 7.19344 7.60949 8.25175L5.29 14.6691C5.24599 14.4529 5.17994 14.223 5.09145 13.9653C5.00113 13.7023 4.68088 13.4978 4.41368 13.4978C3.25629 13.4978 2.09891 13.4978 0.941423 13.4978C0.674223 13.4978 0.353968 13.7023 0.26365 13.9653C-0.0879955 14.9891 -0.0878029 15.5752 0.263746 16.5992C0.354064 16.8621 0.674319 17.0667 0.94152 17.0667C2.099 17.0667 3.25639 17.0667 4.41377 17.0667C4.41705 17.0667 4.42051 17.0658 4.42388 17.0657L4.3715 17.2108C3.66349 17.446 3.1523 18.1125 3.1523 18.8996V24.273V24.7158V30.6618C3.1523 31.1345 3.53534 31.5175 4.00801 31.5175H8.3147C8.78729 31.5175 9.17042 31.1345 9.17042 30.6618V26.4962H28.8296V30.6618C28.8296 31.1345 29.2127 31.5175 29.6853 31.5175H33.992C34.4647 31.5175 34.8477 31.1345 34.8477 30.6618V24.7158V24.273V18.8996C34.8477 18.1127 34.3367 17.4463 33.629 17.2109L33.5765 17.0657C33.5797 17.0658 33.5831 17.0666 33.5863 17.0666C34.7437 17.0666 35.901 17.0666 37.0585 17.0666C37.3258 17.0666 37.646 16.862 37.7363 16.5991C38.0878 15.5752 38.0876 14.9891 37.7362 13.9653ZM10.458 9.63156H27.5397L30.2462 17.1191H7.75161L10.458 9.63156ZM10.9344 22.3939H7.3315C6.5585 22.3939 5.93195 21.7674 5.93195 20.9944C5.93195 20.2214 6.5584 19.5948 7.3315 19.5948H10.9344C11.7073 19.5948 12.334 20.2214 12.334 20.9944C12.3341 21.7674 11.7073 22.3939 10.9344 22.3939ZM30.6682 22.3939H27.0653C26.2924 22.3939 25.6658 21.7674 25.6658 20.9944C25.6658 20.2214 26.2924 19.5948 27.0653 19.5948H30.6682C31.4412 19.5948 32.0678 20.2214 32.0678 20.9944C32.0678 21.7674 31.4412 22.3939 30.6682 22.3939Z" fill="url(#paint0_linear_2431_15768)"/>
</g>
<defs>
<linearGradient id="paint0_linear_2431_15768" x1="18.9999" y1="6.48254" x2="18.9999" y2="31.5175" gradientUnits="userSpaceOnUse">
<stop stop-color="#90C6FD"/>
<stop offset="1" stop-color="#5398DF"/>
</linearGradient>
<clipPath id="clip0_2431_15768">
<rect width="38" height="38" fill="white"/>
</clipPath>
</defs>
</svg>
