<svg width="50" height="50" viewBox="0 0 50 50" fill="none" xmlns="http://www.w3.org/2000/svg">
<g clip-path="url(#clip0_2524_16876)">
<path d="M49.8396 32.6309L48.9012 36.2594C48.651 37.1352 48.213 37.886 47.5249 38.5115C47.3372 38.6992 47.087 38.8869 46.8367 39.0746L45.7107 43.141C45.6481 43.4538 45.4604 43.7666 45.2727 44.0168C44.6471 44.8301 43.6462 45.1429 42.6452 44.8926L40.2054 44.2671C38.8916 43.8917 38.0784 42.5154 38.4537 41.2016L39.0793 38.7618L19.7483 33.5693L19.1227 36.0092C18.7474 37.3229 17.3711 38.1362 16.0573 37.7608L13.6175 37.1352C12.6165 36.885 11.9284 36.0092 11.8033 35.0708C11.7407 34.758 11.8033 34.3826 11.8658 34.0698L12.9293 30.0034C12.8042 29.7532 12.6791 29.4404 12.6165 29.1901C12.3663 28.3143 12.3663 27.3759 12.554 26.5001L13.4924 22.8716C13.8677 21.3702 14.9312 20.1815 16.3701 19.5559C16.808 19.3683 17.3085 19.2431 17.809 19.1806L19.2479 17.3038L21.7503 13.9256C22.0005 13.5502 22.3133 13.2374 22.6261 12.9246C23.2517 12.299 23.9399 11.7985 24.6906 11.4232C25.0659 11.2355 25.4413 11.0478 25.8792 10.9227C26.6925 10.6724 27.5058 10.4848 28.3816 10.4848C29.2574 10.4222 30.1333 10.5473 31.0091 10.7976L40.5808 13.3625C41.4566 13.6128 42.2699 13.9256 43.0206 14.3635C45.2727 15.7398 46.7116 18.1171 47.0244 20.7446L47.5249 24.9361L47.7751 27.3134C48.5884 27.8764 49.214 28.6897 49.5268 29.6281C50.0898 30.5665 50.0898 31.63 49.8396 32.6309ZM19.9986 23.3095C18.7474 22.8716 17.4336 23.5598 16.9957 24.811C16.9957 24.8735 16.9332 24.9986 16.9332 25.0612C16.4952 26.3124 17.1834 27.6262 18.4346 28.0641C18.4972 28.0641 18.6223 28.1266 18.6848 28.1266C20.1237 28.502 22.2507 29.3153 22.6261 27.8764C23.0015 26.4375 21.4375 23.6849 19.9986 23.3095ZM42.7078 25.4991L42.2073 21.3076C42.1447 20.9323 42.0196 20.5569 41.8945 20.2441C41.4566 19.1806 40.5182 18.4299 39.4547 18.1796L29.8205 15.6147C28.319 15.2393 26.755 15.7398 25.8166 16.991L23.3143 20.3692L36.7646 23.9977L42.7078 25.4991ZM44.1467 29.7532C42.7078 29.3778 39.9552 30.9418 39.5798 32.3807C39.2044 33.8196 41.4566 34.1949 42.8955 34.5703C44.2092 35.0708 45.6481 34.3826 46.086 33.0688C46.5239 31.7551 45.8983 30.3162 44.5846 29.8783C44.4595 29.8157 44.2718 29.8157 44.1467 29.7532Z" fill="url(#paint0_linear_2524_16876)"/>
<path d="M11.1779 22.246L10.1769 25.8745C9.92669 26.7503 9.86413 27.6887 9.98925 28.5645L7.23662 30.8167C6.92383 31.0669 6.48591 31.0044 6.23567 30.6916C6.11055 30.5039 6.04799 30.3162 6.11055 30.1285L7.29918 24.1228C7.36174 23.7474 7.1115 23.3721 6.73615 23.3095H6.67359L0.605289 22.7465C0.22993 22.6839 -0.082869 22.3711 -0.0203092 21.9958C-0.0203092 21.8081 0.10481 21.6204 0.29249 21.4953L5.35983 18.1171C5.67263 17.8668 5.79775 17.4289 5.54751 17.1161C5.54751 17.1161 5.54751 17.0535 5.48495 17.0535L1.60625 12.3616C1.35601 12.0488 1.41857 11.6108 1.73136 11.3606C1.91904 11.2355 2.10672 11.1729 2.2944 11.2355L8.30014 12.4241C8.6755 12.4867 9.05086 12.2364 9.11342 11.8611V11.7985L9.67646 5.66767C9.73902 5.29231 10.0518 4.97951 10.4272 5.04207C10.6149 5.04207 10.8025 5.16719 10.9277 5.35487L14.3059 10.4222C14.4936 10.735 14.9315 10.8601 15.3068 10.6099C15.3068 10.6099 15.3694 10.6099 15.3694 10.5473L20.0614 6.66862C20.3742 6.41838 20.8121 6.48094 21.0623 6.79374C21.1875 6.98142 21.25 7.1691 21.1875 7.35678L20.3116 11.736C20.1239 11.9862 19.8737 12.2364 19.686 12.4867L17.1836 15.8649L16.3704 16.991C13.9305 17.6166 11.866 19.6811 11.1779 22.246Z" fill="url(#paint1_linear_2524_16876)"/>
</g>
<defs>
<linearGradient id="paint0_linear_2524_16876" x1="30.8885" y1="10.4688" x2="30.8885" y2="44.9768" gradientUnits="userSpaceOnUse">
<stop stop-color="#90C6FD"/>
<stop offset="1" stop-color="#5398DF"/>
</linearGradient>
<linearGradient id="paint1_linear_2524_16876" x1="10.5918" y1="5.03406" x2="10.5918" y2="30.9711" gradientUnits="userSpaceOnUse">
<stop stop-color="#90C6FD"/>
<stop offset="1" stop-color="#5398DF"/>
</linearGradient>
<clipPath id="clip0_2524_16876">
<rect width="50" height="50" fill="white"/>
</clipPath>
</defs>
</svg>
