<svg width="50" height="50" viewBox="0 0 50 50" fill="none" xmlns="http://www.w3.org/2000/svg">
<g clip-path="url(#clip0_2524_16871)">
<path d="M15.586 27.4577C16.9412 27.4577 18.0437 26.3552 18.0437 25C18.0437 23.6448 16.9412 22.5423 15.586 22.5423C14.2309 22.5423 13.1284 23.6448 13.1284 25C13.1284 26.3552 14.2309 27.4577 15.586 27.4577Z" fill="url(#paint0_linear_2524_16871)"/>
<path d="M15.5857 30.3874C13.4434 30.3874 11.6236 31.7948 11.0024 33.7338H20.1689C19.5479 31.7948 17.728 30.3874 15.5857 30.3874Z" fill="url(#paint1_linear_2524_16871)"/>
<path d="M45.3971 7.06056H4.60293C2.03096 7.06056 0 9.14943 0 11.6635V38.3366C0 40.9085 2.08887 42.9395 4.60293 42.9395H45.3971C47.969 42.9395 50 40.8506 50 38.3365V11.6635C50 9.09142 47.9111 7.06056 45.3971 7.06056ZM21.8619 36.6635H9.30986C8.50088 36.6635 7.84502 36.0076 7.84502 35.1986C7.84502 32.4003 9.3376 29.9443 11.5684 28.5843C10.7173 27.6313 10.1986 26.3753 10.1986 25.0001C10.1986 22.0295 12.6153 19.6127 15.5859 19.6127C18.5565 19.6127 20.9733 22.0295 20.9733 25.0001C20.9733 26.3754 20.4547 27.6314 19.6035 28.5844C21.8343 29.9443 23.3269 32.4005 23.3269 35.1987C23.3268 36.0076 22.6709 36.6635 21.8619 36.6635ZM37.5521 36.6635H29.707C28.898 36.6635 28.2422 36.0076 28.2422 35.1986C28.2422 34.3897 28.898 33.7338 29.707 33.7338H37.5521C38.361 33.7338 39.0169 34.3897 39.0169 35.1986C39.0169 36.0076 38.361 36.6635 37.5521 36.6635ZM40.6901 30.3874H29.707C28.898 30.3874 28.2422 29.7316 28.2422 28.9226C28.2422 28.1136 28.898 27.4577 29.707 27.4577H40.6901C41.4991 27.4577 42.155 28.1136 42.155 28.9226C42.155 29.7316 41.4991 30.3874 40.6901 30.3874ZM40.6901 24.1113H29.707C28.898 24.1113 28.2422 23.4555 28.2422 22.6465C28.2422 21.8375 28.898 21.1817 29.707 21.1817H40.6901C41.4991 21.1817 42.155 21.8375 42.155 22.6465C42.155 23.4555 41.4991 24.1113 40.6901 24.1113ZM40.6901 16.2662H9.30986C8.50088 16.2662 7.84502 15.6104 7.84502 14.8014C7.84502 13.9924 8.50088 13.3365 9.30986 13.3365H40.6901C41.4991 13.3365 42.155 13.9924 42.155 14.8014C42.155 15.6104 41.4991 16.2662 40.6901 16.2662Z" fill="url(#paint2_linear_2524_16871)"/>
</g>
<defs>
<linearGradient id="paint0_linear_2524_16871" x1="15.5861" y1="22.5423" x2="15.5861" y2="27.4577" gradientUnits="userSpaceOnUse">
<stop stop-color="#90C6FD"/>
<stop offset="1" stop-color="#5398DF"/>
</linearGradient>
<linearGradient id="paint1_linear_2524_16871" x1="15.5857" y1="30.3874" x2="15.5857" y2="33.7338" gradientUnits="userSpaceOnUse">
<stop stop-color="#90C6FD"/>
<stop offset="1" stop-color="#5398DF"/>
</linearGradient>
<linearGradient id="paint2_linear_2524_16871" x1="25" y1="7.06056" x2="25" y2="42.9395" gradientUnits="userSpaceOnUse">
<stop stop-color="#90C6FD"/>
<stop offset="1" stop-color="#5398DF"/>
</linearGradient>
<clipPath id="clip0_2524_16871">
<rect width="50" height="50" fill="white"/>
</clipPath>
</defs>
</svg>
