<svg width="50" height="50" viewBox="0 0 50 50" fill="none" xmlns="http://www.w3.org/2000/svg">
<path d="M46.051 6.28574C45.7328 5.96855 45.302 5.76924 44.8529 5.76924C44.8513 5.76924 44.8494 5.76924 44.8478 5.76924L39.423 5.81494V4.86426C39.423 2.19482 37.2906 0 34.6212 0H10.4493C7.77988 0 5.59951 2.19482 5.59951 4.86426V5.76924H5.14707C4.20996 5.76924 3.4502 6.529 3.4502 7.46611C3.4502 8.40322 4.20996 9.16299 5.14707 9.16299H5.59951V10.1222C5.59951 12.7916 7.77978 14.9322 10.4493 14.9322H34.6213C37.2907 14.9322 39.4231 12.7916 39.4231 10.1222V9.26348L43.1562 9.21103V13.4663L21.7445 25.3476C21.2054 25.6468 20.871 26.2147 20.871 26.8313V30.6562H18.4774C17.5403 30.6562 16.7986 31.4593 16.7986 32.3964V41.7421H28.3371V32.3964C28.3371 31.4593 27.5304 30.6562 26.5933 30.6562H24.2647V27.8304L45.6763 15.949C46.2154 15.6498 46.5498 15.0818 46.5498 14.4653V7.50879C46.5498 7.05791 46.3702 6.6041 46.051 6.28574Z" fill="url(#paint0_linear_2524_17025)"/>
<path d="M16.7983 45.1357V48.28C16.7983 49.2171 17.54 50 18.4771 50H26.5929C27.53 50 28.3367 49.2171 28.3367 48.28V45.1357H16.7983Z" fill="url(#paint1_linear_2524_17025)"/>
<defs>
<linearGradient id="paint0_linear_2524_17025" x1="25" y1="0" x2="25" y2="41.7421" gradientUnits="userSpaceOnUse">
<stop stop-color="#FE6C6C"/>
<stop offset="1" stop-color="#FE464B"/>
</linearGradient>
<linearGradient id="paint1_linear_2524_17025" x1="22.5675" y1="45.1357" x2="22.5675" y2="50" gradientUnits="userSpaceOnUse">
<stop stop-color="#FE6C6C"/>
<stop offset="1" stop-color="#FE464B"/>
</linearGradient>
</defs>
</svg>
