<svg width="50" height="50" viewBox="0 0 50 50" fill="none" xmlns="http://www.w3.org/2000/svg">
<path d="M11.9319 40.9091C11.1452 40.9091 10.3763 41.1423 9.72221 41.5793C9.06815 42.0164 8.55837 42.6375 8.25734 43.3643C7.95631 44.091 7.87755 44.8907 8.03101 45.6622C8.18448 46.4338 8.56328 47.1424 9.11951 47.6987C9.67574 48.2549 10.3844 48.6337 11.1559 48.7872C11.9275 48.9406 12.7272 48.8619 13.4539 48.5608C14.1807 48.2598 14.8018 47.75 15.2389 47.096C15.6759 46.4419 15.9091 45.673 15.9091 44.8863C15.908 43.8318 15.4886 42.8209 14.7429 42.0753C13.9973 41.3296 12.9864 40.9102 11.9319 40.9091ZM11.9319 46.5909C11.5947 46.5909 11.2652 46.4909 10.9849 46.3036C10.7046 46.1163 10.4861 45.8501 10.3571 45.5386C10.2281 45.2272 10.1943 44.8844 10.2601 44.5538C10.3258 44.2231 10.4882 43.9194 10.7266 43.681C10.965 43.4426 11.2687 43.2803 11.5993 43.2145C11.93 43.1488 12.2727 43.1825 12.5842 43.3115C12.8956 43.4405 13.1618 43.659 13.3491 43.9393C13.5364 44.2196 13.6364 44.5492 13.6364 44.8863C13.6367 45.1102 13.5928 45.332 13.5073 45.539C13.4217 45.7459 13.2962 45.9339 13.1378 46.0923C12.9795 46.2506 12.7915 46.3762 12.5845 46.4617C12.3776 46.5473 12.1558 46.5912 11.9319 46.5909Z" fill="url(#paint0_linear_2524_16759)"/>
<path d="M37.5002 40.9091C36.7136 40.9091 35.9446 41.1423 35.2906 41.5793C34.6365 42.0164 34.1267 42.6375 33.8257 43.3643C33.5247 44.091 33.4459 44.8907 33.5994 45.6622C33.7528 46.4338 34.1316 47.1424 34.6879 47.6987C35.2441 48.2549 35.9528 48.6337 36.7243 48.7872C37.4958 48.9406 38.2955 48.8619 39.0223 48.5608C39.749 48.2598 40.3702 47.75 40.8072 47.096C41.2442 46.4419 41.4775 45.673 41.4775 44.8863C41.4763 43.8318 41.0569 42.8209 40.3113 42.0753C39.5657 41.3296 38.5547 40.9102 37.5002 40.9091ZM37.5002 46.5909C37.1631 46.5909 36.8335 46.4909 36.5532 46.3036C36.2729 46.1163 36.0544 45.8501 35.9254 45.5386C35.7964 45.2272 35.7627 44.8844 35.8284 44.5538C35.8942 44.2231 36.0565 43.9194 36.2949 43.681C36.5333 43.4426 36.837 43.2803 37.1677 43.2145C37.4983 43.1488 37.8411 43.1825 38.1525 43.3115C38.464 43.4405 38.7302 43.659 38.9175 43.9393C39.1048 44.2196 39.2048 44.5492 39.2048 44.8863C39.2051 45.1102 39.1612 45.332 39.0756 45.539C38.9901 45.7459 38.8645 45.9339 38.7062 46.0923C38.5479 46.2506 38.3598 46.3762 38.1529 46.4617C37.9459 46.5473 37.7242 46.5912 37.5002 46.5909Z" fill="url(#paint1_linear_2524_16759)"/>
<path d="M32.3864 6.24998C32.537 6.25041 32.6813 6.31041 32.7877 6.41687C32.8942 6.52333 32.9542 6.6676 32.9546 6.81816V11.1079C33.7771 10.558 34.4466 9.80822 34.9003 8.92893C35.3541 8.04964 35.5772 7.06957 35.5488 6.08053C35.5204 5.09149 35.2414 4.12583 34.738 3.27401C34.2346 2.42219 33.5232 1.71209 32.6705 1.2102C32.5834 1.16267 32.4857 1.13776 32.3864 1.13776C32.2872 1.13776 32.1895 1.16267 32.1023 1.2102C31.2496 1.71209 30.5382 2.42219 30.0348 3.27401C29.5314 4.12583 29.2525 5.09149 29.2241 6.08053C29.1957 7.06957 29.4188 8.04964 29.8725 8.92893C30.3263 9.80822 30.9957 10.558 31.8183 11.1079V6.81816C31.8187 6.6676 31.8787 6.52333 31.9851 6.41687C32.0916 6.31041 32.2359 6.25041 32.3864 6.24998Z" fill="url(#paint2_linear_2524_16759)"/>
<path d="M28.9773 17.0454C29.2569 17.0444 29.536 17.0235 29.8125 16.9829L30.1535 17.3238C30.6837 17.8494 31.104 18.4753 31.3898 19.165C31.6756 19.8546 31.8213 20.5943 31.8182 21.3409V30.1136H48.0682L45.216 24.8182C44.8758 24.186 44.3708 23.6578 43.7546 23.2896C43.1383 22.9215 42.4338 22.7271 41.716 22.7273H32.9546V21.3409C32.9515 20.5943 33.0972 19.8546 33.383 19.165C33.6688 18.4753 34.0891 17.8494 34.6194 17.3238L34.9603 16.9829C35.2368 17.0235 35.516 17.0444 35.7955 17.0454C37.4528 17.0444 39.0419 16.3856 40.2138 15.2138C41.3857 14.0419 42.0445 12.4527 42.0455 10.7954C42.0465 10.4122 42.0103 10.0297 41.9375 9.6534C41.9183 9.53986 41.8641 9.43512 41.7827 9.35368C41.7013 9.27225 41.5965 9.21814 41.483 9.19886C41.1067 9.12608 40.7242 9.08993 40.341 9.0909C38.8886 9.09128 37.4817 9.59736 36.362 10.5222C35.2422 11.4471 34.4794 12.733 34.2046 14.1591C34.6107 13.7339 35.1065 13.4046 35.656 13.1953C36.2054 12.9859 36.7946 12.9017 37.3807 12.9489C35.3523 14.9773 33.875 16.2784 32.9546 17.6079V11.1079C32.8834 11.1885 32.796 11.253 32.698 11.2971C32.6001 11.3413 32.4939 11.3641 32.3864 11.3641C32.279 11.3641 32.1727 11.3413 32.0748 11.2971C31.9768 11.253 31.8894 11.1885 31.8182 11.1079V17.6079C30.8978 16.2784 29.4205 14.9773 27.3921 12.9489C27.9782 12.9017 28.5674 12.9859 29.1168 13.1953C29.6663 13.4046 30.1621 13.7339 30.5682 14.1591C30.2934 12.733 29.5306 11.4471 28.4109 10.5222C27.2911 9.59736 25.8842 9.09128 24.4319 9.0909C24.0486 9.08993 23.6661 9.12608 23.2898 9.19886C23.1763 9.21814 23.0715 9.27225 22.9901 9.35368C22.9087 9.43512 22.8546 9.53986 22.8353 9.6534C22.7625 10.0297 22.7263 10.4122 22.7273 10.7954C22.7283 12.4527 23.3871 14.0419 24.559 15.2138C25.7309 16.3856 27.32 17.0444 28.9773 17.0454Z" fill="url(#paint3_linear_2524_16759)"/>
<path d="M8.50004 31.8807C6.55381 32.3882 4.8309 33.527 3.6012 35.1186C2.3715 36.7102 1.70446 38.6648 1.70459 40.6761V44.8864C1.70502 45.0369 1.76503 45.1812 1.87149 45.2876C1.97795 45.3941 2.12221 45.4541 2.27277 45.4545H6.25004C6.32473 45.4548 6.39874 45.4403 6.46779 45.4118C6.53684 45.3834 6.59958 45.3415 6.6524 45.2887C6.70521 45.2359 6.74705 45.1732 6.77551 45.1041C6.80397 45.035 6.81849 44.961 6.81823 44.8864C6.81446 43.5301 7.3496 42.228 8.30593 41.2663C9.26226 40.3046 10.5614 39.7623 11.9177 39.7585C13.2739 39.7547 14.576 40.2899 15.5377 41.2462C16.4994 42.2025 17.0417 43.5017 17.0455 44.8579V44.8864C17.0452 44.961 17.0598 45.035 17.0882 45.1041C17.1167 45.1732 17.1585 45.2359 17.2113 45.2887C17.2641 45.3415 17.3269 45.3834 17.3959 45.4118C17.465 45.4403 17.539 45.4548 17.6137 45.4545H31.8182C31.8929 45.4548 31.9669 45.4403 32.036 45.4118C32.105 45.3834 32.1678 45.3415 32.2206 45.2887C32.2734 45.2359 32.3152 45.1732 32.3437 45.1041C32.3722 45.035 32.3867 44.961 32.3864 44.8864C32.3826 43.5301 32.9178 42.228 33.8741 41.2663C34.8304 40.3046 36.1296 39.7623 37.4858 39.7585C38.8421 39.7547 40.1442 40.2899 41.1059 41.2462C42.0675 42.2025 42.6099 43.5017 42.6137 44.8579V44.8864C42.6134 44.961 42.6279 45.035 42.6564 45.1041C42.6849 45.1732 42.7267 45.2359 42.7795 45.2887C42.8323 45.3415 42.8951 45.3834 42.9641 45.4118C43.0332 45.4403 43.1072 45.4548 43.1819 45.4545H47.7273C47.8779 45.4541 48.0221 45.3941 48.1286 45.2876C48.2351 45.1812 48.2951 45.0369 48.2955 44.8864V31.25C10.4489 31.25 11.7671 31.0227 8.50004 31.8807ZM29.5455 34.6591H28.4091C28.2584 34.6591 28.1139 34.5992 28.0074 34.4927C27.9008 34.3861 27.841 34.2416 27.841 34.0909C27.841 33.9402 27.9008 33.7957 28.0074 33.6891C28.1139 33.5826 28.2584 33.5227 28.4091 33.5227H29.5455C29.6962 33.5227 29.8407 33.5826 29.9473 33.6891C30.0538 33.7957 30.1137 33.9402 30.1137 34.0909C30.1137 34.2416 30.0538 34.3861 29.9473 34.4927C29.8407 34.5992 29.6962 34.6591 29.5455 34.6591Z" fill="url(#paint4_linear_2524_16759)"/>
<path d="M30.6819 22.7272H25.2785C24.0399 22.7271 22.8163 22.9969 21.6927 23.5179C20.5692 24.039 19.5727 24.7988 18.7728 25.7443L15.0796 30.1136H30.6819V22.7272Z" fill="url(#paint5_linear_2524_16759)"/>
<defs>
<linearGradient id="paint0_linear_2524_16759" x1="15.0154" y1="43.0988" x2="15.0154" y2="46.8973" gradientUnits="userSpaceOnUse">
<stop stop-color="#78D85B"/>
<stop offset="1" stop-color="#5AB83D"/>
</linearGradient>
<linearGradient id="paint1_linear_2524_16759" x1="40.5837" y1="43.0988" x2="40.5837" y2="46.8973" gradientUnits="userSpaceOnUse">
<stop stop-color="#78D85B"/>
<stop offset="1" stop-color="#5AB83D"/>
</linearGradient>
<linearGradient id="paint2_linear_2524_16759" x1="34.84" y1="3.88235" x2="34.84" y2="8.64339" gradientUnits="userSpaceOnUse">
<stop stop-color="#78D85B"/>
<stop offset="1" stop-color="#5AB83D"/>
</linearGradient>
<linearGradient id="paint3_linear_2524_16759" x1="45.2209" y1="14.878" x2="45.2209" y2="24.917" gradientUnits="userSpaceOnUse">
<stop stop-color="#78D85B"/>
<stop offset="1" stop-color="#5AB83D"/>
</linearGradient>
<linearGradient id="paint4_linear_2524_16759" x1="43.0606" y1="35.1405" x2="43.0606" y2="41.9366" gradientUnits="userSpaceOnUse">
<stop stop-color="#78D85B"/>
<stop offset="1" stop-color="#5AB83D"/>
</linearGradient>
<linearGradient id="paint5_linear_2524_16759" x1="28.9288" y1="24.7606" x2="28.9288" y2="28.2878" gradientUnits="userSpaceOnUse">
<stop stop-color="#78D85B"/>
<stop offset="1" stop-color="#5AB83D"/>
</linearGradient>
</defs>
</svg>
