<svg width="50" height="50" viewBox="0 0 50 50" fill="none" xmlns="http://www.w3.org/2000/svg">
<g clip-path="url(#clip0_3458_17774)">
<path d="M19.9985 8.83282L14.6953 12.6207V25.8567C14.6953 32.513 18.8157 38.4484 25.0003 40.7838C31.185 38.4484 35.3053 32.5131 35.3053 25.8567V12.6207L30.0023 8.83282H19.9985ZM23.9594 28.5804L19.164 23.7851L21.246 21.7032L23.9594 24.4166L28.8353 19.5407L30.9173 21.6226L23.9594 28.5804Z" fill="url(#paint0_linear_3458_17774)"/>
<path d="M13.0985 10.1433L19.0552 5.88855H30.946L36.9026 10.1433L42.7911 7.11298L32.8331 -1.52588e-05H17.168L7.20996 7.11298L13.0985 10.1433Z" fill="url(#paint1_linear_3458_17774)"/>
<path d="M38.2494 12.7612V25.8567C38.2494 33.9416 33.1163 41.1288 25.4763 43.7411L25.0001 43.9039L24.5239 43.7411C16.8838 41.1289 11.7509 33.9417 11.7509 25.8567V12.7612L5.8623 9.73083V25.8567C5.8623 37.2549 13.5852 47.1462 24.643 49.9107L25.0001 50L25.3572 49.9107C36.4151 47.1462 44.138 37.2549 44.138 25.8567V9.73083L38.2494 12.7612Z" fill="url(#paint2_linear_3458_17774)"/>
</g>
<defs>
<linearGradient id="paint0_linear_3458_17774" x1="14.4324" y1="8.83282" x2="38.4202" y2="11.4929" gradientUnits="userSpaceOnUse">
<stop stop-color="#FDB3FF"/>
<stop offset="1" stop-color="#F77CF2"/>
</linearGradient>
<linearGradient id="paint1_linear_3458_17774" x1="6.75612" y1="-1.56454e-05" x2="37.4981" y2="18.5389" gradientUnits="userSpaceOnUse">
<stop stop-color="#FDB3FF"/>
<stop offset="1" stop-color="#F77CF2"/>
</linearGradient>
<linearGradient id="paint2_linear_3458_17774" x1="5.37409" y1="9.73083" x2="49.2978" y2="16.9082" gradientUnits="userSpaceOnUse">
<stop stop-color="#FDB3FF"/>
<stop offset="1" stop-color="#F77CF2"/>
</linearGradient>
<clipPath id="clip0_3458_17774">
<rect width="50" height="50" fill="white"/>
</clipPath>
</defs>
</svg>
