<svg width="50" height="50" viewBox="0 0 50 50" fill="none" xmlns="http://www.w3.org/2000/svg">
<g clip-path="url(#clip0_2524_16767)">
<path d="M4.60064 27.1089C4.86423 27.5542 5.34327 27.8271 5.86068 27.8271H7.53436L1.17304 39.1348C0.924294 39.5885 0.933373 40.1397 1.19696 40.585C1.46055 41.0303 1.93959 41.3032 2.457 41.3032H24.0266C17.3907 38.5743 12.7076 32.0544 12.7076 24.463C12.7076 20.538 13.9738 16.7407 16.2987 13.6184L15.4559 12.2596C15.1988 11.7908 14.7066 11.4993 14.172 11.4993C13.6373 11.4993 13.145 11.7907 12.888 12.2596L4.57672 25.6587C4.32798 26.1125 4.33705 26.6637 4.60064 27.1089Z" fill="url(#paint0_linear_2524_16767)"/>
<path d="M29.2486 30.1876L22.8542 23.7932C22.2823 23.2214 22.2823 22.2942 22.8542 21.7223C23.426 21.1504 24.3532 21.1504 24.9251 21.7223L29.499 26.2961V12.4583C29.499 11.6496 30.1547 10.9939 30.9634 10.9939C31.7721 10.9939 32.4278 11.6496 32.4278 12.4583V20.5893L37.4628 17.6822C38.1631 17.2778 39.0589 17.5177 39.4632 18.2182C39.8676 18.9185 39.6277 19.8141 38.9272 20.2185L32.4278 23.971V39.6712C40.1948 38.9338 46.2904 32.3951 46.2904 24.463C46.2904 20.7252 44.9467 17.1812 42.4893 14.3928C42.6825 13.5409 42.7801 12.6682 42.7801 11.7882C42.7801 5.29257 37.4791 0.00805664 30.9634 0.00805664C24.4476 0.00805664 19.1466 5.29267 19.1466 11.7883C19.1466 12.6683 19.2441 13.541 19.4373 14.3929C16.9799 17.1813 15.6362 20.7253 15.6362 24.4631C15.6362 32.3952 21.7319 38.934 29.4989 39.6713V30.3875C29.4103 30.331 29.3259 30.265 29.2486 30.1876Z" fill="url(#paint1_linear_2524_16767)"/>
<path d="M2.54229 7.5553C2.79279 7.29171 3.11085 7.10261 3.46201 7.0084C4.18736 6.81413 4.97295 7.05517 5.46429 7.62236C5.75394 7.95653 6.16172 8.12786 6.57174 8.12777C6.72453 8.12777 6.87741 8.10258 7.02482 8.05465C7.58411 7.93662 8.04646 7.49623 8.16146 6.89965C8.30351 6.16268 8.86368 5.56112 9.58854 5.36685C9.93999 5.27284 10.3099 5.27742 10.6585 5.38052C11.4335 5.60954 12.2486 5.16691 12.4779 4.39129C12.7073 3.61576 12.2643 2.80118 11.4887 2.57186C10.6226 2.31579 9.70344 2.30398 8.83058 2.53788C7.69491 2.84218 6.72238 3.54927 6.07015 4.48911C5.03552 4.00137 3.83972 3.87524 2.70395 4.17944C1.83148 4.41335 1.04131 4.88312 0.419149 5.53798C-0.137897 6.12422 -0.114272 7.05116 0.472061 7.60821C1.0583 8.16516 1.98514 8.14173 2.54229 7.5553Z" fill="url(#paint2_linear_2524_16767)"/>
<path d="M48.5356 47.0631H32.4276V39.6713C31.9455 39.7171 31.4572 39.7414 30.9632 39.7414C30.4692 39.7414 29.9809 39.7171 29.4988 39.6713V47.0631H17.1005V44.232H11.243V47.0631H1.46437C0.655647 47.0631 0 47.7188 0 48.5275C0 49.3362 0.655647 49.9919 1.46437 49.9919H48.5356C49.3443 49.9919 50 49.3362 50 48.5275C50 47.7188 49.3443 47.0631 48.5356 47.0631Z" fill="url(#paint3_linear_2524_16767)"/>
</g>
<defs>
<linearGradient id="paint0_linear_2524_16767" x1="21.4385" y1="19.7038" x2="21.4385" y2="33.936" gradientUnits="userSpaceOnUse">
<stop stop-color="#78D85B"/>
<stop offset="1" stop-color="#5AB83D"/>
</linearGradient>
<linearGradient id="paint1_linear_2524_16767" x1="42.8462" y1="10.9266" x2="42.8462" y2="29.8669" gradientUnits="userSpaceOnUse">
<stop stop-color="#78D85B"/>
<stop offset="1" stop-color="#5AB83D"/>
</linearGradient>
<linearGradient id="paint2_linear_2524_16767" x1="11.1314" y1="3.95553" x2="11.1314" y2="6.70468" gradientUnits="userSpaceOnUse">
<stop stop-color="#78D85B"/>
<stop offset="1" stop-color="#5AB83D"/>
</linearGradient>
<linearGradient id="paint3_linear_2524_16767" x1="44.382" y1="42.5123" x2="44.382" y2="47.4407" gradientUnits="userSpaceOnUse">
<stop stop-color="#78D85B"/>
<stop offset="1" stop-color="#5AB83D"/>
</linearGradient>
<clipPath id="clip0_2524_16767">
<rect width="50" height="50" fill="white"/>
</clipPath>
</defs>
</svg>
