<svg width="50" height="50" viewBox="0 0 50 50" fill="none" xmlns="http://www.w3.org/2000/svg">
<path d="M18.1289 25.5447L1.30811 42.3655C-0.436035 44.1097 -0.436035 46.9477 1.30811 48.6919C2.18018 49.564 3.32568 50 4.47119 50C5.6167 50 6.7623 49.564 7.63438 48.6919L24.4553 31.871L18.1289 25.5447Z" fill="url(#paint0_linear_3458_17661)"/>
<path d="M27.7165 8.89238L16.6758 19.9331L30.0679 33.3252L41.1086 22.2845L27.7165 8.89238Z" fill="url(#paint1_linear_3458_17661)"/>
<path d="M49.569 26.6088L45.2559 22.2956L30.0801 37.4714L34.3934 41.7847C34.6806 42.0719 35.0569 42.2153 35.4332 42.2153C35.8095 42.2153 36.1859 42.0718 36.4731 41.7846L49.569 28.6886C50.1433 28.1143 50.1433 27.1831 49.569 26.6088Z" fill="url(#paint2_linear_3458_17661)"/>
<path d="M23.3916 0.430762C23.1158 0.15498 22.7417 0 22.3516 0C21.9616 0 21.5876 0.15498 21.3118 0.430762L8.21589 13.5268C7.64158 14.1011 7.64158 15.0322 8.21589 15.6065L12.5291 19.9197L27.7049 4.74394L23.3916 0.430762Z" fill="url(#paint3_linear_3458_17661)"/>
<defs>
<linearGradient id="paint0_linear_3458_17661" x1="12.2276" y1="25.5447" x2="12.2276" y2="50" gradientUnits="userSpaceOnUse">
<stop stop-color="#B09FFF"/>
<stop offset="1" stop-color="#8D79F6"/>
</linearGradient>
<linearGradient id="paint1_linear_3458_17661" x1="22.1961" y1="14.4127" x2="35.5883" y2="27.8049" gradientUnits="userSpaceOnUse">
<stop stop-color="#B09FFF"/>
<stop offset="1" stop-color="#8D79F6"/>
</linearGradient>
<linearGradient id="paint2_linear_3458_17661" x1="40.0399" y1="22.2956" x2="40.0399" y2="42.2153" gradientUnits="userSpaceOnUse">
<stop stop-color="#B09FFF"/>
<stop offset="1" stop-color="#8D79F6"/>
</linearGradient>
<linearGradient id="paint3_linear_3458_17661" x1="17.745" y1="0" x2="17.745" y2="19.9197" gradientUnits="userSpaceOnUse">
<stop stop-color="#B09FFF"/>
<stop offset="1" stop-color="#8D79F6"/>
</linearGradient>
</defs>
</svg>
