<svg width="50" height="50" viewBox="0 0 50 50" fill="none" xmlns="http://www.w3.org/2000/svg">
<g clip-path="url(#clip0_2524_17022)">
<path d="M36.4587 50C36.1316 50 35.8045 49.8979 35.5274 49.6917C34.2357 48.7312 22.917 40.1042 22.917 32.7875C22.917 28.4937 26.4232 25 30.7295 25C32.9441 25 35.0087 25.9292 36.4587 27.4875C37.9087 25.9292 39.9732 25 42.1878 25C46.4941 25 50.0003 28.4937 50.0003 32.7875C50.0003 40.1042 38.6816 48.7312 37.3899 49.6917C37.1128 49.8979 36.7857 50 36.4587 50Z" fill="url(#paint0_linear_2524_17022)"/>
<path d="M42.9375 19.4792L37.5 14.2917V3.64583C37.5 2.79167 36.7917 2.08333 35.9375 2.08333H29.6875C28.8333 2.08333 28.125 2.79167 28.125 3.64583V5.35417L22.9583 0.4375C22.3542 -0.145833 21.3958 -0.145833 20.7917 0.4375L0.854167 19.4375C0.3125 19.9167 0 20.625 0 21.3542C0 22.7917 1.16667 23.9583 2.60417 23.9583H6.25V36.9792C6.25 39.5625 8.35417 41.6667 10.9375 41.6667H21.8542C20.0208 38.8958 18.75 35.8333 18.75 32.7917C18.75 26.1875 24.125 20.8333 30.7292 20.8333C32.75 20.8333 34.7083 21.3542 36.4583 22.2917C38.2083 21.3542 40.1667 20.8333 42.1875 20.8333C42.7083 20.8333 43.2083 20.875 43.7083 20.9375C43.625 20.3542 43.3333 19.8333 42.9375 19.4792Z" fill="url(#paint1_linear_2524_17022)"/>
</g>
<defs>
<linearGradient id="paint0_linear_2524_17022" x1="36.4587" y1="25" x2="36.4587" y2="50" gradientUnits="userSpaceOnUse">
<stop stop-color="#FE6C6C"/>
<stop offset="1" stop-color="#FE464B"/>
</linearGradient>
<linearGradient id="paint1_linear_2524_17022" x1="21.8542" y1="0" x2="21.8542" y2="41.6667" gradientUnits="userSpaceOnUse">
<stop stop-color="#FE6C6C"/>
<stop offset="1" stop-color="#FE464B"/>
</linearGradient>
<clipPath id="clip0_2524_17022">
<rect width="50" height="50" fill="white"/>
</clipPath>
</defs>
</svg>
