<svg width="38" height="38" viewBox="0 0 38 38" fill="none" xmlns="http://www.w3.org/2000/svg">
<g clip-path="url(#clip0_2431_15784)">
<path d="M37.524 18.555C38.2128 17.7974 38.1463 16.6362 37.3754 15.9621L20.3927 1.10216C19.6219 0.428058 18.386 0.442179 17.6314 1.13399L0.591008 16.7544C-0.163608 17.4462 -0.200645 18.6059 0.509006 19.3435L0.936234 19.7885C1.64502 20.5261 2.79069 20.6141 3.49353 19.9843L4.76704 18.8438V35.5405C4.76704 36.5649 5.59709 37.3942 6.62075 37.3942H13.2632C14.2868 37.3942 15.1169 36.5649 15.1169 35.5405V23.8596H23.5893V35.5405C23.5746 36.5642 24.307 37.3935 25.3307 37.3935H32.37C33.3936 37.3935 34.2237 36.5642 34.2237 35.5398V19.0789C34.2237 19.0789 34.5755 19.3871 35.0094 19.7685C35.4426 20.1492 36.3524 19.844 37.0412 19.0856L37.524 18.555Z" fill="url(#paint0_linear_2431_15784)"/>
</g>
<defs>
<linearGradient id="paint0_linear_2431_15784" x1="19" y1="0.605713" x2="19" y2="37.3942" gradientUnits="userSpaceOnUse">
<stop stop-color="#FE6C6C"/>
<stop offset="1" stop-color="#FE464B"/>
</linearGradient>
<clipPath id="clip0_2431_15784">
<rect width="38" height="38" fill="white"/>
</clipPath>
</defs>
</svg>
