<svg width="50" height="50" viewBox="0 0 50 50" fill="none" xmlns="http://www.w3.org/2000/svg">
<g clip-path="url(#clip0_2524_16993)">
<path d="M10.6487 13.5129C10.5275 13.4728 10.4068 13.4728 10.286 13.4728C9.72208 13.4728 9.23912 13.8354 9.07787 14.399C8.99725 14.7211 9.03776 15.0436 9.19861 15.3252C9.35986 15.6071 9.64185 15.8085 9.96395 15.9292C10.6487 16.1306 11.333 15.7279 11.5343 15.0837C11.615 14.7616 11.5748 14.4395 11.4136 14.1575C11.2527 13.8354 10.9708 13.634 10.6487 13.5129Z" fill="url(#paint0_linear_2524_16993)"/>
<path d="M17.4543 19.3929C18.5819 19.3929 19.6693 19.1109 20.636 18.5469C21.0387 18.3054 21.5221 18.4262 21.7636 18.8289C22.005 19.2316 21.8843 19.715 21.4816 19.9565C20.2734 20.6817 18.8639 21.0439 17.4543 21.0439C17.2128 21.0439 16.971 21.0439 16.7295 21.0038" fill="url(#paint1_linear_2524_16993)"/>
<path d="M13.6286 18.1041C14.6759 18.9096 15.9643 19.3524 17.2937 19.3929C18.2198 15.3657 15.763 11.2578 11.6956 10.1302C11.2929 10.0095 10.8902 9.96898 10.5276 9.88835L11.8569 10.4523C11.615 10.9357 11.4541 11.4591 11.333 12.0231C12.0177 12.2646 12.5817 12.7074 12.9439 13.352C13.3065 14.0367 13.4273 14.8017 13.2259 15.5265C12.8637 16.8153 11.6956 17.6208 10.4068 17.6208C10.1653 17.6208 9.88335 17.5806 9.60136 17.5C8.83642 17.2987 8.23233 16.8153 7.82961 16.1306C7.467 15.4463 7.34626 14.6809 7.54762 13.9561C7.82961 12.9088 8.67517 12.184 9.64187 11.9425C9.76261 11.2177 9.96397 10.5329 10.2861 9.84824C8.67517 9.68699 7.10439 10.0095 5.65473 10.8149C3.80235 11.8619 2.47304 13.5129 1.86896 15.567C0.942767 18.6681 1.94958 21.8899 4.36593 23.8229C4.48667 23.9436 4.52718 24.1049 4.48667 24.2256L2.87577 30.3872C2.87577 30.508 2.87577 30.5886 2.91628 30.6692L3.84247 32.7635C3.92309 32.9648 3.84247 33.1662 3.68122 33.2869L2.15094 34.2937C1.99009 34.4145 1.90947 34.6159 1.99009 34.8172L2.75503 36.4281C2.83565 36.6295 2.79554 36.8308 2.59418 36.9516L1.10401 37.9183C0.942767 38.039 0.862143 38.2404 0.942767 38.4417L1.7081 40.0526C1.78873 40.254 1.7081 40.4955 1.54686 40.5761L0.21794 41.3009C0.0165775 41.4221 -0.0640462 41.6635 0.0566927 41.8649L1.54686 44.5632C1.58736 44.6439 1.7081 44.7241 1.78873 44.7646H1.90947C1.99009 44.7646 2.07032 44.7646 2.11083 44.7241L5.21189 42.9118C5.29212 42.8717 5.37275 42.7911 5.41325 42.6704L10.2055 26.1987C10.246 26.0379 10.3667 25.9171 10.5276 25.9171C13.1052 25.5545 15.4814 23.6215 16.6491 21.0439C15.1589 20.9232 13.7092 20.3592 12.5011 19.433C12.1385 19.151 12.0582 18.6276 12.3398 18.2654C12.7425 17.9027 13.2664 17.8221 13.6286 18.1041Z" fill="url(#paint2_linear_2524_16993)"/>
<path d="M10.2461 9.80815C11.5345 7.14993 14.3135 5.29755 17.4546 5.29755C21.1598 5.29755 24.4217 7.91526 25.2272 11.4592C25.3078 11.902 25.0258 12.3452 24.583 12.4259C24.1401 12.5061 23.6969 12.2245 23.5761 11.7813C22.9319 8.96219 20.3543 6.90845 17.4145 6.90845C14.9577 6.90845 12.7832 8.31799 11.7359 10.4122" fill="url(#paint3_linear_2524_16993)"/>
<path d="M49.7534 26.8029L35.6179 12.8286C35.2954 12.5061 34.4098 11.7813 33.3624 11.7412L24.2205 10.8952C24.1804 10.8952 24.1804 10.8952 24.1403 10.8952H23.9389C22.9722 10.8952 22.1668 11.2578 21.4419 11.9826C20.6766 12.748 20.3545 13.5534 20.3545 14.681V14.7616L21.1599 23.8229C21.1599 24.8699 21.9253 25.7158 22.2474 26.0379L36.3829 40.0126C36.5441 40.1734 36.7455 40.254 36.987 40.254C37.2288 40.254 37.4302 40.1734 37.5911 40.0126L49.7936 27.9709C50.0755 27.6488 50.0755 27.1254 49.7534 26.8029ZM30.7046 25.8366C30.5032 25.8366 30.2614 25.7559 30.1005 25.5947C29.7784 25.2726 29.7784 24.7491 30.1005 24.427L34.1278 20.4399C34.4499 20.1178 34.9733 20.1178 35.2954 20.4399C35.6179 20.762 35.6179 21.2858 35.2954 21.6079L31.2682 25.5947C31.1073 25.7559 30.906 25.8366 30.7046 25.8366ZM40.0074 26.2393L35.9802 30.226C35.8193 30.3873 35.6179 30.4679 35.3761 30.4679C35.1346 30.4679 34.9332 30.3873 34.772 30.226C34.4499 29.9039 34.4499 29.3805 34.772 29.0584L38.7992 25.0712C39.1213 24.7491 39.6452 24.7491 39.9673 25.0712C40.3295 25.3933 40.3295 25.9172 40.0074 26.2393Z" fill="url(#paint4_linear_2524_16993)"/>
</g>
<defs>
<linearGradient id="paint0_linear_2524_16993" x1="10.3061" y1="13.4728" x2="10.3061" y2="15.9814" gradientUnits="userSpaceOnUse">
<stop stop-color="#FE6C6C"/>
<stop offset="1" stop-color="#FE464B"/>
</linearGradient>
<linearGradient id="paint1_linear_2524_16993" x1="19.3085" y1="18.423" x2="19.3085" y2="21.0439" gradientUnits="userSpaceOnUse">
<stop stop-color="#FE6C6C"/>
<stop offset="1" stop-color="#FE464B"/>
</linearGradient>
<linearGradient id="paint2_linear_2524_16993" x1="8.74432" y1="9.80792" x2="8.74432" y2="44.7646" gradientUnits="userSpaceOnUse">
<stop stop-color="#FE6C6C"/>
<stop offset="1" stop-color="#FE464B"/>
</linearGradient>
<linearGradient id="paint3_linear_2524_16993" x1="17.7435" y1="5.29755" x2="17.7435" y2="12.4395" gradientUnits="userSpaceOnUse">
<stop stop-color="#FE6C6C"/>
<stop offset="1" stop-color="#FE464B"/>
</linearGradient>
<linearGradient id="paint4_linear_2524_16993" x1="35.1774" y1="10.8952" x2="35.1774" y2="40.254" gradientUnits="userSpaceOnUse">
<stop stop-color="#FE6C6C"/>
<stop offset="1" stop-color="#FE464B"/>
</linearGradient>
<clipPath id="clip0_2524_16993">
<rect width="50" height="50" fill="white"/>
</clipPath>
</defs>
</svg>
