<svg width="38" height="38" viewBox="0 0 38 38" fill="none" xmlns="http://www.w3.org/2000/svg">
<path d="M28.5109 0C28.5109 0 25.3844 3.0333 22.0031 4.25622C-3.03658 13.3132 7.52372 30.9626 7.86824 31.0208C7.86824 31.0208 9.27234 28.5757 11.1691 27.181C23.2049 18.3329 25.6512 8.14822 25.6512 8.14822C25.6512 8.14822 22.9504 20.4036 12.2427 28.0292C9.87771 29.7126 8.27636 33.8574 7.5985 38C7.5985 38 9.27489 37.3227 9.99576 37.1392C10.2769 35.3048 10.8646 33.5483 11.8582 31.9791C26.8235 33.7609 31.725 21.702 32.3653 17.4972C33.8765 7.56635 28.5109 0 28.5109 0Z" fill="url(#paint0_linear_2431_15555)"/>
<defs>
<linearGradient id="paint0_linear_2431_15555" x1="29.57" y1="10.4607" x2="29.57" y2="28.6067" gradientUnits="userSpaceOnUse">
<stop stop-color="#78D85B"/>
<stop offset="1" stop-color="#5AB83D"/>
</linearGradient>
</defs>
</svg>
