<svg width="50" height="50" viewBox="0 0 50 50" fill="none" xmlns="http://www.w3.org/2000/svg">
<g clip-path="url(#clip0_2524_16640)">
<path d="M17.5196 42.191C18.4213 42.9827 19.3521 43.7995 20.3096 44.6464C20.3161 44.6522 20.3228 44.6581 20.3294 44.6638L23.5147 47.4152C23.9414 47.7839 24.4711 47.9682 25.0008 47.9682C25.5304 47.9682 26.0602 47.7838 26.487 47.4152L29.6716 44.6638C29.6783 44.6581 29.6848 44.6523 29.6913 44.6465C35.9968 39.0702 40.7243 34.8011 44.1446 30.6374C48.1394 25.7746 50.0002 21.3777 50.0002 16.8003C50.0002 8.51882 43.5131 2.0318 35.2319 2.0318C31.5099 2.0318 27.8323 3.43332 25.0008 5.86279C22.1685 3.43317 18.4909 2.0318 14.7687 2.0318C6.48717 2.03165 0 8.51882 0 16.8002C0 26.8107 6.9697 32.9293 17.5196 42.191ZM15.9071 20.4537H21.9689V14.3916H28.031V20.4537H34.0929V26.5156H28.031V32.5774H21.9689V26.5156H15.9071V20.4537Z" fill="url(#paint0_linear_2524_16640)"/>
</g>
<defs>
<linearGradient id="paint0_linear_2524_16640" x1="25.0001" y1="2.0318" x2="25.0001" y2="47.9682" gradientUnits="userSpaceOnUse">
<stop stop-color="#FFD572"/>
<stop offset="1" stop-color="#FEBD38"/>
</linearGradient>
<clipPath id="clip0_2524_16640">
<rect width="50" height="50" fill="white"/>
</clipPath>
</defs>
</svg>
