<svg width="38" height="38" viewBox="0 0 38 38" fill="none" xmlns="http://www.w3.org/2000/svg">
<g clip-path="url(#clip0_2431_15802)">
<path d="M21.6822 20.5187C21.2504 20.5187 20.9003 20.1686 20.9003 19.7368V16.1636H17.1003V19.7368C17.1003 20.1686 16.7502 20.5187 16.3184 20.5187H12.7451V24.3109H16.3184C16.7502 24.3109 17.1003 24.661 17.1003 25.0928V28.666H20.8924V25.0928C20.8924 24.661 21.2425 24.3109 21.6743 24.3109H25.2554V20.5187H21.6822Z" fill="url(#paint0_linear_2431_15802)"/>
<path d="M32.6069 8.74341H5.39701C2.91059 8.74341 0.00195312 10.1586 0.00195312 14.1385V31.129C0.00195312 35.1088 2.91059 36.5241 5.39701 36.5241H32.6069C35.0933 36.5241 38.0019 35.1088 38.0019 31.129V14.1385C38.0019 10.1586 35.1011 8.74341 32.6069 8.74341ZM26.8209 24.7097C26.8209 25.3531 26.2993 25.8747 25.6559 25.8747H22.4657V29.0648C22.4657 29.7082 21.9441 30.2298 21.3007 30.2298H16.7032C16.0598 30.2298 15.5382 29.7082 15.5382 29.0648V25.8747H12.3559C11.7125 25.879 11.1873 25.3609 11.183 24.7175C11.183 24.7148 11.183 24.7122 11.183 24.7097V20.12C11.183 19.4766 11.7046 18.9549 12.348 18.9549H15.5382V15.7648C15.5382 15.1214 16.0598 14.5998 16.7032 14.5998H21.2929C21.9363 14.5998 22.4579 15.1214 22.4579 15.7648V18.9549H25.648C26.2914 18.9506 26.8166 19.4687 26.8209 20.1121C26.8209 20.1148 26.8209 20.1173 26.8209 20.12V24.7097Z" fill="url(#paint1_linear_2431_15802)"/>
<path d="M24.024 1.4796C23.9383 1.47471 23.8522 1.47471 23.7664 1.4796H14.2273C12.9727 1.40854 11.898 2.36792 11.8269 3.62247C11.822 3.70829 11.822 3.7942 11.8269 3.88001V7.39853H13.3907L13.3985 3.88001C13.3985 3.65326 13.3985 3.04338 14.2351 3.04338H23.7664C24.6031 3.04338 24.6031 3.64544 24.6031 3.88001V7.39853H26.1668V3.88001C26.238 2.62536 25.2785 1.55075 24.024 1.4796Z" fill="url(#paint2_linear_2431_15802)"/>
</g>
<defs>
<linearGradient id="paint0_linear_2431_15802" x1="19.0003" y1="16.1636" x2="19.0003" y2="28.666" gradientUnits="userSpaceOnUse">
<stop stop-color="#B09FFF"/>
<stop offset="1" stop-color="#8D79F6"/>
</linearGradient>
<linearGradient id="paint1_linear_2431_15802" x1="19.002" y1="8.74341" x2="19.002" y2="36.5241" gradientUnits="userSpaceOnUse">
<stop stop-color="#B09FFF"/>
<stop offset="1" stop-color="#8D79F6"/>
</linearGradient>
<linearGradient id="paint2_linear_2431_15802" x1="18.9969" y1="1.47589" x2="18.9969" y2="7.39853" gradientUnits="userSpaceOnUse">
<stop stop-color="#B09FFF"/>
<stop offset="1" stop-color="#8D79F6"/>
</linearGradient>
<clipPath id="clip0_2431_15802">
<rect width="38" height="38" fill="white"/>
</clipPath>
</defs>
</svg>
