<svg width="50" height="50" viewBox="0 0 50 50" fill="none" xmlns="http://www.w3.org/2000/svg">
<path d="M41.667 40.8333C46.042 40.8333 48.3337 39.595 48.3337 39.1667V37.9367C46.2262 38.823 43.9519 39.2426 41.667 39.1667V40.8333Z" fill="url(#paint0_linear_2524_17007)"/>
<path d="M41.667 37.5C46.042 37.5 48.3337 36.2617 48.3337 35.8333V34.6033C46.2262 35.4896 43.9519 35.9093 41.667 35.8333V37.5Z" fill="url(#paint1_linear_2524_17007)"/>
<path d="M33.3337 35C37.0156 35 40.0003 34.2538 40.0003 33.3333C40.0003 32.4129 37.0156 31.6667 33.3337 31.6667C29.6518 31.6667 26.667 32.4129 26.667 33.3333C26.667 34.2538 29.6518 35 33.3337 35Z" fill="url(#paint2_linear_2524_17007)"/>
<path d="M41.4502 32.5C41.5907 32.7554 41.6652 33.0418 41.6669 33.3333V34.1667C46.0419 34.1667 48.3335 32.9283 48.3335 32.5V31.27C46.2261 32.1563 43.9518 32.5759 41.6669 32.5C41.5952 32.5 41.5219 32.5 41.4502 32.5Z" fill="url(#paint3_linear_2524_17007)"/>
<path d="M40.0003 36.6667V35.4367C37.8929 36.323 35.6186 36.7426 33.3337 36.6667C31.0487 36.7426 28.7744 36.323 26.667 35.4367V36.6667C26.667 37.095 28.9587 38.3333 33.3337 38.3333C37.7087 38.3333 40.0003 37.095 40.0003 36.6667Z" fill="url(#paint4_linear_2524_17007)"/>
<path d="M26.667 40C26.667 40.4283 28.9587 41.6667 33.3337 41.6667C37.7087 41.6667 40.0003 40.4283 40.0003 40V38.77C37.8929 39.6563 35.6186 40.0759 33.3337 40C31.0487 40.0759 28.7744 39.6563 26.667 38.77V40Z" fill="url(#paint5_linear_2524_17007)"/>
<path d="M26.667 43.3333C26.667 43.7617 28.9587 45 33.3337 45C37.7087 45 40.0003 43.7617 40.0003 43.3333V42.1033C37.8929 42.9896 35.6186 43.4092 33.3337 43.3333C31.0487 43.4092 28.7744 42.9896 26.667 42.1033V43.3333Z" fill="url(#paint6_linear_2524_17007)"/>
<path d="M34.167 1.66667H30.8336C30.6126 1.66667 30.4007 1.75447 30.2444 1.91075C30.0881 2.06703 30.0003 2.27899 30.0003 2.50001V7.18334C30.0002 7.34224 29.9548 7.49782 29.8692 7.63172C29.7837 7.76563 29.6616 7.87228 29.5174 7.93911C29.3733 8.00594 29.213 8.03016 29.0555 8.00891C28.8981 7.98766 28.7499 7.92182 28.6286 7.81917L22.212 2.38251C22.0615 2.25516 21.8708 2.18529 21.6736 2.18529C21.4765 2.18529 21.2858 2.25516 21.1353 2.38251L2.27197 18.3333H3.33364C3.55465 18.3333 3.76661 18.4211 3.92289 18.5774C4.07917 18.7337 4.16697 18.9457 4.16697 19.1667V41.6667C4.16697 41.8877 4.25477 42.0997 4.41105 42.2559C4.56733 42.4122 4.77929 42.5 5.00031 42.5H25.0003V33.3333C25.0003 31.0433 29.3203 30 33.3336 30V25.8333C33.3336 24.0142 36.0603 22.9842 39.1936 22.6367L39.2003 19.1667C39.2003 18.9457 39.2881 18.7337 39.4444 18.5774C39.6007 18.4211 39.8126 18.3333 40.0336 18.3333H41.0586L35.2953 13.4525C35.2029 13.3743 35.1286 13.2769 35.0777 13.1671C35.0268 13.0573 35.0003 12.9377 35.0003 12.8167V2.50001C35.0003 2.27899 34.9125 2.06703 34.7562 1.91075C34.5999 1.75447 34.388 1.66667 34.167 1.66667Z" fill="url(#paint7_linear_2524_17007)"/>
<path d="M26.667 46.6667C26.667 47.095 28.9587 48.3333 33.3337 48.3333C37.7087 48.3333 40.0003 47.095 40.0003 46.6667V45.4367C37.8929 46.323 35.6186 46.7426 33.3337 46.6667C31.0487 46.7426 28.7744 46.323 26.667 45.4367V46.6667Z" fill="url(#paint8_linear_2524_17007)"/>
<path d="M41.6667 27.5C45.3486 27.5 48.3334 26.7538 48.3334 25.8333C48.3334 24.9129 45.3486 24.1667 41.6667 24.1667C37.9848 24.1667 35 24.9129 35 25.8333C35 26.7538 37.9848 27.5 41.6667 27.5Z" fill="url(#paint9_linear_2524_17007)"/>
<path d="M35 27.9367V29.1667C35 29.595 37.2917 30.8333 41.6667 30.8333C46.0417 30.8333 48.3334 29.595 48.3334 29.1667V27.9367C46.2259 28.823 43.9516 29.2426 41.6667 29.1667C39.3817 29.2426 37.1074 28.823 35 27.9367Z" fill="url(#paint10_linear_2524_17007)"/>
<defs>
<linearGradient id="paint0_linear_2524_17007" x1="45.0003" y1="37.9367" x2="45.0003" y2="40.8333" gradientUnits="userSpaceOnUse">
<stop stop-color="#FE6C6C"/>
<stop offset="1" stop-color="#FE464B"/>
</linearGradient>
<linearGradient id="paint1_linear_2524_17007" x1="45.0003" y1="34.6033" x2="45.0003" y2="37.5" gradientUnits="userSpaceOnUse">
<stop stop-color="#FE6C6C"/>
<stop offset="1" stop-color="#FE464B"/>
</linearGradient>
<linearGradient id="paint2_linear_2524_17007" x1="33.3337" y1="31.6667" x2="33.3337" y2="35" gradientUnits="userSpaceOnUse">
<stop stop-color="#FE6C6C"/>
<stop offset="1" stop-color="#FE464B"/>
</linearGradient>
<linearGradient id="paint3_linear_2524_17007" x1="44.8919" y1="31.27" x2="44.8919" y2="34.1667" gradientUnits="userSpaceOnUse">
<stop stop-color="#FE6C6C"/>
<stop offset="1" stop-color="#FE464B"/>
</linearGradient>
<linearGradient id="paint4_linear_2524_17007" x1="33.3337" y1="35.4367" x2="33.3337" y2="38.3333" gradientUnits="userSpaceOnUse">
<stop stop-color="#FE6C6C"/>
<stop offset="1" stop-color="#FE464B"/>
</linearGradient>
<linearGradient id="paint5_linear_2524_17007" x1="33.3337" y1="38.77" x2="33.3337" y2="41.6667" gradientUnits="userSpaceOnUse">
<stop stop-color="#FE6C6C"/>
<stop offset="1" stop-color="#FE464B"/>
</linearGradient>
<linearGradient id="paint6_linear_2524_17007" x1="33.3337" y1="42.1033" x2="33.3337" y2="45" gradientUnits="userSpaceOnUse">
<stop stop-color="#FE6C6C"/>
<stop offset="1" stop-color="#FE464B"/>
</linearGradient>
<linearGradient id="paint7_linear_2524_17007" x1="21.6653" y1="1.66667" x2="21.6653" y2="42.5" gradientUnits="userSpaceOnUse">
<stop stop-color="#FE6C6C"/>
<stop offset="1" stop-color="#FE464B"/>
</linearGradient>
<linearGradient id="paint8_linear_2524_17007" x1="33.3337" y1="45.4367" x2="33.3337" y2="48.3333" gradientUnits="userSpaceOnUse">
<stop stop-color="#FE6C6C"/>
<stop offset="1" stop-color="#FE464B"/>
</linearGradient>
<linearGradient id="paint9_linear_2524_17007" x1="41.6667" y1="24.1667" x2="41.6667" y2="27.5" gradientUnits="userSpaceOnUse">
<stop stop-color="#FE6C6C"/>
<stop offset="1" stop-color="#FE464B"/>
</linearGradient>
<linearGradient id="paint10_linear_2524_17007" x1="41.6667" y1="27.9367" x2="41.6667" y2="30.8333" gradientUnits="userSpaceOnUse">
<stop stop-color="#FE6C6C"/>
<stop offset="1" stop-color="#FE464B"/>
</linearGradient>
</defs>
</svg>
