<svg width="50" height="50" viewBox="0 0 50 50" fill="none" xmlns="http://www.w3.org/2000/svg">
<g clip-path="url(#clip0_3458_17747)">
<path d="M8.21652 38.045C8.02137 37.7061 7.57971 37.5931 7.24076 37.7882L5.45358 38.8256V36.7611C5.45358 36.3708 5.13518 36.0524 4.74487 36.0524C4.35457 36.0524 4.03616 36.3708 4.03616 36.7611V38.8256L2.24898 37.7882C1.91003 37.5931 1.46837 37.7061 1.27322 38.045C1.07807 38.384 1.19105 38.8256 1.53 39.0208L3.32745 40.0684L1.53 41.1161C1.19105 41.3112 1.07807 41.7529 1.27322 42.0918C1.46837 42.4308 1.91003 42.5438 2.24898 42.3486L4.03616 41.3112V43.3757C4.03616 43.766 4.35457 44.0844 4.74487 44.0844C5.13518 44.0844 5.45358 43.766 5.45358 43.3757V41.3112L7.24076 42.3486C7.57971 42.5438 8.02137 42.4308 8.21652 42.0918C8.41168 41.7529 8.29869 41.3112 7.95974 41.1161L6.16229 40.0684L7.95974 39.0208C8.29869 38.8153 8.42195 38.384 8.21652 38.045Z" fill="url(#paint0_linear_3458_17747)"/>
<path d="M14.7801 42.0816C14.9752 42.4205 15.4169 42.5335 15.7558 42.3383L17.543 41.3009V43.3654C17.543 43.7557 17.8614 44.0742 18.2517 44.0742C18.642 44.0742 18.9604 43.7557 18.9604 43.3654V41.3009L20.7476 42.3383C21.0866 42.5335 21.5282 42.4205 21.7234 42.0816C21.9185 41.7426 21.8055 41.3009 21.4666 41.1058L19.6691 40.0581L21.4666 39.0105C21.8055 38.8153 21.9185 38.3737 21.7234 38.0347C21.5282 37.6958 21.0866 37.5828 20.7476 37.7779L18.9604 38.8153V36.7508C18.9604 36.3605 18.642 36.0421 18.2517 36.0421C17.8614 36.0421 17.543 36.3605 17.543 36.7508V38.8153L15.7558 37.7882C15.4169 37.5931 14.9752 37.706 14.7801 38.045C14.5849 38.3839 14.6979 38.8256 15.0368 39.0207L16.8343 40.0684L15.0368 41.1058C14.6979 41.3009 14.5849 41.7426 14.7801 42.0816Z" fill="url(#paint1_linear_3458_17747)"/>
<path d="M13.5068 47.4637V48.7167C13.5068 49.0146 13.7533 49.2611 14.0512 49.2611H22.4633C22.7612 49.2611 23.0077 49.0146 23.0077 48.7167V47.4637C23.0077 47.1658 22.7612 46.9193 22.4633 46.9193H14.0512C13.7431 46.9193 13.5068 47.1658 13.5068 47.4637Z" fill="url(#paint2_linear_3458_17747)"/>
<path d="M34.0081 12.439H33.9465V9.64525C33.9465 4.78699 29.9715 0.657989 25.1235 0.740158C20.4091 0.822328 16.5882 4.68428 16.5882 9.41929V9.68634C16.5882 10.0869 16.9169 10.4156 17.3174 10.4156H19.649C20.0496 10.4156 20.3783 10.0869 20.3783 9.68634V9.60417C20.3783 6.99529 22.34 4.70483 24.9489 4.54049C27.7838 4.36588 30.1461 6.61526 30.1461 9.40902V12.4287H22.9563V12.439H16.3109C15.0783 12.4801 14.082 13.4764 14.082 14.7192V27.3527C14.082 28.6161 15.1091 29.6432 16.3725 29.6432H33.9978C35.2612 29.6432 36.2883 28.6161 36.2883 27.3527V14.7295C36.2986 13.4661 35.2714 12.439 34.0081 12.439ZM26.5512 21.6112C26.3766 21.7344 26.3253 21.8679 26.3253 22.0734C26.3355 22.9978 26.3355 23.9222 26.3253 24.8568C26.3458 25.2471 26.1506 25.6169 25.8014 25.7915C24.99 26.2024 24.1786 25.6272 24.1786 24.8568C24.1786 24.8568 24.1786 24.8568 24.1786 24.8466C24.1786 23.9222 24.1786 22.9875 24.1786 22.0631C24.1786 21.8782 24.1375 21.7447 23.9732 21.6214C23.1309 21.0052 22.8536 19.9472 23.2747 19.0125C23.6856 18.1087 24.6819 17.5746 25.6165 17.7697C26.6642 17.9752 27.3935 18.8277 27.4037 19.8651C27.4345 20.5943 27.1367 21.19 26.5512 21.6112Z" fill="url(#paint3_linear_3458_17747)"/>
<path d="M27.0029 47.4637V48.7167C27.0029 49.0146 27.2494 49.2611 27.5473 49.2611H35.9594C36.2572 49.2611 36.5037 49.0146 36.5037 48.7167V47.4637C36.5037 47.1658 36.2572 46.9193 35.9594 46.9193H27.5473C27.2494 46.9193 27.0029 47.1658 27.0029 47.4637Z" fill="url(#paint4_linear_3458_17747)"/>
<path d="M28.2771 42.0816C28.4723 42.4205 28.9139 42.5335 29.2529 42.3383L31.0401 41.3009V43.3654C31.0401 43.7557 31.3585 44.0742 31.7488 44.0742C32.1391 44.0742 32.4575 43.7557 32.4575 43.3654V41.3009L34.2447 42.3383C34.5836 42.5335 35.0253 42.4205 35.2204 42.0816C35.4156 41.7426 35.3026 41.3009 34.9636 41.1058L33.1662 40.0581L34.9636 39.0105C35.3026 38.8153 35.4156 38.3737 35.2204 38.0347C35.0253 37.6958 34.5836 37.5828 34.2447 37.7779L32.4575 38.8153V36.7508C32.4575 36.3605 32.1391 36.0421 31.7488 36.0421C31.3585 36.0421 31.0401 36.3605 31.0401 36.7508V38.8153L29.2529 37.7779C28.9139 37.5828 28.4723 37.6958 28.2771 38.0347C28.082 38.3737 28.195 38.8153 28.5339 39.0105L30.3314 40.0581L28.5339 41.1058C28.195 41.3009 28.082 41.7426 28.2771 42.0816Z" fill="url(#paint5_linear_3458_17747)"/>
<path d="M49.4555 46.9193H41.0434C40.7455 46.9193 40.499 47.1658 40.499 47.4637V48.7167C40.499 49.0146 40.7455 49.2611 41.0434 49.2611H49.4555C49.7533 49.2611 49.9998 49.0146 49.9998 48.7167V47.4637C49.9998 47.1658 49.7533 46.9193 49.4555 46.9193Z" fill="url(#paint6_linear_3458_17747)"/>
<path d="M0.544371 49.2611H8.95645C9.25431 49.2611 9.50082 49.0146 9.50082 48.7167V47.4637C9.50082 47.1658 9.25431 46.9193 8.95645 46.9193H0.544371C0.246508 46.9193 0 47.1658 0 47.4637V48.7167C0 49.0146 0.246508 49.2611 0.544371 49.2611Z" fill="url(#paint7_linear_3458_17747)"/>
<path d="M41.7827 42.0816C41.9778 42.4205 42.4195 42.5335 42.7584 42.3383L44.5456 41.3009V43.3654C44.5456 43.7557 44.864 44.0742 45.2543 44.0742C45.6446 44.0742 45.963 43.7557 45.963 43.3654V41.3009L47.7502 42.3383C48.0892 42.5335 48.5308 42.4205 48.726 42.0816C48.9211 41.7426 48.8081 41.3009 48.4692 41.1058L46.6717 40.0581L48.4692 39.0105C48.8081 38.8153 48.9211 38.3737 48.726 38.0347C48.5308 37.6958 48.0892 37.5828 47.7502 37.7779L45.963 38.8153V36.7508C45.963 36.3605 45.6446 36.0421 45.2543 36.0421C44.864 36.0421 44.5456 36.3605 44.5456 36.7508V38.8153L42.7584 37.7779C42.4195 37.5828 41.9778 37.6958 41.7827 38.0347C41.5875 38.3737 41.7005 38.8153 42.0394 39.0105L43.8369 40.0581L42.0394 41.1058C41.7005 41.3009 41.5772 41.7426 41.7827 42.0816Z" fill="url(#paint8_linear_3458_17747)"/>
</g>
<defs>
<linearGradient id="paint0_linear_3458_17747" x1="1.08668" y1="36.0524" x2="9.30579" y2="37.3083" gradientUnits="userSpaceOnUse">
<stop stop-color="#FDB3FF"/>
<stop offset="1" stop-color="#F77CF2"/>
</linearGradient>
<linearGradient id="paint1_linear_3458_17747" x1="14.5936" y1="36.0421" x2="22.8077" y2="37.2964" gradientUnits="userSpaceOnUse">
<stop stop-color="#FDB3FF"/>
<stop offset="1" stop-color="#F77CF2"/>
</linearGradient>
<linearGradient id="paint2_linear_3458_17747" x1="13.3857" y1="46.9193" x2="20.9163" y2="52.1716" gradientUnits="userSpaceOnUse">
<stop stop-color="#FDB3FF"/>
<stop offset="1" stop-color="#F77CF2"/>
</linearGradient>
<linearGradient id="paint3_linear_3458_17747" x1="13.7988" y1="0.738952" x2="39.5138" y2="4.13532" gradientUnits="userSpaceOnUse">
<stop stop-color="#FDB3FF"/>
<stop offset="1" stop-color="#F77CF2"/>
</linearGradient>
<linearGradient id="paint4_linear_3458_17747" x1="26.8817" y1="46.9193" x2="34.4124" y2="52.1716" gradientUnits="userSpaceOnUse">
<stop stop-color="#FDB3FF"/>
<stop offset="1" stop-color="#F77CF2"/>
</linearGradient>
<linearGradient id="paint5_linear_3458_17747" x1="28.0906" y1="36.0421" x2="36.3047" y2="37.2964" gradientUnits="userSpaceOnUse">
<stop stop-color="#FDB3FF"/>
<stop offset="1" stop-color="#F77CF2"/>
</linearGradient>
<linearGradient id="paint6_linear_3458_17747" x1="40.3778" y1="46.9193" x2="47.9085" y2="52.1716" gradientUnits="userSpaceOnUse">
<stop stop-color="#FDB3FF"/>
<stop offset="1" stop-color="#F77CF2"/>
</linearGradient>
<linearGradient id="paint7_linear_3458_17747" x1="-0.121184" y1="46.9193" x2="7.40943" y2="52.1716" gradientUnits="userSpaceOnUse">
<stop stop-color="#FDB3FF"/>
<stop offset="1" stop-color="#F77CF2"/>
</linearGradient>
<linearGradient id="paint8_linear_3458_17747" x1="41.5916" y1="36.0421" x2="49.8107" y2="37.298" gradientUnits="userSpaceOnUse">
<stop stop-color="#FDB3FF"/>
<stop offset="1" stop-color="#F77CF2"/>
</linearGradient>
<clipPath id="clip0_3458_17747">
<rect width="50" height="50" fill="white"/>
</clipPath>
</defs>
</svg>
