<svg width="50" height="50" viewBox="0 0 50 50" fill="none" xmlns="http://www.w3.org/2000/svg">
<g clip-path="url(#clip0_2524_16540)">
<path d="M49.9991 20.2986C49.9988 19.8121 49.9821 19.3281 49.9503 18.8471C47.7358 18.8471 10.0868 18.8471 8.89491 18.8471L7.00717 12.7119C6.27867 10.3445 3.99983 8.69116 1.46553 8.69116C0.656573 8.69116 0.000732422 9.347 0.000732422 10.156C0.000732422 10.9649 0.656573 11.6208 1.46553 11.6208C2.70593 11.6208 3.85892 12.442 4.20706 13.5734C6.63257 21.4562 6.39703 20.6943 6.42769 20.7844C6.47486 20.9222 6.72075 21.6088 9.18279 28.5025C10.0824 31.0215 12.9125 32.7139 16.2251 32.7139H21.2738L19.9063 36.1324C15.6455 35.4138 11.8168 38.7155 11.8168 42.9675C11.8168 46.8135 14.9312 49.9985 18.7502 49.9985C22.1068 49.9985 24.8687 47.5534 25.5292 44.4323H30.7207C30.9955 45.7307 31.6328 46.9312 32.5845 47.9063C35.3085 50.6975 39.6902 50.6983 42.4149 47.9063C43.7164 46.5728 44.4331 44.8188 44.4331 42.9675C44.4331 38.7148 40.6036 35.414 36.3436 36.1324L34.9759 32.7139H40.0248C43.3337 32.7139 46.1612 31.0251 47.064 28.5107C50.0893 20.3306 49.9991 20.6778 49.9991 20.2986ZM30.7234 41.5027H25.5265C25.1435 39.7296 24.0816 38.2062 22.626 37.2213L24.4292 32.7139H31.8206L33.6238 37.2213C32.1683 38.2062 31.1063 39.7296 30.7234 41.5027Z" fill="url(#paint0_linear_2524_16540)"/>
<path d="M49.5558 15.9175C47.7489 7.0951 40.3964 0 31.2498 0H28.9062C28.2748 0 27.7145 0.40448 27.5159 1.00378L22.5703 15.9175H49.5558Z" fill="url(#paint1_linear_2524_16540)"/>
</g>
<defs>
<linearGradient id="paint0_linear_2524_16540" x1="25" y1="8.69116" x2="25" y2="50" gradientUnits="userSpaceOnUse">
<stop stop-color="#FFD572"/>
<stop offset="1" stop-color="#FEBD38"/>
</linearGradient>
<linearGradient id="paint1_linear_2524_16540" x1="36.0631" y1="0" x2="36.0631" y2="15.9175" gradientUnits="userSpaceOnUse">
<stop stop-color="#FFD572"/>
<stop offset="1" stop-color="#FEBD38"/>
</linearGradient>
<clipPath id="clip0_2524_16540">
<rect width="50" height="50" fill="white"/>
</clipPath>
</defs>
</svg>
