<svg width="50" height="50" viewBox="0 0 50 50" fill="none" xmlns="http://www.w3.org/2000/svg">
<g clip-path="url(#clip0_2524_16598)">
<path d="M16.707 42.7977C9.98427 42.4173 4.6314 36.8279 4.6314 30.011C4.6314 22.9488 10.3766 17.2031 17.4382 17.2031C20.5965 17.2031 23.6292 18.362 25.9777 20.4662C28.69 22.8922 30.2461 26.3715 30.2461 30.0109C30.2461 33.0632 29.1512 36.0022 27.1977 38.3029C28.5832 39.2006 30.1738 39.7369 31.8315 39.8591C33.8265 36.9549 34.8775 33.5662 34.8775 30.0109C34.8775 26.202 33.6716 22.5841 31.3905 19.5485C29.5778 17.1355 27.1654 15.2253 24.4138 14.024C22.8887 13.357 21.2941 12.9182 19.6516 12.7112C22.9715 10.2673 24.2411 8.2189 24.2411 6.43233C24.2411 4.28845 22.5032 2.55052 20.3593 2.55052C19.1943 2.55052 18.1501 3.06432 17.4386 3.87682C16.7271 3.06432 15.6828 2.55052 14.518 2.55052C12.3741 2.55052 10.6362 4.28845 10.6362 6.43233C10.6362 8.21919 11.9061 10.2678 15.2273 12.7123C6.65192 13.8022 0 21.1444 0 30.011C0 39.6265 7.82271 47.4493 17.4382 47.4493C18.7677 47.4493 20.0728 47.3018 21.3433 47.011C19.5977 45.8567 18.0299 44.4358 16.707 42.7977Z" fill="url(#paint0_linear_2524_16598)"/>
<path d="M32.5618 12.5729C31.2322 12.5729 29.9271 12.7204 28.6566 13.0111C30.4023 14.1655 31.97 15.5863 33.293 17.2245C40.0157 17.6049 45.3686 23.1942 45.3686 30.011C45.3686 37.0733 39.6235 42.8189 32.5619 42.8189C29.4037 42.8189 26.3709 41.6601 24.0223 39.5558C21.31 37.1298 19.754 33.6505 19.754 30.011C19.754 26.9588 20.8489 24.0196 22.8024 21.7191C21.4169 20.8214 19.8262 20.2851 18.1685 20.1628C16.1734 23.067 15.1226 26.4557 15.1226 30.0109C15.1226 33.82 16.3283 37.4377 18.6096 40.4734C20.4222 42.8864 22.8346 44.7967 25.5862 45.9979C27.7883 46.9611 30.1349 47.4492 32.5619 47.4492C42.1773 47.4492 50 39.6265 50 30.0109C49.9999 20.3956 42.1772 12.5729 32.5618 12.5729Z" fill="url(#paint1_linear_2524_16598)"/>
</g>
<defs>
<linearGradient id="paint0_linear_2524_16598" x1="17.4387" y1="2.55052" x2="17.4387" y2="47.4493" gradientUnits="userSpaceOnUse">
<stop stop-color="#FFD572"/>
<stop offset="1" stop-color="#FEBD38"/>
</linearGradient>
<linearGradient id="paint1_linear_2524_16598" x1="32.5613" y1="12.5729" x2="32.5613" y2="47.4492" gradientUnits="userSpaceOnUse">
<stop stop-color="#FFD572"/>
<stop offset="1" stop-color="#FEBD38"/>
</linearGradient>
<clipPath id="clip0_2524_16598">
<rect width="50" height="50" fill="white"/>
</clipPath>
</defs>
</svg>
