<svg width="50" height="50" viewBox="0 0 50 50" fill="none" xmlns="http://www.w3.org/2000/svg">
<g clip-path="url(#clip0_2524_16602)">
<path d="M47.502 38.709C47.4473 38.7618 43.8739 42.1333 37.7949 44.5787L36.5792 32.4219H39.6481C40.123 32.4219 40.5694 32.1917 40.844 31.8025C41.1186 31.4133 41.1874 30.917 41.03 30.4678C40.2601 28.2931 38.2687 26.8386 36.0005 26.6403L35.4062 20.7032H36.7185C37.5253 20.7032 38.1833 21.3598 38.1833 22.168C38.1833 22.9777 38.8385 23.6329 39.6481 23.6329C40.4578 23.6329 41.113 22.9777 41.113 22.168C41.113 19.7448 39.1417 17.7735 36.7185 17.7735H15.1206L10.4855 5.52715C9.62144 2.9293 7.5443 0.889366 4.92936 0.069739C4.4029 -0.10194 3.82214 0.0511843 3.43874 0.44884C3.05251 0.846495 2.92663 1.42872 3.10974 1.95089L13.6309 30.6523C13.6187 30.7074 13.5871 30.7537 13.5814 30.8113L12.2045 44.5788C6.12555 42.1333 2.55212 38.7619 2.49743 38.7091C1.92526 38.1398 1.00115 38.1383 0.428881 38.7134C-0.143286 39.2856 -0.143286 40.2112 0.428881 40.782C0.806517 41.1582 9.91929 50.0002 24.9996 50.0002C40.08 50.0002 49.1927 41.1582 49.5704 40.782C50.1426 40.2112 50.1426 39.2857 49.5704 38.7134C48.9983 38.1383 48.0743 38.1397 47.502 38.709ZM34.2235 38.2814H15.776L16.362 32.422H33.6375L34.2235 38.2814ZM32.4646 20.7033L33.0511 26.563L18.5025 26.5656L16.2476 20.7034H32.4646V20.7033ZM15.0466 45.5755L15.4831 41.2111H34.5164L34.9529 45.5755C32.0587 46.4577 28.7313 47.0704 24.9998 47.0704C21.2684 47.0704 17.941 46.4577 15.0466 45.5755Z" fill="url(#paint0_linear_2524_16602)"/>
</g>
<defs>
<linearGradient id="paint0_linear_2524_16602" x1="24.9996" y1="0.00012207" x2="24.9996" y2="50.0002" gradientUnits="userSpaceOnUse">
<stop stop-color="#FFD572"/>
<stop offset="1" stop-color="#FEBD38"/>
</linearGradient>
<clipPath id="clip0_2524_16602">
<rect width="50" height="50" fill="white"/>
</clipPath>
</defs>
</svg>
