<svg width="50" height="50" viewBox="0 0 50 50" fill="none" xmlns="http://www.w3.org/2000/svg">
<g clip-path="url(#clip0_3458_17642)">
<path d="M44.7468 11.475L25.8521 0.23429C25.327 -0.0780151 24.6729 -0.0780151 24.1479 0.23429L5.25303 11.475C4.74805 11.7755 4.43848 12.3198 4.43848 12.9074V19.3241C4.43848 32.8392 12.2471 45.1831 24.3981 49.8876C24.785 50.0374 25.2145 50.0376 25.6017 49.8876C37.7232 45.1948 45.5612 32.8776 45.5612 19.3241V12.9074C45.5613 12.3197 45.2519 11.7755 44.7468 11.475ZM33.234 21.2549L22.7882 31.7008C22.1373 32.3517 21.082 32.3517 20.4312 31.7008L16.7651 28.0349C16.1143 27.3841 16.1143 26.3287 16.7651 25.6778C17.416 25.0271 18.4714 25.0271 19.1222 25.6778L21.6096 28.1652L30.877 18.8979C31.5277 18.2471 32.5831 18.2471 33.234 18.8979C33.885 19.5488 33.885 20.6041 33.234 21.2549Z" fill="url(#paint0_linear_3458_17642)"/>
</g>
<defs>
<linearGradient id="paint0_linear_3458_17642" x1="24.9999" y1="6.10352e-05" x2="24.9999" y2="50" gradientUnits="userSpaceOnUse">
<stop stop-color="#B09FFF"/>
<stop offset="1" stop-color="#8D79F6"/>
</linearGradient>
<clipPath id="clip0_3458_17642">
<rect width="50" height="50" fill="white"/>
</clipPath>
</defs>
</svg>
