<svg width="38" height="38" viewBox="0 0 38 38" fill="none" xmlns="http://www.w3.org/2000/svg">
<g clip-path="url(#clip0_2448_14219)">
<path d="M33.384 7.69383L19.1019 0.083611C18.89 -0.029471 18.6361 -0.027884 18.4258 0.0875787L4.53893 7.6978C4.31118 7.82278 4.16992 8.06165 4.16992 8.32154V18.2624C4.17825 26.4341 9.01975 33.8269 16.507 37.1007L18.4345 37.9407C18.6147 38.0193 18.8198 38.0196 19.0003 37.9415L21.1723 37.0035C28.7984 33.8007 33.7597 26.3365 33.7605 18.0652V8.32154C33.7605 8.05887 33.6157 7.81723 33.384 7.69383ZM25.9372 16.096L17.1898 23.2123C16.8907 23.4559 16.4514 23.4162 16.2007 23.1226L12.4447 18.7243C12.1896 18.4255 12.2249 17.9768 12.5237 17.7216C12.8225 17.4669 13.2712 17.5022 13.5264 17.8006L16.8311 21.6708L25.0393 14.993C25.344 14.745 25.792 14.791 26.0396 15.0957C26.2876 15.4005 26.2415 15.8484 25.9368 16.096H25.9372Z" fill="url(#paint0_linear_2448_14219)"/>
</g>
<defs>
<linearGradient id="paint0_linear_2448_14219" x1="3.79249" y1="-0.000123519" x2="38.0424" y2="4.58491" gradientUnits="userSpaceOnUse">
<stop stop-color="#FDB3FF"/>
<stop offset="1" stop-color="#F77CF2"/>
</linearGradient>
<clipPath id="clip0_2448_14219">
<rect width="38" height="38" fill="white"/>
</clipPath>
</defs>
</svg>
