<svg width="50" height="50" viewBox="0 0 50 50" fill="none" xmlns="http://www.w3.org/2000/svg">
<g clip-path="url(#clip0_3458_17630)">
<path d="M31.4899 19.1532C22.9859 19.1532 16.0665 26.0726 16.0665 34.5766C16.0665 43.0806 22.9859 50 31.4899 50C39.994 50 46.9133 43.0806 46.9133 34.5766C46.9133 26.0726 39.994 19.1532 31.4899 19.1532ZM28.1754 28.4567C29.3569 28.4567 30.3186 29.4173 30.3186 30.5988C30.3186 31.7812 29.3569 32.7429 28.1754 32.7429C26.994 32.7429 26.0323 31.7813 26.0323 30.5988C26.0323 29.4173 26.994 28.4567 28.1754 28.4567ZM34.8045 40.6966C33.623 40.6966 32.6613 39.7359 32.6613 38.5544C32.6613 37.3721 33.623 36.4103 34.8045 36.4103C35.9859 36.4103 36.9476 37.372 36.9476 38.5544C36.9476 39.7359 35.9859 40.6966 34.8045 40.6966ZM36.6079 31.7399L28.6532 39.6945C28.0195 40.3262 27.003 40.3235 26.372 39.6945C25.742 39.0644 25.742 38.0432 26.372 37.4132L34.3266 29.4587C34.9567 28.8286 35.9778 28.8286 36.6079 29.4587C37.2379 30.0887 37.2379 31.1099 36.6079 31.7399ZM27.1553 0H16.6714C15.4462 0 14.6687 1.31512 15.2571 2.3881L18.3377 8.01008C16.144 9.31532 15.4395 12.1081 16.6653 14.2742C11.2299 16.125 7.00203 20.7752 5.87199 26.6633L3.23288 40.4153C2.27865 45.392 6.09336 50 11.1532 50H17.8709C19.0848 50 19.6788 48.5243 18.8067 47.6799C8.46917 37.6721 13.2882 20.3044 27.0828 16.8703C28.3659 16.5508 28.504 14.7283 27.1613 14.2741C28.387 12.1083 27.683 9.31532 25.4889 8.00998L28.5696 2.388C29.1589 1.31351 28.3786 0 27.1553 0V0ZM23.123 13.4073H20.7036C19.7772 13.4073 19.0565 12.5091 19.3649 11.5383C19.5474 10.9627 20.0998 10.5847 20.7036 10.5847H23.123C23.7268 10.5847 24.2793 10.9627 24.4617 11.5383C24.7702 12.5091 24.0494 13.4073 23.123 13.4073Z" fill="url(#paint0_linear_3458_17630)"/>
</g>
<defs>
<linearGradient id="paint0_linear_3458_17630" x1="24.9996" y1="0" x2="24.9996" y2="50" gradientUnits="userSpaceOnUse">
<stop stop-color="#B09FFF"/>
<stop offset="1" stop-color="#8D79F6"/>
</linearGradient>
<clipPath id="clip0_3458_17630">
<rect width="50" height="50" fill="white"/>
</clipPath>
</defs>
</svg>
