<svg width="50" height="50" viewBox="0 0 50 50" fill="none" xmlns="http://www.w3.org/2000/svg">
<path d="M44.6132 20.3972H25.785C22.8145 20.3972 20.3979 22.8138 20.3979 25.7843V36.0138L15.5197 39.4981C15.1348 39.7728 14.9062 40.2168 14.9062 40.6898C14.9062 41.1633 15.1348 41.6073 15.5197 41.8819L20.4566 45.4082C20.8423 48.003 23.085 50 25.785 50H44.6132C47.5837 50 50.0003 47.5834 50.0003 44.6125V25.7843C50.0003 22.8138 47.5837 20.3972 44.6132 20.3972ZM38.2823 40.9805C37.9371 40.9805 37.6705 40.871 37.5923 40.5727L36.9956 38.4857H33.4022L32.8063 40.5727C32.7278 40.871 32.4611 40.9805 32.1159 40.9805C31.5666 40.9805 30.8292 40.6357 30.8292 40.1337C30.8292 40.102 30.8448 40.0394 30.8605 39.9765L33.8889 30.1071C34.0301 29.6364 34.6107 29.4163 35.1913 29.4163C35.7875 29.4163 36.3681 29.6364 36.5093 30.1071L39.5377 39.9765C39.5534 40.0394 39.569 40.0864 39.569 40.1337C39.569 40.6197 38.8316 40.9805 38.2823 40.9805Z" fill="url(#paint0_linear_3458_17779)"/>
<path d="M33.8262 36.8851H36.5567L35.1911 32.0683L33.8262 36.8851Z" fill="url(#paint1_linear_3458_17779)"/>
<path d="M17.4679 25.7843C17.4679 23.8174 18.1557 22.0093 19.3012 20.5837C17.63 20.5837 16.0793 20.0607 14.801 19.1723C13.5227 20.0611 11.972 20.5837 10.3004 20.5837C9.84459 20.5837 9.47456 20.2137 9.47456 19.7575C9.47456 19.3012 9.84459 18.9316 10.3004 18.9316C11.4712 18.9316 12.5668 18.6073 13.5048 18.0458C12.3734 16.8247 11.6211 15.2481 11.4391 13.5033H10.3008C9.84459 13.5033 9.47456 13.1336 9.47456 12.6774C9.47456 12.2211 9.84459 11.8511 10.3008 11.8511H13.9755V9.84535C13.9755 9.38873 14.3452 9.01909 14.8014 9.01909C15.2576 9.01909 15.6273 9.38873 15.6273 9.84535V11.8511H19.302C19.7582 11.8511 20.1283 12.2211 20.1283 12.6774C20.1283 13.1336 19.7582 13.5033 19.302 13.5033H18.1637C17.9817 15.2481 17.2295 16.8247 16.098 18.0458C17.0357 18.6081 18.1316 18.9316 19.302 18.9316C19.738 18.9316 20.0943 19.2696 20.1252 19.698C21.611 18.3155 23.6004 17.4675 25.7851 17.4675H29.6028V13.9862L34.481 10.5019C34.8656 10.2272 35.0941 9.78317 35.0941 9.31015C35.0941 8.83675 34.8656 8.39272 34.481 8.11806L29.5441 4.59175C29.158 1.99699 26.9154 0 24.2153 0H5.3875C2.41661 0 0 2.41661 0 5.38712V24.2157C0 27.1862 2.41661 29.6028 5.3875 29.6028H17.4679V25.7843Z" fill="url(#paint2_linear_3458_17779)"/>
<path d="M14.8007 17.0135C15.7048 16.0755 16.3185 14.8575 16.4982 13.5036H13.1035C13.2832 14.8575 13.8974 16.0755 14.8007 17.0135Z" fill="url(#paint3_linear_3458_17779)"/>
<defs>
<linearGradient id="paint0_linear_3458_17779" x1="14.4586" y1="20.3972" x2="54.1576" y2="28.488" gradientUnits="userSpaceOnUse">
<stop stop-color="#FDB3FF"/>
<stop offset="1" stop-color="#F77CF2"/>
</linearGradient>
<linearGradient id="paint1_linear_3458_17779" x1="33.7913" y1="32.0683" x2="36.9782" y2="32.3788" gradientUnits="userSpaceOnUse">
<stop stop-color="#FDB3FF"/>
<stop offset="1" stop-color="#F77CF2"/>
</linearGradient>
<linearGradient id="paint2_linear_3458_17779" x1="-0.447628" y1="-1.12825e-06" x2="39.2514" y2="8.09084" gradientUnits="userSpaceOnUse">
<stop stop-color="#FDB3FF"/>
<stop offset="1" stop-color="#F77CF2"/>
</linearGradient>
<linearGradient id="paint3_linear_3458_17779" x1="13.0602" y1="13.5036" x2="16.9523" y2="14.1508" gradientUnits="userSpaceOnUse">
<stop stop-color="#FDB3FF"/>
<stop offset="1" stop-color="#F77CF2"/>
</linearGradient>
</defs>
</svg>
