<svg width="13" height="13" viewBox="0 0 16 16" fill="none" xmlns="http://www.w3.org/2000/svg">
<path d="M5.76883 10.4782L5.98944 10.239C5.82827 9.74189 5.82783 9.19465 6 8.68933C4.73211 9.36153 3.12694 9.09367 2.16874 8C1.45705 8.54467 1 9.3863 1 10.329V14.5754C1 14.8098 1.19714 15 1.44004 15H5.06536C5.01637 14.8672 4.98967 14.7243 4.98967 14.5754V12.4522C4.98967 11.7241 5.26631 11.0228 5.76883 10.4782Z" fill="url(#paint0_linear_1349:7421)"/>
<path d="M4 8C5.10457 8 6 7.10457 6 6C6 4.89543 5.10457 4 4 4C2.89543 4 2 4.89543 2 6C2 7.10457 2.89543 8 4 8Z" fill="url(#paint1_linear_1349:7421)"/>
<path d="M13.8313 8C12.8713 9.09565 11.265 9.36057 10 8.68904C10.1719 9.19538 10.1719 9.74121 10.0106 10.239L10.2312 10.4782C10.7337 11.0228 11.0103 11.7241 11.0103 12.4522V14.5754C11.0103 14.7243 10.9836 14.8672 10.9346 15H14.56C14.8029 15 15 14.8098 15 14.5754V10.329C15 9.3863 14.5429 8.54467 13.8313 8Z" fill="url(#paint2_linear_1349:7421)"/>
<path d="M12 8C13.1046 8 14 7.10457 14 6C14 4.89543 13.1046 4 12 4C10.8954 4 10 4.89543 10 6C10 7.10457 10.8954 8 12 8Z" fill="url(#paint3_linear_1349:7421)"/>
<path d="M8 11.9955C7.35911 11.9955 6.78778 11.6055 6.42156 11C6.15933 11.3794 6 11.8785 6 12.4247V14.5708C6 14.8077 6.14933 15 6.33333 15H9.66667C9.85067 15 10 14.8077 10 14.5708V12.4247C10 11.8785 9.84067 11.3794 9.57844 11C9.21222 11.6055 8.64089 11.9955 8 11.9955Z" fill="url(#paint4_linear_1349:7421)"/>
<path d="M8 11C9.10457 11 10 10.3284 10 9.5C10 8.67157 9.10457 8 8 8C6.89543 8 6 8.67157 6 9.5C6 10.3284 6.89543 11 8 11Z" fill="url(#paint5_linear_1349:7421)"/>
<path d="M6.93297 4.22649C7.36112 4.64858 7.78555 4.9289 7.8034 4.94064C7.92398 5.01979 8.076 5.01979 8.19658 4.94064C8.21445 4.9289 8.63885 4.64858 9.067 4.22649C9.6861 3.61617 10 3.02285 10 2.46302C10 1.19163 8.81475 0.594836 8 1.30112C7.18343 0.593263 6 1.19499 6 2.46302C6 3.02285 6.3139 3.61617 6.93297 4.22649Z" fill="url(#paint6_linear_1349:7421)"/>
<defs>
<linearGradient id="paint0_linear_1349:7421" x1="3.5" y1="8" x2="3.5" y2="15" gradientUnits="userSpaceOnUse">
<stop stop-color="#FFD572"/>
<stop offset="1" stop-color="#FEBD38"/>
</linearGradient>
<linearGradient id="paint1_linear_1349:7421" x1="4" y1="4" x2="4" y2="8" gradientUnits="userSpaceOnUse">
<stop stop-color="#FFD572"/>
<stop offset="1" stop-color="#FEBD38"/>
</linearGradient>
<linearGradient id="paint2_linear_1349:7421" x1="12.5" y1="8" x2="12.5" y2="15" gradientUnits="userSpaceOnUse">
<stop stop-color="#FFD572"/>
<stop offset="1" stop-color="#FEBD38"/>
</linearGradient>
<linearGradient id="paint3_linear_1349:7421" x1="12" y1="4" x2="12" y2="8" gradientUnits="userSpaceOnUse">
<stop stop-color="#FFD572"/>
<stop offset="1" stop-color="#FEBD38"/>
</linearGradient>
<linearGradient id="paint4_linear_1349:7421" x1="8" y1="11" x2="8" y2="15" gradientUnits="userSpaceOnUse">
<stop stop-color="#FFD572"/>
<stop offset="1" stop-color="#FEBD38"/>
</linearGradient>
<linearGradient id="paint5_linear_1349:7421" x1="8" y1="8" x2="8" y2="11" gradientUnits="userSpaceOnUse">
<stop stop-color="#FFD572"/>
<stop offset="1" stop-color="#FEBD38"/>
</linearGradient>
<linearGradient id="paint6_linear_1349:7421" x1="8" y1="1" x2="8" y2="5" gradientUnits="userSpaceOnUse">
<stop stop-color="#FFD572"/>
<stop offset="1" stop-color="#FEBD38"/>
</linearGradient>
</defs>
</svg>
