<svg width="80" height="80" viewBox="0 0 80 80" fill="none" xmlns="http://www.w3.org/2000/svg">
<rect width="80" height="80" rx="10" fill="#66A182"/>
<path d="M32.8787 37.9594C33.2431 40.3281 35.0734 43.3427 38.0798 44.4028C39.3138 44.8335 40.6638 44.8418 41.8978 44.3945C44.8545 43.3261 46.7428 40.3198 47.1154 37.9594C47.513 37.9263 48.0347 37.3714 48.5979 35.3754C49.3682 32.6506 48.5482 32.2448 47.8525 32.3111C47.9851 31.9384 48.0844 31.5574 48.1507 31.193C49.3267 24.1284 45.8483 23.8883 45.8483 23.8883C45.8483 23.8883 45.2686 22.7785 43.7529 21.942C42.7343 21.3374 41.318 20.8736 39.4546 21.031C38.85 21.0558 38.2785 21.18 37.7402 21.354C37.0528 21.5858 36.4234 21.9254 35.8519 22.3229C35.1562 22.7619 34.4937 23.3085 33.9139 23.9297C32.9946 24.8738 32.1747 26.0913 31.8186 27.6069C31.5204 28.7415 31.5867 29.9258 31.8351 31.2013C31.9014 31.574 32.0008 31.9467 32.1333 32.3193C31.4376 32.2531 30.6177 32.6589 31.3879 35.3837C31.9594 37.3714 32.4811 37.9263 32.8787 37.9594Z" fill="white"/>
<path d="M53.6583 47.2269C49.4262 46.1503 45.9891 43.7319 45.9891 43.7319L43.3058 52.221L42.8005 53.8194L42.7923 53.7946L42.3533 55.1528L40.9371 51.1361C44.4155 46.2828 40.2331 46.3325 40.0012 46.3408C39.7693 46.3325 35.5869 46.2828 39.0654 51.1361L37.6491 55.1528L37.2102 53.7946L37.2019 53.8194L36.6967 52.221L34.005 43.7319C34.005 43.7319 30.568 46.1503 26.3359 47.2269C23.1804 48.0303 23.0314 51.6744 23.1556 53.4716C23.1556 53.4716 23.3378 55.9148 23.52 56.9915C23.52 56.9915 29.6818 60.9917 40.0012 60.9999C50.3206 60.9999 56.4824 56.9915 56.4824 56.9915C56.6646 55.9148 56.8469 53.4716 56.8469 53.4716C56.9628 51.6744 56.8137 48.0303 53.6583 47.2269Z" fill="white"/>
</svg>
