<svg width="80" height="80" viewBox="0 0 80 80" fill="none" xmlns="http://www.w3.org/2000/svg">
<rect width="80" height="80" rx="10" fill="#374483"/>
<path d="M52.4527 42.7188V45.2814C52.4527 46.4453 51.5058 47.3921 50.3419 47.3921H47.0211C45.8572 47.3921 44.9104 46.4453 44.9104 45.2814V42.7188H34.9041V45.2814C34.9041 46.4453 33.9572 47.3921 32.7933 47.3921H29.4725C28.3086 47.3921 27.3618 46.4453 27.3618 45.2814V42.7188H21.2305V55.5023C21.2305 56.9422 22.4014 58.1141 23.8416 58.1141H56.1194C57.5595 58.1141 58.7305 56.9422 58.7305 55.5023V42.7188H52.4527ZM50.2554 39.5035H47.1076V45.1949H50.2554V39.5035ZM56.1194 30.3643H23.8416C22.4014 30.3643 21.2305 31.5352 21.2305 32.9753V40.5216H27.3618V39.4172C27.3618 38.2534 28.3086 37.3062 29.4725 37.3062H32.7933C33.9572 37.3062 34.9041 38.2534 34.9041 39.4172V40.5216H44.9104V39.4172C44.9104 38.2534 45.8572 37.3062 47.0211 37.3062H50.3419C51.5058 37.3062 52.4527 38.2534 52.4527 39.4172V40.5216H58.7305V32.9753C58.7305 31.5352 57.5595 30.3643 56.1194 30.3643ZM29.559 39.5035V45.1949H32.7068V39.5035H29.559Z" fill="white"/>
<path d="M32.8848 28.1669V26.4764C32.8848 26.1516 33.1516 25.8874 33.4801 25.8874H46.3341C46.6623 25.8874 46.9294 26.1516 46.9294 26.4764V28.1669H49.1267V26.4764C49.1267 24.9399 47.874 23.6902 46.3341 23.6902H33.4801C31.9402 23.6902 30.6875 24.9403 30.6875 26.4764V28.1669H32.8848Z" fill="white"/>
</svg>
