<svg width="600" height="285" viewBox="0 0 600 285" fill="none" xmlns="http://www.w3.org/2000/svg">
<mask id="mask0_445_669" style="mask-type:alpha" maskUnits="userSpaceOnUse" x="10" y="5" width="580" height="265">
<rect x="10" y="5" width="580" height="265" rx="2" fill="white"/>
</mask>
<g mask="url(#mask0_445_669)">
<g filter="url(#filter0_d_445_669)">
<rect x="10" y="5" width="580" height="265" rx="2" fill="white"/>
</g>
<path d="M460.831 444.378H93.7006L107.013 185.453H164.464L217.442 222.442H474.143L460.831 444.378Z" fill="#E5E5E5"/>
<path d="M370.96 365.419L158.764 278.369C158.022 278.064 157.432 277.478 157.123 276.74C156.815 276.002 156.813 275.172 157.117 274.432L253.268 41.8663C253.574 41.1273 254.162 40.5397 254.903 40.2322C255.644 39.9247 256.477 39.9225 257.22 40.2262L469.416 127.275C470.158 127.581 470.748 128.167 471.057 128.905C471.365 129.643 471.368 130.473 471.063 131.212L374.913 363.778C374.606 364.517 374.018 365.105 373.277 365.413C372.536 365.72 371.703 365.722 370.96 365.419Z" fill="white"/>
<path d="M370.96 365.419L158.764 278.369C158.022 278.064 157.432 277.478 157.123 276.74C156.815 276.002 156.813 275.172 157.117 274.432L253.268 41.8663C253.574 41.1273 254.162 40.5397 254.903 40.2322C255.644 39.9247 256.477 39.9225 257.22 40.2262L469.416 127.275C470.158 127.581 470.748 128.167 471.057 128.905C471.365 129.643 471.368 130.473 471.063 131.212L374.913 363.778C374.606 364.517 374.018 365.105 373.277 365.413C372.536 365.72 371.703 365.722 370.96 365.419ZM256.759 41.3416C256.313 41.1594 255.813 41.1607 255.369 41.3452C254.924 41.5297 254.571 41.8823 254.387 42.3257L158.237 274.892C158.054 275.336 158.056 275.833 158.241 276.276C158.426 276.719 158.78 277.071 159.225 277.254L371.421 364.303C371.867 364.485 372.367 364.484 372.811 364.3C373.256 364.115 373.609 363.762 373.793 363.319L469.943 130.753C470.126 130.309 470.125 129.811 469.939 129.368C469.754 128.926 469.4 128.574 468.955 128.391L256.759 41.3416Z" fill="#3F3D56"/>
<path d="M301.923 150.562L249.293 128.972C248.626 128.697 248.095 128.17 247.817 127.505C247.539 126.841 247.537 126.094 247.812 125.428L269.486 73.0035C269.762 72.3384 270.291 71.8095 270.958 71.5328C271.625 71.256 272.374 71.2541 273.043 71.5274L325.672 93.1174C326.34 93.3922 326.871 93.9196 327.148 94.5838C327.426 95.2481 327.428 95.995 327.154 96.6607L305.48 149.086C305.204 149.751 304.674 150.28 304.008 150.556C303.341 150.833 302.591 150.835 301.923 150.562Z" fill="#F5F5F5"/>
<path d="M291.724 93.5512L291.063 93.3613L290.18 94.5978L289.636 93.2074L288.921 93.2226L289.409 95.6684L287.771 97.9717L286.368 98.196L284.982 98.4116L282.805 96.6814L282.662 94.1871L281.984 94.3687L281.815 95.8824L280.655 94.9573L280.042 95.349L281.672 97.1925L281.35 99.9977L280.223 100.919L279.117 101.796L276.373 101.432L275.02 99.3807L274.518 99.8921L275.111 101.272L273.645 101.076L273.298 101.711L275.618 102.466L276.723 105.026L275.641 107.705L273.35 108.666L270.999 107.367L270.773 108.035L272.158 109.173L270.49 109.867L270.49 110.598L273.156 109.987L275.05 111.543L275.16 112.986L275.268 114.399L273.192 116.84L270.887 117.033L271.056 117.71L272.334 117.831L271.594 118.706L271.922 119.355L273.592 117.961L276.559 118.247L277.413 119.383L278.267 120.49L277.826 123.472L275.9 124.808L276.379 125.305L277.633 124.717L277.431 126.095L278.053 126.452L278.794 124.182L281.46 122.947L284.059 123.997L285.061 126.624L283.974 128.877L284.635 129.067L285.518 127.831L286.063 129.221L286.777 129.206L286.289 126.76L287.944 124.464L289.347 124.239L290.727 124.037L292.904 125.767L293.054 128.245L293.72 128.058L293.888 126.545L295.049 127.47L295.662 127.078L294.031 125.234L294.356 122.426L295.482 121.527L296.58 120.633L299.773 121.055L300.997 122.918L301.506 122.424L300.995 121.214L302.059 121.357L302.416 120.726L300.525 120.114L299.306 117.279L300.383 114.612L302.979 113.516L305.16 114.58L305.346 113.895L304.155 113.018L305.543 112.438L305.53 111.702L303.127 112.251L300.906 110.625L300.732 109.202L300.55 107.79L302.29 105.528L304.718 105.323L304.554 104.632L303.077 104.492L304.006 103.287L303.649 102.674L301.813 104.369L299.058 104.107L298.198 102.985L297.352 101.867L297.771 99.0381L299.804 97.623L299.325 97.1262L297.962 97.7621L298.186 96.2592L297.559 95.9126L296.784 98.3068L294.241 99.4802L291.655 98.4355L290.637 95.8047L291.724 93.5512ZM294.413 95.1853C294.011 95.023 293.559 95.0319 293.156 95.2101C292.754 95.3883 292.434 95.7212 292.266 96.1355C292.099 96.5498 292.098 97.0117 292.264 97.4194C292.43 97.8271 292.749 98.1474 293.151 98.3097C293.35 98.3901 293.563 98.4292 293.779 98.425C293.994 98.4207 294.208 98.3731 294.407 98.2849C294.606 98.1966 294.788 98.0695 294.94 97.9107C295.093 97.7519 295.214 97.5646 295.297 97.3595C295.38 97.1543 295.423 96.9353 295.423 96.7151C295.423 96.4948 295.381 96.2775 295.299 96.0756C295.217 95.8737 295.097 95.6912 294.944 95.5384C294.792 95.3856 294.612 95.2657 294.413 95.1853ZM300.528 99.8748C300.276 99.7928 300.007 99.7763 299.744 99.8269C299.482 99.8774 299.235 99.9935 299.024 100.165C298.675 100.439 298.444 100.841 298.381 101.284C298.319 101.726 298.43 102.172 298.691 102.523C298.959 102.873 299.354 103.097 299.789 103.148C300.224 103.198 300.665 103.071 301.015 102.793C301.248 102.599 301.427 102.347 301.533 102.061C301.639 101.775 301.669 101.467 301.619 101.169C301.569 100.871 301.441 100.594 301.249 100.367C301.057 100.14 300.807 99.9709 300.526 99.8781L300.528 99.8748ZM286.474 94.2441C286.26 94.1932 286.037 94.1861 285.819 94.2231C285.606 94.2542 285.4 94.3279 285.214 94.44C285.027 94.5522 284.863 94.7005 284.732 94.8765C284.6 95.0525 284.504 95.2527 284.448 95.4654C284.392 95.6782 284.377 95.8992 284.405 96.1159C284.443 96.4155 284.56 96.6973 284.743 96.9314C284.926 97.1654 285.169 97.343 285.446 97.4451C285.723 97.5473 286.023 97.5703 286.315 97.5116C286.607 97.4529 286.88 97.3147 287.104 97.1118C287.328 96.9089 287.496 96.6488 287.589 96.3592C287.682 96.0697 287.697 95.7614 287.632 95.4672C287.567 95.173 287.425 94.9039 287.221 94.6885C287.018 94.4732 286.759 94.3196 286.474 94.2441ZM289.776 97.5701L290.361 100.468L289.589 102.345L293 103.722L293.76 101.84L296.169 100.152L295.243 102.987L293.666 104.224L295.924 107.188L297.491 105.935L300.374 105.7L298.197 107.692L296.237 107.979L296.717 111.716L298.67 111.41L301.272 112.674L298.428 113.331L296.612 112.568L295.187 116.098L297.013 116.835L298.794 119.547L295.542 118.507L294.352 116.92L291.403 119.29L292.614 120.858L292.79 123.819L290.859 121.624L290.631 119.632L286.948 120.198L287.207 122.188L285.921 124.861L285.348 121.969L286.116 120.104L282.694 118.723L281.939 120.593L279.373 122.381L280.354 119.372L281.934 118.124L279.69 115.165L278.116 116.431L275.124 116.681L277.597 114.609L279.574 114.432L279.278 110.664L277.312 110.857L274.987 109.568L277.598 108.981L279.419 109.732L280.844 106.204L279.021 105.467L277.419 103.04L280.174 103.925L281.352 105.51L284.295 103.156L283.102 101.58L282.917 98.6334L284.84 100.809L285.081 102.807L288.748 102.236L288.489 100.246L289.776 97.5717L289.776 97.5701ZM303.744 107.286C303.416 107.122 303.042 107.076 302.68 107.156C302.319 107.235 301.991 107.435 301.75 107.724C301.508 108.014 301.367 108.375 301.348 108.751C301.329 109.127 301.434 109.496 301.645 109.8C301.857 110.103 302.163 110.323 302.515 110.424C302.867 110.526 303.245 110.504 303.589 110.36C303.932 110.217 304.221 109.962 304.409 109.635C304.598 109.308 304.675 108.928 304.629 108.556C304.596 108.284 304.498 108.026 304.344 107.804C304.19 107.583 303.983 107.405 303.744 107.286ZM279.324 97.485C279.066 97.407 278.793 97.3946 278.527 97.4489C278.261 97.5031 278.011 97.6223 277.797 97.7963C277.626 97.9315 277.482 98.0996 277.374 98.2908C277.266 98.482 277.195 98.6924 277.167 98.9099C277.138 99.1274 277.152 99.3477 277.207 99.5579C277.263 99.7681 277.358 99.9641 277.489 100.135C277.618 100.313 277.781 100.462 277.968 100.574C278.156 100.686 278.364 100.758 278.58 100.786C278.797 100.814 279.018 100.797 279.23 100.737C279.442 100.676 279.641 100.573 279.816 100.434C279.99 100.295 280.136 100.122 280.245 99.9252C280.354 99.7288 280.424 99.5128 280.451 99.2901C280.478 99.0674 280.461 98.8423 280.402 98.6282C280.342 98.414 280.241 98.2151 280.105 98.0431C279.908 97.7813 279.638 97.5876 279.329 97.4872L279.324 97.485ZM302.628 115.198C302.429 115.117 302.216 115.076 302 115.079C301.784 115.082 301.57 115.129 301.37 115.216C301.17 115.304 300.988 115.43 300.835 115.589C300.681 115.747 300.559 115.934 300.476 116.139C300.308 116.554 300.307 117.015 300.473 117.423C300.639 117.831 300.958 118.151 301.36 118.314C301.762 118.476 302.214 118.467 302.616 118.289C303.019 118.11 303.339 117.778 303.506 117.363C303.589 117.159 303.633 116.941 303.634 116.722C303.634 116.502 303.593 116.286 303.511 116.085C303.43 115.884 303.31 115.702 303.158 115.55C303.007 115.397 302.826 115.278 302.628 115.198ZM274.662 103.981C274.363 103.861 274.033 103.836 273.716 103.908C273.398 103.98 273.106 104.146 272.877 104.385C272.648 104.624 272.492 104.926 272.428 105.252C272.365 105.578 272.397 105.914 272.52 106.218C272.644 106.521 272.853 106.779 273.122 106.958C273.391 107.136 273.707 107.229 274.031 107.223C274.356 107.217 274.673 107.114 274.943 106.925C275.213 106.737 275.425 106.472 275.551 106.164C275.635 105.958 275.678 105.738 275.679 105.517C275.68 105.295 275.638 105.077 275.555 104.874C275.473 104.671 275.351 104.487 275.198 104.334C275.045 104.181 274.863 104.061 274.662 103.981ZM273.369 111.639C273.163 111.574 272.946 111.553 272.73 111.578C272.515 111.601 272.306 111.667 272.114 111.772C271.923 111.877 271.753 112.02 271.614 112.191C271.475 112.362 271.37 112.559 271.304 112.77C271.239 112.982 271.215 113.203 271.233 113.422C271.248 113.64 271.304 113.851 271.4 114.045C271.496 114.238 271.628 114.409 271.79 114.548C271.953 114.687 272.141 114.792 272.344 114.855C272.547 114.918 272.762 114.939 272.975 114.916C273.355 114.881 273.714 114.712 273.991 114.438C274.267 114.165 274.444 113.803 274.49 113.416C274.537 113.028 274.451 112.639 274.246 112.315C274.042 111.991 273.732 111.752 273.369 111.639ZM297.435 121.733C297.061 121.61 296.654 121.628 296.287 121.786C295.919 121.944 295.617 122.23 295.435 122.592C295.253 122.954 295.202 123.369 295.294 123.76C295.385 124.151 295.611 124.492 295.931 124.722C296.251 124.952 296.644 125.055 297.038 125.012C297.431 124.969 297.8 124.784 298.076 124.489C298.352 124.194 298.518 123.81 298.542 123.406C298.567 123.002 298.449 122.606 298.21 122.29C298.012 122.031 297.743 121.839 297.435 121.739L297.435 121.733ZM276.128 119.276C275.794 119.167 275.432 119.171 275.096 119.289C274.759 119.406 274.467 119.631 274.262 119.929C274.057 120.227 273.951 120.583 273.958 120.944C273.966 121.305 274.087 121.651 274.304 121.93C274.434 122.102 274.597 122.245 274.783 122.35C274.968 122.456 275.173 122.523 275.386 122.546C275.599 122.57 275.815 122.55 276.021 122.488C276.228 122.426 276.422 122.323 276.591 122.185C276.939 121.907 277.167 121.503 277.227 121.059C277.287 120.616 277.173 120.171 276.91 119.82C276.711 119.562 276.439 119.372 276.13 119.277L276.128 119.276ZM290.117 124.926C289.906 124.87 289.685 124.858 289.467 124.891C289.032 124.962 288.638 125.204 288.371 125.566C288.103 125.927 287.983 126.379 288.038 126.824C288.1 127.263 288.33 127.656 288.678 127.917C289.026 128.177 289.464 128.283 289.896 128.212C290.109 128.18 290.314 128.106 290.5 127.993C290.686 127.88 290.849 127.731 290.979 127.555C291.109 127.378 291.205 127.178 291.26 126.965C291.315 126.752 291.328 126.531 291.299 126.315C291.259 125.988 291.125 125.681 290.915 125.434C290.704 125.187 290.427 125.01 290.115 124.925L290.117 124.926ZM282.552 124.12C282.146 123.96 281.691 123.972 281.286 124.153C280.881 124.334 280.56 124.67 280.391 125.088C280.224 125.502 280.223 125.964 280.389 126.372C280.555 126.779 280.874 127.1 281.276 127.262C281.678 127.424 282.129 127.415 282.532 127.237C282.934 127.059 283.255 126.726 283.422 126.312C283.592 125.897 283.596 125.433 283.432 125.022C283.269 124.612 282.952 124.287 282.55 124.12L282.552 124.12Z" fill="url(#paint0_linear_445_669)"/>
<path d="M400.293 227.153L235.687 159.627C235.356 159.491 235.055 159.292 234.802 159.04C234.548 158.789 234.347 158.49 234.209 158.161C234.072 157.832 234 157.479 234 157.123C233.999 156.766 234.069 156.413 234.205 156.084C234.341 155.754 234.541 155.454 234.794 155.202C235.046 154.949 235.346 154.749 235.676 154.612C236.007 154.475 236.361 154.404 236.719 154.403C237.077 154.402 237.431 154.472 237.762 154.607L402.368 222.134C403.036 222.408 403.568 222.935 403.846 223.6C404.124 224.264 404.125 225.011 403.85 225.677C403.575 226.342 403.045 226.872 402.378 227.149C401.711 227.426 400.961 227.427 400.293 227.153V227.153Z" fill="#CCCCCC"/>
<path d="M353.393 228.134L228.539 176.916C228.208 176.78 227.907 176.58 227.654 176.329C227.4 176.077 227.199 175.779 227.061 175.45C226.924 175.121 226.853 174.768 226.852 174.411C226.851 174.055 226.921 173.702 227.057 173.372C227.193 173.043 227.394 172.743 227.646 172.491C227.899 172.238 228.198 172.037 228.529 171.9C228.859 171.763 229.213 171.692 229.571 171.692C229.929 171.691 230.283 171.76 230.614 171.896L355.469 223.115C356.137 223.389 356.668 223.917 356.946 224.581C357.224 225.246 357.226 225.993 356.951 226.658C356.675 227.324 356.146 227.853 355.479 228.13C354.812 228.407 354.062 228.409 353.393 228.134Z" fill="#CCCCCC"/>
<path d="M426.019 163.344L353.234 133.486C352.903 133.35 352.602 133.151 352.348 132.899C352.095 132.647 351.894 132.349 351.756 132.02C351.618 131.691 351.547 131.338 351.547 130.981C351.546 130.625 351.616 130.272 351.752 129.942C351.888 129.613 352.088 129.313 352.341 129.061C352.593 128.808 352.893 128.607 353.223 128.47C353.554 128.333 353.908 128.262 354.266 128.262C354.624 128.261 354.978 128.33 355.309 128.466L428.094 158.325C428.762 158.599 429.294 159.126 429.572 159.791C429.849 160.455 429.851 161.202 429.576 161.868C429.301 162.534 428.771 163.063 428.104 163.34C427.437 163.617 426.687 163.618 426.019 163.344Z" fill="#CCCCCC"/>
<path d="M400.706 173.181L346.086 150.775C345.418 150.5 344.886 149.973 344.608 149.309C344.33 148.644 344.329 147.897 344.604 147.231C344.879 146.566 345.409 146.036 346.076 145.759C346.743 145.483 347.493 145.481 348.161 145.755L402.782 168.162C403.45 168.436 403.981 168.964 404.259 169.628C404.537 170.293 404.539 171.04 404.263 171.705C403.988 172.371 403.459 172.9 402.792 173.177C402.125 173.454 401.375 173.456 400.706 173.181V173.181Z" fill="#CCCCCC"/>
<path d="M385.997 261.731L221.391 194.205C221.06 194.069 220.76 193.87 220.506 193.618C220.253 193.367 220.051 193.068 219.914 192.739C219.776 192.41 219.705 192.057 219.704 191.701C219.703 191.344 219.773 190.991 219.909 190.662C220.046 190.332 220.246 190.032 220.498 189.78C220.751 189.527 221.051 189.327 221.381 189.19C221.711 189.053 222.066 188.982 222.423 188.981C222.781 188.98 223.136 189.05 223.467 189.185L388.073 256.712C388.741 256.986 389.272 257.513 389.55 258.178C389.828 258.842 389.83 259.589 389.555 260.255C389.279 260.921 388.75 261.45 388.083 261.727C387.416 262.004 386.666 262.005 385.997 261.731V261.731Z" fill="#CCCCCC"/>
<path d="M339.098 262.713L214.243 211.494C213.912 211.358 213.612 211.159 213.358 210.907C213.105 210.656 212.903 210.357 212.766 210.028C212.628 209.699 212.557 209.346 212.556 208.99C212.555 208.633 212.625 208.28 212.761 207.951C212.898 207.621 213.098 207.321 213.35 207.069C213.603 206.816 213.903 206.616 214.233 206.479C214.563 206.342 214.917 206.271 215.275 206.27C215.633 206.269 215.988 206.339 216.318 206.474L341.173 257.693C341.504 257.829 341.804 258.028 342.058 258.28C342.311 258.531 342.513 258.83 342.65 259.159C342.788 259.488 342.859 259.841 342.86 260.198C342.861 260.554 342.791 260.907 342.655 261.237C342.518 261.566 342.318 261.866 342.066 262.118C341.813 262.371 341.513 262.571 341.183 262.709C340.853 262.846 340.499 262.917 340.141 262.917C339.783 262.918 339.428 262.848 339.098 262.713Z" fill="#CCCCCC"/>
<path d="M371.702 296.309L207.096 228.783C206.427 228.509 205.896 227.981 205.618 227.317C205.34 226.652 205.339 225.905 205.614 225.24C205.889 224.574 206.418 224.045 207.085 223.768C207.752 223.491 208.503 223.489 209.171 223.764L373.777 291.29C374.445 291.564 374.977 292.091 375.254 292.756C375.532 293.42 375.534 294.167 375.259 294.833C374.983 295.499 374.454 296.028 373.787 296.305C373.12 296.582 372.37 296.583 371.702 296.309Z" fill="#CCCCCC"/>
<path d="M364.554 313.598L199.947 246.072C199.279 245.798 198.748 245.271 198.47 244.606C198.192 243.942 198.19 243.194 198.466 242.529C198.741 241.863 199.27 241.334 199.937 241.057C200.604 240.78 201.354 240.778 202.023 241.053L366.629 308.579C366.96 308.715 367.26 308.914 367.514 309.166C367.768 309.417 367.969 309.716 368.106 310.045C368.244 310.374 368.315 310.727 368.316 311.083C368.317 311.44 368.247 311.793 368.111 312.122C367.974 312.452 367.774 312.751 367.522 313.004C367.269 313.257 366.969 313.457 366.639 313.594C366.309 313.731 365.955 313.802 365.597 313.803C365.239 313.804 364.884 313.734 364.554 313.598Z" fill="#CCCCCC"/>
<path d="M460.831 239.89V444.378H93.7006V202.901H151.152L204.127 239.89H460.831Z" fill="white"/>
<path d="M461.531 445.076H93V202.203H151.373L204.351 239.192H461.531V445.076ZM94.4013 443.68H460.13V240.588H203.909L150.931 203.599H94.4013V443.68Z" fill="#3F3D56"/>
</g>
<defs>
<filter id="filter0_d_445_669" x="0" y="0" width="600" height="285" filterUnits="userSpaceOnUse" color-interpolation-filters="sRGB">
<feFlood flood-opacity="0" result="BackgroundImageFix"/>
<feColorMatrix in="SourceAlpha" type="matrix" values="0 0 0 0 0 0 0 0 0 0 0 0 0 0 0 0 0 0 127 0" result="hardAlpha"/>
<feOffset dy="5"/>
<feGaussianBlur stdDeviation="5"/>
<feColorMatrix type="matrix" values="0 0 0 0 0.925 0 0 0 0 0.912153 0 0 0 0 0.905729 0 0 0 0.5 0"/>
<feBlend mode="normal" in2="BackgroundImageFix" result="effect1_dropShadow_445_669"/>
<feBlend mode="normal" in="SourceGraphic" in2="effect1_dropShadow_445_669" result="shape"/>
</filter>
<linearGradient id="paint0_linear_445_669" x1="294.64" y1="94.729" x2="281.287" y2="127.792" gradientUnits="userSpaceOnUse">
<stop stop-color="#90C6FD"/>
<stop offset="1" stop-color="#5398DF"/>
</linearGradient>
</defs>
</svg>
