<svg width="62" height="62" viewBox="0 0 62 62" fill="none" xmlns="http://www.w3.org/2000/svg">
<path d="M10.3335 0V62H46.5002L62.0002 46.5V0H10.3335Z" fill="#EFEEEE"/>
<path d="M46.5 46.5V62L62 46.5H46.5Z" fill="#ABABAB"/>
<path d="M31 62H46.5V46.5L31 62Z" fill="#DEDEDD"/>
<path d="M0 15.5V33.5833H41.3333V15.5H0Z" fill="#61B565"/>
<path d="M7.94126 19.0288L9.36726 22.6093L10.7778 19.0288H13.2113L10.6383 24.5003L13.3973 30.0958H10.8863L9.29235 26.3448L7.70876 30.0958H5.25977L8.01876 24.5003L5.47677 19.0288H7.94126Z" fill="white"/>
<path d="M15.8154 19.0288H18.0474V28.2668H21.9974V30.0958H15.8154V19.0288Z" fill="white"/>
<path d="M26.3394 26.9648C26.3394 27.2231 26.3601 27.4582 26.3988 27.6674C26.4428 27.8793 26.5177 28.0575 26.6313 28.2022C26.745 28.3494 26.9 28.4631 27.0912 28.5458C27.2798 28.6258 27.5226 28.6698 27.8093 28.6698C28.1529 28.6698 28.4578 28.5587 28.7316 28.3365C29.0028 28.1143 29.1423 27.7682 29.1423 27.3058C29.1423 27.0578 29.1062 26.8433 29.0416 26.6625C28.9744 26.4817 28.8633 26.3189 28.7083 26.1768C28.5508 26.0296 28.3467 25.9004 28.0961 25.7816C27.8455 25.6628 27.5303 25.5413 27.1583 25.4173C26.6649 25.252 26.2361 25.0686 25.8718 24.8723C25.5102 24.6785 25.2079 24.4486 24.9651 24.1825C24.7223 23.919 24.544 23.6142 24.4303 23.268C24.3167 22.9193 24.2598 22.5214 24.2598 22.0642C24.2598 20.9689 24.5647 20.1551 25.1743 19.6178C25.7814 19.0804 26.621 18.8118 27.6853 18.8118C28.1813 18.8118 28.6386 18.866 29.0571 18.9745C29.4756 19.083 29.8373 19.2561 30.1421 19.5015C30.4469 19.7443 30.6846 20.0543 30.8551 20.4289C31.023 20.8061 31.1108 21.2582 31.1108 21.7852V22.0952H28.9718C28.9718 21.5682 28.8788 21.1626 28.6954 20.8758C28.5094 20.5943 28.1994 20.4496 27.7654 20.4496C27.5174 20.4496 27.3108 20.4883 27.1454 20.5581C26.9827 20.6304 26.8483 20.726 26.7502 20.8448C26.652 20.9637 26.5874 21.1006 26.5513 21.2556C26.5125 21.4106 26.497 21.5708 26.497 21.7361C26.497 22.0797 26.5693 22.3638 26.714 22.5963C26.8587 22.8314 27.1687 23.0458 27.644 23.2396L29.3645 23.9836C29.7882 24.1696 30.1343 24.3633 30.4004 24.5674C30.6691 24.7689 30.8861 24.9859 31.0437 25.2184C31.2038 25.4509 31.3149 25.7041 31.3769 25.9857C31.4389 26.2621 31.4699 26.5747 31.4699 26.9131C31.4699 28.0808 31.1315 28.9307 30.4547 29.4628C29.7778 29.995 28.8349 30.2637 27.6259 30.2637C26.3653 30.2637 25.4637 29.9898 24.9186 29.4422C24.3761 28.8945 24.1074 28.1092 24.1074 27.0862V26.6367H26.3394V26.9648Z" fill="white"/>
</svg>
