<svg width="125" height="32" viewBox="0 0 125 32" fill="none" xmlns="http://www.w3.org/2000/svg">
<g clip-path="url(#clip0_809:1118)">
<path d="M12.6055 0L11.9921 0.0639428L11.6729 1.38958L10.7524 0.415626L10.1631 0.668275L11.3908 2.53976L10.8015 5.00699L9.70929 5.66513L8.62916 6.31001L6.23591 5.60197L5.27832 3.57453L4.77531 3.9535L5.14368 5.26978L3.86688 4.89002L3.48868 5.42184L5.46439 6.40826L6.13985 8.85055L5.51129 9.99605L4.88575 11.0971L2.47964 11.717L0.664289 10.4647L0.41846 11.0589L1.37606 12.0079L0.0901827 12.337L0.0145429 12.9826L2.19902 12.8306L3.97882 14.5898V17.1833L2.39568 18.7522L0.00244141 18.4614L0.0387482 19.0938L1.57348 19.5749L0.419216 20.7134L0.665045 21.3208L2.67782 19.9172L4.77682 20.5754L5.3532 21.7396L5.91823 22.8781L5.01055 25.6073L3.15738 26.5431L3.52574 27.0491L4.63008 26.7201L4.30861 27.6971L4.79952 28.1268L5.72005 26.4058L8.28575 25.6471L9.37799 26.3052L10.4604 26.9392L11.0958 29.5686L9.94226 31.3278L10.5073 31.5805L11.3537 30.6697L11.6487 31.8846L12.2863 31.9727L12.1396 29.8345L13.9436 27.9108H16.4594L18.1757 29.7605L18.0282 32.0008L18.6424 31.9368L18.9616 30.6112L19.8821 31.5851L20.4713 31.3325L19.2437 29.461L19.8488 26.9938L20.941 26.3356L22.0212 25.7032L24.4144 26.4113L25.372 28.4231L25.8629 28.0441L25.4946 26.7279L26.7714 27.1076L27.1496 26.5758L25.1731 25.5894L24.4991 23.1432L25.1345 22.0172L25.748 20.9037L28.5466 20.1824L30.191 21.3208L30.449 20.7391L29.6169 19.904L30.5503 19.6654L30.6358 19.0197L28.856 19.146L26.8894 17.1966V14.6155L28.6813 12.8313L30.8536 12.9834L30.778 12.351L29.4921 12.0219L30.452 11.0721L30.1941 10.4639L28.3787 11.7287L25.9847 11.1221L25.3614 9.99605L24.7351 8.88252L25.4227 6.41528L27.3742 5.42885L27.0058 4.90952L25.7298 5.28927L26.0974 3.97378L25.5944 3.58389L24.6368 5.61132L22.2557 6.31937L21.1634 5.67449L20.0833 5.02882L19.482 2.53352L20.6975 0.672954L20.1325 0.420305L19.2119 1.40751L18.8927 0.0818763L18.2551 0.00389797L18.4147 2.25669L16.6931 4.08763H14.1894L12.4588 2.24032L12.6055 0ZM15.3921 0.456174C15.0031 0.456174 14.6301 0.615474 14.355 0.899029C14.08 1.18258 13.9255 1.56717 13.9255 1.96817C13.9255 2.36918 14.08 2.75377 14.355 3.03732C14.6301 3.32088 15.0031 3.48018 15.3921 3.48018C15.5847 3.48018 15.7754 3.44107 15.9534 3.36508C16.1313 3.2891 16.293 3.17772 16.4292 3.03732C16.5654 2.89692 16.6734 2.73024 16.7471 2.54679C16.8208 2.36335 16.8588 2.16673 16.8588 1.96817C16.8588 1.76961 16.8208 1.573 16.7471 1.38956C16.6734 1.20611 16.5654 1.03943 16.4292 0.899029C16.293 0.758627 16.1313 0.647254 15.9534 0.571269C15.7754 0.495284 15.5847 0.456174 15.3921 0.456174ZM22.0567 2.30348C21.8196 2.31984 21.5901 2.39658 21.3888 2.52681C21.1875 2.65705 21.0207 2.83672 20.9032 3.04974C20.7048 3.39536 20.6476 3.80807 20.7441 4.19716C20.8407 4.58625 21.0832 4.91989 21.4183 5.12474C21.759 5.32545 22.1626 5.37956 22.5417 5.27532C22.9208 5.17108 23.2448 4.91691 23.4432 4.56798C23.5718 4.32871 23.6356 4.05822 23.6279 3.78481C23.6202 3.51141 23.5414 3.24517 23.3996 3.01396C23.2579 2.78276 23.0584 2.5951 22.8222 2.47065C22.5859 2.34621 22.3215 2.28955 22.0567 2.3066V2.30348ZM8.46956 2.34091C8.27439 2.37054 8.08678 2.43942 7.91739 2.54365C7.75066 2.641 7.60431 2.77145 7.48678 2.92746C7.36925 3.08347 7.28288 3.26195 7.23266 3.45258C7.18245 3.6432 7.16937 3.8422 7.1942 4.03807C7.21903 4.23393 7.28127 4.42279 7.37732 4.59371C7.50942 4.83032 7.70127 5.02559 7.93244 5.15876C8.16362 5.29194 8.42548 5.35803 8.69018 5.35001C8.95489 5.34198 9.21253 5.26015 9.43572 5.11321C9.65891 4.96627 9.8393 4.75972 9.95769 4.51552C10.0761 4.27132 10.1281 3.9986 10.1081 3.72637C10.0882 3.45414 9.997 3.19258 9.84434 2.9695C9.69168 2.74642 9.48323 2.57017 9.24115 2.45948C8.99907 2.3488 8.73242 2.30782 8.46956 2.34091ZM12.3355 3.99873L13.7961 6.21332L13.784 8.03489H17.0857V6.21332L18.5228 3.99873L18.7051 6.66871L17.8088 8.22828L20.6831 9.93601L21.5666 8.36708L23.8865 7.20286L22.7443 9.59134L21.2096 10.4897L22.8653 13.438L24.3872 12.5272L26.9771 12.7042L24.832 14.2069L23.0643 14.1819V17.5982H24.832L27.2252 19.256L24.1693 19.4837L22.646 18.5628L20.9887 21.5259L22.5234 22.4242L23.6648 24.8283L21.32 23.6516L20.4607 22.0702L17.5864 23.7787L18.4706 25.3477L18.2989 28.0044L16.8504 25.7906L16.8625 23.9807H13.551V25.7906L12.0163 28.1416L11.8219 25.3071L12.7175 23.7382L9.85528 22.0297L8.97105 23.6119L6.56571 24.826L7.92722 22.2706L9.51263 21.4589L7.99983 18.4224L6.4288 19.2443L4.06051 18.9534L6.03623 17.5872L7.80393 17.5997V14.185H6.03925L3.89108 12.7035L6.48099 12.514L7.99378 13.4372L9.65105 10.4889L8.12918 9.57809L6.98475 7.18883L9.31672 8.35304L10.1881 9.93445L13.048 8.22672L12.1638 6.65779L12.3355 4.00029V3.99873ZM27.2237 7.39001C26.8958 7.36367 26.5688 7.45125 26.2948 7.63878C26.0207 7.82631 25.8155 8.103 25.7118 8.42475C25.608 8.74651 25.6117 9.0948 25.7223 9.41413C25.8329 9.73345 26.044 10.0054 26.3219 10.1867C26.5999 10.368 26.9287 10.4481 27.2559 10.4144C27.5832 10.3806 27.8901 10.2349 28.1277 10.0004C28.3652 9.76594 28.5199 9.45623 28.5669 9.12065C28.6139 8.78506 28.5506 8.44292 28.387 8.14874C28.2684 7.93357 28.1002 7.75181 27.8973 7.61949C27.6945 7.48717 27.4631 7.40836 27.2237 7.39001ZM3.60895 7.4407C3.36851 7.46232 3.13677 7.54389 2.93372 7.67838C2.73066 7.81286 2.56236 7.99623 2.44334 8.21268C2.34636 8.38276 2.28311 8.57099 2.25725 8.76646C2.23139 8.96193 2.24344 9.16075 2.29269 9.35138C2.34195 9.54202 2.42743 9.72067 2.54418 9.87698C2.66093 10.0333 2.80663 10.1641 2.97281 10.262C3.13984 10.3671 3.32557 10.4369 3.5191 10.467C3.71263 10.4972 3.91005 10.4871 4.09977 10.4375C4.28949 10.3879 4.46767 10.2997 4.62386 10.1781C4.78005 10.0565 4.91108 9.90392 5.00927 9.72937C5.10746 9.55482 5.17083 9.3618 5.19564 9.16165C5.22046 8.9615 5.20622 8.75826 5.15377 8.56386C5.10133 8.36947 5.01172 8.18783 4.89022 8.02964C4.76873 7.87144 4.61779 7.73987 4.44628 7.64266C4.19488 7.49077 3.90496 7.4204 3.61424 7.4407H3.60895ZM28.9543 14.3488C28.7615 14.3477 28.5703 14.3858 28.3917 14.4609C28.2132 14.536 28.0507 14.6467 27.9137 14.7867C27.7767 14.9266 27.6678 15.093 27.5933 15.2764C27.5188 15.4598 27.48 15.6565 27.4793 15.8553C27.4793 16.2564 27.6339 16.6409 27.9089 16.9245C28.184 17.208 28.557 17.3673 28.946 17.3673C29.335 17.3673 29.708 17.208 29.9831 16.9245C30.2581 16.6409 30.4127 16.2564 30.4127 15.8553C30.4133 15.6576 30.376 15.4617 30.3029 15.2788C30.2299 15.096 30.1225 14.9298 29.987 14.7898C29.8515 14.6498 29.6906 14.5388 29.5133 14.4631C29.3361 14.3874 29.1461 14.3486 28.9543 14.3488ZM1.9131 14.4127C1.62354 14.414 1.34082 14.5035 1.10056 14.6702C0.860297 14.8368 0.673253 15.073 0.562996 15.349C0.452739 15.625 0.424205 15.9285 0.480989 16.2212C0.537773 16.514 0.677334 16.7828 0.882084 16.9939C1.08683 17.205 1.34761 17.3488 1.63155 17.4074C1.91549 17.4659 2.20988 17.4365 2.47763 17.3228C2.74538 17.2092 2.9745 17.0163 3.13611 16.7687C3.29773 16.521 3.38461 16.2295 3.38581 15.931C3.38661 15.7314 3.34906 15.5336 3.27534 15.349C3.20161 15.1644 3.09316 14.9967 2.95625 14.8556C2.81933 14.7144 2.65667 14.6026 2.47763 14.5266C2.29859 14.4506 2.10672 14.4119 1.9131 14.4127ZM3.41077 21.2203C3.21755 21.2353 3.02937 21.2911 2.85784 21.384C2.68692 21.4754 2.53514 21.6006 2.41119 21.7525C2.28723 21.9043 2.19353 22.0799 2.13543 22.2691C2.07734 22.4584 2.05599 22.6576 2.07261 22.8553C2.08923 23.053 2.1435 23.2455 2.2323 23.4216C2.31748 23.5979 2.4358 23.755 2.58039 23.8837C2.72497 24.0124 2.89293 24.1103 3.07451 24.1715C3.25609 24.2327 3.44766 24.2562 3.6381 24.2404C3.82853 24.2246 4.01403 24.17 4.18381 24.0797C4.48827 23.9227 4.73027 23.6614 4.86833 23.3407C5.0064 23.0199 5.03192 22.6596 4.94053 22.3215C4.84914 21.9835 4.64652 21.6887 4.36742 21.4878C4.08831 21.2868 3.7501 21.1923 3.41077 21.2203ZM26.8288 21.5322C26.4764 21.5549 26.1436 21.7074 25.8911 21.9619C25.6386 22.2164 25.4832 22.556 25.4533 22.9188C25.4233 23.2815 25.5209 23.6433 25.728 23.9381C25.9352 24.233 26.2383 24.4412 26.5819 24.525C26.9256 24.6087 27.287 24.5624 27.6003 24.3944C27.9136 24.2263 28.1579 23.9479 28.2887 23.6097C28.4195 23.2715 28.428 22.8961 28.3128 22.552C28.1975 22.2079 27.9662 21.9179 27.6609 21.7349C27.4093 21.5859 27.1206 21.5169 26.8311 21.5368L26.8288 21.5322ZM8.27289 26.6483C7.95803 26.6693 7.65814 26.7945 7.41788 27.0053C7.17762 27.2162 7.00985 27.5014 6.93954 27.8185C6.86924 28.1356 6.90015 28.4676 7.02769 28.7651C7.15524 29.0626 7.37257 29.3097 7.64735 29.4696C7.81315 29.5686 7.99634 29.6328 8.18633 29.6584C8.37632 29.684 8.56935 29.6705 8.75426 29.6187C8.93917 29.5669 9.1123 29.4779 9.26363 29.3567C9.41496 29.2356 9.54149 29.0847 9.63592 28.9128C9.83173 28.5651 9.88595 28.1515 9.78672 27.7626C9.68749 27.3738 9.4429 27.0412 9.10645 26.8378C8.85394 26.6897 8.56393 26.6237 8.27441 26.6483H8.27289ZM21.8124 26.6483C21.6179 26.6727 21.4301 26.7372 21.2602 26.8378C20.9217 27.0425 20.6752 27.3766 20.5741 27.7676C20.4729 28.1585 20.5255 28.5748 20.7202 28.9261C20.9192 29.2712 21.2428 29.5209 21.6201 29.6205C21.9974 29.72 22.3976 29.6613 22.733 29.4571C22.8992 29.3592 23.0449 29.2283 23.1616 29.0719C23.2784 28.9155 23.3639 28.7368 23.4131 28.5461C23.4624 28.3554 23.4744 28.1565 23.4486 27.961C23.4227 27.7655 23.3594 27.5772 23.2624 27.4071C23.1191 27.148 22.9051 26.9381 22.6471 26.8032C22.3891 26.6683 22.0983 26.6145 21.8109 26.6483H21.8124ZM15.2461 28.5198C14.8544 28.5233 14.4798 28.6862 14.204 28.973C13.9282 29.2599 13.7734 29.6474 13.7734 30.0513C13.7734 30.4523 13.9279 30.8369 14.203 31.1205C14.478 31.404 14.8511 31.5633 15.2401 31.5633C15.6291 31.5633 16.0021 31.404 16.2772 31.1205C16.5522 30.8369 16.7067 30.4523 16.7067 30.0513C16.7087 29.6487 16.5561 29.2617 16.2821 28.9749C16.0081 28.688 15.6351 28.5247 15.2446 28.5206L15.2461 28.5198Z" fill="#246EB9"/>
<path d="M51.2458 11.9353C51.1205 11.7539 50.9614 11.6001 50.7776 11.483C50.5916 11.3456 50.3879 11.2356 50.1725 11.1563C49.9531 11.071 49.7245 11.0134 49.4917 10.9848C48.7607 10.854 48.0091 10.9294 47.3163 11.2031C46.8448 11.3926 46.4249 11.6971 46.0924 12.0905C45.6996 12.5272 45.4578 12.995 45.3671 13.4941C45.2732 14.018 45.2276 14.5498 45.2309 15.0825V15.4724C45.2261 16.0025 45.2871 16.5311 45.4124 17.0452C45.5335 17.5131 45.7856 17.9701 46.1688 18.4161C46.3521 18.6258 46.5663 18.8045 46.8035 18.9456C47.0536 19.0905 47.3165 19.2106 47.5886 19.3043C47.8612 19.3871 48.1393 19.4494 48.4206 19.4906C48.6962 19.532 48.9742 19.5529 49.2527 19.553C49.5631 19.5462 49.8714 19.4988 50.1702 19.4119C50.4795 19.3237 50.7827 19.2143 51.0779 19.0844V16.3271H48.8087V15.0194H52.3751V19.879C51.8772 20.1551 51.3562 20.3845 50.8184 20.5644C50.2801 20.7399 49.7189 20.829 49.1543 20.8288C48.7849 20.8282 48.4161 20.7969 48.0515 20.7352C47.6863 20.6831 47.3268 20.5946 46.9782 20.4708C46.6269 20.3365 46.2882 20.1698 45.9661 19.9725C45.6561 19.7772 45.3757 19.5357 45.1341 19.2559C44.6298 18.6841 44.2925 18.0922 44.122 17.4804C43.9451 16.8104 43.8588 16.1184 43.8656 15.4241V15.0646C43.8656 14.7007 43.8757 14.3526 43.8959 14.0205C43.9146 13.6953 43.9599 13.3724 44.0313 13.0551C44.1155 12.7246 44.2373 12.4055 44.3943 12.1045C44.5755 11.7641 44.799 11.4495 45.0592 11.1688C45.5268 10.6345 46.1161 10.2288 46.774 9.98819C47.4292 9.74684 48.1204 9.62545 48.8162 9.62949C49.4368 9.62655 50.0524 9.74291 50.6316 9.9726C51.2403 10.2079 51.7775 10.6056 52.1883 11.1251L51.2458 11.9353Z" fill="#246EB9"/>
<path d="M55.4084 13.5829C55.5761 13.2965 55.8031 13.0518 56.0733 12.8663C56.3534 12.6844 56.6795 12.5922 57.0104 12.6012C57.4033 12.6012 57.8211 12.7156 58.2638 12.9443L57.81 14.1919C57.5464 14.0394 57.2513 13.9538 56.9492 13.9424C56.701 13.9382 56.4578 14.0146 56.254 14.1608C56.0532 14.3067 55.8877 14.4986 55.7707 14.7214C55.6395 14.992 55.5477 15.281 55.4984 15.5792C55.4359 15.9232 55.4055 16.2726 55.4076 16.6225V20.6415H54.1089V14.723C54.1125 14.1881 53.9935 13.6599 53.7617 13.1813L54.9553 12.6043C55.0376 12.7543 55.1085 12.9108 55.1671 13.0722C55.24 13.2356 55.2909 13.4085 55.3184 13.5861L55.4084 13.5829Z" fill="#246EB9"/>
<path d="M65.0714 16.717V16.4051C65.0714 15.6471 64.88 15.0293 64.4973 14.5515C64.293 14.3004 64.0338 14.1029 63.7409 13.9753C63.0847 13.6907 62.346 13.6851 61.6858 13.9597C61.4009 14.0794 61.1473 14.2664 60.9453 14.5055C60.5418 14.9833 60.3401 15.6219 60.3401 16.4215V16.7802C60.3371 17.1893 60.3828 17.5974 60.4763 17.9951C60.558 18.3512 60.7191 18.6828 60.9468 18.9636C61.133 19.196 61.3717 19.3778 61.6419 19.493C61.9796 19.6263 62.3394 19.6899 62.7009 19.6802C63.0363 19.689 63.3702 19.6307 63.6842 19.5086C63.9469 19.4012 64.184 19.2366 64.3793 19.0259C64.6469 18.7455 64.8349 18.3949 64.9232 18.0122C65.026 17.5895 65.0768 17.1551 65.0744 16.7193L65.0714 16.717ZM65.3134 19.7075C64.98 20.0785 64.5729 20.3711 64.1199 20.5652C63.6609 20.7445 63.1735 20.8342 62.6827 20.8296C62.1964 20.8308 61.7145 20.7358 61.2629 20.5496C60.8064 20.3605 60.3939 20.0738 60.0527 19.7082C59.6806 19.3337 59.4185 18.8585 59.2963 18.3374C59.1843 17.8053 59.1285 17.2623 59.1299 16.7178V16.4215C59.1333 15.9319 59.1994 15.445 59.3266 14.9734C59.4476 14.5476 59.7045 14.1219 60.0973 13.6961C60.4281 13.3369 60.8301 13.0552 61.2758 12.8703C61.7235 12.691 62.2002 12.601 62.6804 12.6052C63.1561 12.6 63.6283 12.6901 64.0707 12.8703C64.5158 13.0422 64.9193 13.312 65.2529 13.661C65.5972 14.0152 65.865 14.4404 66.0388 14.9087C66.2048 15.3836 66.2865 15.8855 66.2801 16.3903V16.7178C66.2833 17.2529 66.2226 17.7864 66.0993 18.3062C65.9614 18.8371 65.6903 19.3211 65.3134 19.7098V19.7075Z" fill="#246EB9"/>
<path d="M70.6367 20.8286C69.67 20.8286 68.9701 20.5898 68.537 20.112C68.1144 19.6348 67.9028 18.9184 67.9023 17.9629V12.8538L69.2018 12.6042V17.9629C69.2018 18.5758 69.3176 19.0177 69.549 19.2886C69.781 19.5485 70.1435 19.6785 70.6367 19.6785C70.9297 19.6785 71.2623 19.5851 71.6344 19.3985C72.0171 19.2015 72.4049 18.8794 72.7977 18.4324V12.8538L74.0972 12.6042V18.8503C74.0902 19.1758 74.1258 19.5008 74.2031 19.8165C74.288 20.102 74.3992 20.3786 74.5352 20.6423H73.1449C73.0633 20.5127 73.0023 20.3706 72.9641 20.2212C72.9178 20.0586 72.8874 19.8917 72.8734 19.7229C72.6776 19.934 72.4597 20.1221 72.2236 20.2836C72.0034 20.4391 71.7647 20.5649 71.5134 20.6579C71.235 20.773 70.9374 20.831 70.6375 20.8286H70.6367Z" fill="#246EB9"/>
<path d="M79.6559 12.6043C80.2908 12.6043 80.8346 12.7395 81.2875 13.0098C81.7543 13.2828 82.1406 13.6811 82.4054 14.1623C82.5865 14.4833 82.7047 14.8378 82.7534 15.2057C82.8156 15.6022 82.8459 16.0033 82.8441 16.405V17.4039C82.8474 17.8686 82.7811 18.331 82.6475 18.7748C82.5245 19.1759 82.324 19.5473 82.0582 19.8665C81.7964 20.175 81.4714 20.4198 81.1067 20.5831C80.6946 20.7568 80.2523 20.8415 79.8072 20.8318C79.5442 20.8333 79.2831 20.786 79.0364 20.6923C78.8067 20.614 78.5842 20.5149 78.3715 20.3959C78.1979 20.2938 78.0314 20.1794 77.8731 20.0536C77.742 19.9387 77.6461 19.8504 77.5856 19.7885V23.6671H76.2869V14.723C76.2902 14.1881 76.171 13.6599 75.939 13.1814L77.1326 12.6043C77.2113 12.7456 77.282 12.8914 77.3443 13.041C77.408 13.1972 77.4586 13.3587 77.4956 13.5237H77.5856C77.839 13.2482 78.1419 13.026 78.4774 12.8695C78.8462 12.6916 79.2488 12.601 79.6559 12.6043ZM79.6256 13.7576C79.1421 13.7576 78.7291 13.8562 78.3867 14.0532C78.0852 14.2157 77.814 14.4319 77.5856 14.6918V18.4457C77.979 18.8928 78.3718 19.2096 78.7641 19.3963C79.1675 19.5829 79.5152 19.6762 79.8072 19.6762C80.0937 19.6865 80.3786 19.6278 80.6392 19.5047C80.8537 19.3873 81.0359 19.2159 81.1687 19.0064C81.3125 18.7912 81.4102 18.5469 81.4554 18.2897C81.5176 17.9931 81.548 17.6903 81.5461 17.3868V16.405C81.5475 16.1074 81.5222 15.8104 81.4705 15.5176C81.4452 15.2807 81.3839 15.0494 81.289 14.8322C81.1428 14.5032 80.8995 14.2302 80.5938 14.0524C80.3032 13.8649 79.9684 13.763 79.6256 13.7576Z" fill="#246EB9"/>
<path d="M85.457 17.0592C85.457 17.9731 85.6587 18.6377 86.0621 19.0531C86.4751 19.469 87.0946 19.6769 87.9206 19.6769C88.2782 19.6882 88.6324 19.6024 88.9478 19.4282C89.2415 19.2407 89.4982 18.9975 89.7042 18.7115L90.8524 19.1942C90.5599 19.703 90.1362 20.1182 89.6285 20.3935C89.0791 20.6907 88.466 20.8406 87.8457 20.8294C87.171 20.8294 86.5969 20.7361 86.1234 20.5495C85.6894 20.3738 85.3009 20.0964 84.9888 19.7393C84.6893 19.3723 84.4726 18.9414 84.3542 18.4776C84.2183 17.9387 84.1522 17.3836 84.1575 16.8268V16.6553C84.1575 16.3953 84.1626 16.1461 84.1727 15.9074C84.1822 15.6611 84.2126 15.4161 84.2634 15.1752C84.3151 14.9318 84.3961 14.696 84.5047 14.4734C84.627 14.2172 84.785 13.9807 84.9737 13.7716C85.3073 13.3831 85.7272 13.0837 86.1975 12.899C87.1474 12.5092 88.2051 12.5036 89.1588 12.8834C89.5778 13.0539 89.954 13.3196 90.2594 13.6609C90.566 14.0006 90.7981 14.4043 90.9401 14.8446C91.096 15.3317 91.1727 15.8421 91.167 16.355V17.0568L85.457 17.0592ZM85.457 15.9675H89.8691V15.8271C89.8685 15.5651 89.817 15.3058 89.7178 15.0645C89.6185 14.8168 89.4692 14.5938 89.2798 14.4103C89.0808 14.2079 88.8444 14.0489 88.5847 13.9424C88.2934 13.8143 87.9793 13.7508 87.6627 13.756C87.3577 13.7527 87.055 13.8107 86.7716 13.9268C86.5085 14.0354 86.2675 14.1941 86.0614 14.3947C85.8702 14.5802 85.7161 14.8024 85.6075 15.0489C85.5067 15.2957 85.4553 15.5609 85.4563 15.8287L85.457 15.9675Z" fill="#246EB9"/>
<path d="M99.5334 16.2031H103.16L101.722 12.4024L101.303 10.8288L100.895 12.4024L99.5334 16.2031ZM99.14 17.3728L97.9744 20.6424H96.5244L100.437 9.81665H102.135L106.245 20.6424H104.824L103.601 17.3712L99.14 17.3728Z" fill="#246EB9"/>
<path d="M107.401 20.6424V9.81662H112.251C112.707 9.80696 113.16 9.89706 113.581 10.081C113.947 10.2353 114.273 10.4757 114.533 10.7828C114.793 11.0891 114.984 11.451 115.092 11.8425C115.225 12.2756 115.291 12.7278 115.288 13.1822C115.292 13.6403 115.231 14.0967 115.107 14.5367C115.004 14.9269 114.818 15.2888 114.563 15.5964C114.309 15.9068 113.988 16.1521 113.626 16.313C113.188 16.4893 112.721 16.5739 112.251 16.5618H108.761V20.6431L107.401 20.6424ZM108.762 11.0939V15.2681H112.015C112.7 15.2681 113.188 15.076 113.48 14.6918C113.783 14.2973 113.934 13.7938 113.934 13.1814C113.934 12.5784 113.768 12.0798 113.435 11.6858C113.113 11.2912 112.639 11.0939 112.015 11.0939H108.762Z" fill="#246EB9"/>
<path d="M116.727 20.6424V9.81665H123.844L123.451 11.0939H118.087V14.256H123.073V15.5488H118.087V20.6424H116.727Z" fill="#246EB9"/>
<path d="M43.6079 2.86499H124.996V3.73133H43.6079V2.86499Z" fill="#246EB9"/>
<path d="M44.02 28.4177H124.59V29.2755H44.02V28.4177Z" fill="#246EB9"/>
</g>
<defs>
<clipPath id="clip0_809:1118">
<rect width="125" height="32" fill="white"/>
</clipPath>
</defs>
</svg>
