<svg width="404" height="476" viewBox="0 0 404 476" fill="none" xmlns="http://www.w3.org/2000/svg">
<g filter="url(#filter0_d_989_6755)">
<rect x="20" y="15" width="364" height="435.456" rx="6.10738" fill="white"/>
<path d="M20 21.1074C20 17.7344 22.7344 15 26.1074 15H377.893C381.266 15 384 17.7344 384 21.1074V148.141H20V21.1074Z" fill="#F0F8FF"/>
<mask id="mask0_989_6755" style="mask-type:alpha" maskUnits="userSpaceOnUse" x="20" y="15" width="364" height="134">
<path d="M20 21.1074C20 17.7344 22.7344 15 26.1074 15H377.893C381.266 15 384 17.7344 384 21.1074V148.141H20V21.1074Z" fill="white"/>
</mask>
<g mask="url(#mask0_989_6755)">
<g clip-path="url(#clip0_989_6755)">
<path opacity="0.1" d="M201.374 136.909C227.98 136.909 249.548 134.734 249.548 132.051C249.548 129.368 227.98 127.193 201.374 127.193C174.768 127.193 153.2 129.368 153.2 132.051C153.2 134.734 174.768 136.909 201.374 136.909Z" fill="url(#paint0_linear_989_6755)"/>
<path d="M157.304 131.524C157.304 131.524 155.167 119.414 147.233 113.413C143.905 110.894 141.469 107.47 140.405 103.569C139.905 101.721 139.584 99.8291 139.448 97.9193" stroke="#535461" stroke-width="1.22148" stroke-miterlimit="10"/>
<path d="M134.474 94.1089C135.137 95.4063 139.565 98.0324 139.565 98.0324C139.565 98.0324 140.122 93.1264 139.454 91.8274C138.787 90.5284 137.135 89.9866 135.756 90.6162C134.378 91.2458 133.806 92.8099 134.474 94.1089Z" fill="url(#paint1_linear_989_6755)"/>
<path d="M134.051 103.187C135.36 103.935 140.586 103.868 140.586 103.868C140.586 103.868 138.228 99.4643 136.924 98.717C135.62 97.9698 133.915 98.3641 133.123 99.5985C132.331 100.833 132.744 102.44 134.051 103.187Z" fill="url(#paint2_linear_989_6755)"/>
<path d="M140.548 115.401C142.076 115.423 146.551 112.874 146.551 112.874C146.551 112.874 142.162 110.197 140.632 110.174C139.103 110.15 137.846 111.304 137.816 112.747C137.786 114.19 139.019 115.375 140.548 115.401Z" fill="url(#paint3_linear_989_6755)"/>
<path d="M147.666 123.592C149.167 123.858 154.035 122.059 154.035 122.059C154.035 122.059 150.188 118.715 148.688 118.454C147.189 118.192 145.739 119.116 145.457 120.541C145.176 121.966 146.163 123.326 147.666 123.592Z" fill="url(#paint4_linear_989_6755)"/>
<path d="M145.944 101.724C145.422 103.081 141.305 106.123 141.305 106.123C141.305 106.123 140.215 101.298 140.737 99.941C141.259 98.584 142.848 97.8832 144.284 98.3753C145.721 98.8674 146.466 100.369 145.944 101.724Z" fill="url(#paint5_linear_989_6755)"/>
<path d="M154.141 111.407C153.213 112.555 148.322 114.295 148.322 114.295C148.322 114.295 148.819 109.382 149.74 108.235C150.206 107.679 150.864 107.319 151.583 107.227C152.303 107.135 153.03 107.317 153.621 107.738C153.908 107.936 154.15 108.191 154.333 108.487C154.517 108.783 154.636 109.114 154.685 109.458C154.734 109.803 154.711 110.154 154.617 110.49C154.524 110.825 154.362 111.137 154.141 111.407Z" fill="url(#paint6_linear_989_6755)"/>
<path d="M160.739 121.851C160.03 123.13 155.521 125.625 155.521 125.625C155.521 125.625 155.125 120.706 155.834 119.427C156.544 118.147 158.215 117.654 159.571 118.323C160.926 118.992 161.446 120.571 160.739 121.851Z" fill="url(#paint7_linear_989_6755)"/>
<path opacity="0.25" d="M134.474 94.1089C135.137 95.4063 139.565 98.0324 139.565 98.0324C139.565 98.0324 140.122 93.1264 139.454 91.8274C138.787 90.5284 137.135 89.9866 135.756 90.6162C134.378 91.2458 133.806 92.8099 134.474 94.1089Z" fill="black"/>
<path opacity="0.25" d="M134.051 103.187C135.36 103.935 140.586 103.868 140.586 103.868C140.586 103.868 138.228 99.4643 136.924 98.717C135.62 97.9698 133.915 98.3641 133.123 99.5985C132.331 100.833 132.744 102.44 134.051 103.187Z" fill="black"/>
<path opacity="0.25" d="M140.548 115.401C142.076 115.423 146.551 112.874 146.551 112.874C146.551 112.874 142.162 110.197 140.632 110.174C139.103 110.15 137.846 111.304 137.816 112.747C137.786 114.19 139.019 115.375 140.548 115.401Z" fill="black"/>
<path opacity="0.25" d="M147.666 123.592C149.167 123.858 154.035 122.059 154.035 122.059C154.035 122.059 150.188 118.715 148.688 118.454C147.189 118.192 145.739 119.116 145.457 120.541C145.176 121.966 146.163 123.326 147.666 123.592Z" fill="black"/>
<path opacity="0.25" d="M145.944 101.724C145.422 103.081 141.305 106.123 141.305 106.123C141.305 106.123 140.215 101.298 140.737 99.941C141.259 98.584 142.848 97.8832 144.284 98.3753C145.721 98.8674 146.466 100.369 145.944 101.724Z" fill="black"/>
<path opacity="0.25" d="M154.141 111.407C153.213 112.555 148.322 114.295 148.322 114.295C148.322 114.295 148.819 109.382 149.74 108.235C150.206 107.679 150.864 107.319 151.583 107.227C152.303 107.135 153.03 107.317 153.621 107.738C153.908 107.936 154.15 108.191 154.333 108.487C154.517 108.783 154.636 109.114 154.685 109.458C154.734 109.803 154.711 110.154 154.617 110.49C154.524 110.825 154.362 111.137 154.141 111.407Z" fill="black"/>
<path opacity="0.25" d="M160.739 121.851C160.03 123.13 155.521 125.625 155.521 125.625C155.521 125.625 155.125 120.706 155.834 119.427C156.544 118.147 158.215 117.654 159.571 118.323C160.926 118.992 161.446 120.571 160.739 121.851Z" fill="black"/>
<path d="M157.036 131.207C157.036 131.207 160.278 119.317 155.602 110.794C153.641 107.218 152.883 103.156 153.586 99.1823C153.923 97.2932 154.442 95.4411 155.135 93.6516" stroke="#535461" stroke-width="1.22148" stroke-miterlimit="10"/>
<path d="M152.222 88.2652C152.275 89.7067 155.193 93.8008 155.193 93.8008C155.193 93.8008 157.808 89.5277 157.755 88.0846C157.702 86.6414 156.421 85.5131 154.893 85.5628C153.366 85.6125 152.168 86.822 152.222 88.2652Z" fill="url(#paint8_linear_989_6755)"/>
<path d="M147.941 96.4036C148.816 97.5866 153.621 99.5252 153.621 99.5252C153.621 99.5252 153.356 94.5976 152.481 93.4129C152.038 92.8391 151.396 92.4535 150.681 92.3334C149.966 92.2133 149.233 92.3675 148.627 92.7651C148.333 92.95 148.08 93.1937 147.884 93.481C147.688 93.7683 147.554 94.0929 147.489 94.4345C147.425 94.7762 147.432 95.1274 147.51 95.4663C147.587 95.8051 147.734 96.1242 147.941 96.4036Z" fill="url(#paint9_linear_989_6755)"/>
<path d="M148.637 110.052C150.025 110.656 155.211 110.04 155.211 110.04C155.211 110.04 152.347 105.911 150.958 105.306C149.57 104.701 147.926 105.273 147.285 106.584C146.644 107.894 147.25 109.447 148.637 110.052Z" fill="url(#paint10_linear_989_6755)"/>
<path d="M151.627 120.266C152.888 121.085 158.109 121.302 158.109 121.302C158.109 121.302 156.025 116.777 154.766 115.96C154.159 115.565 153.425 115.414 152.711 115.536C151.997 115.659 151.356 116.047 150.917 116.623C150.71 116.904 150.564 117.225 150.488 117.565C150.411 117.906 150.406 118.258 150.473 118.601C150.54 118.943 150.677 119.268 150.876 119.555C151.074 119.841 151.33 120.084 151.627 120.266Z" fill="url(#paint11_linear_989_6755)"/>
<path d="M159.441 99.6164C158.381 100.657 153.311 101.865 153.311 101.865C153.311 101.865 154.386 97.0349 155.445 95.9944C155.969 95.4923 156.663 95.2059 157.388 95.1924C158.114 95.1789 158.818 95.4392 159.36 95.9215C159.621 96.1511 159.831 96.4322 159.977 96.7471C160.124 97.062 160.203 97.4039 160.211 97.7511C160.219 98.0984 160.154 98.4434 160.022 98.7644C159.889 99.0855 159.692 99.3756 159.441 99.6164Z" fill="url(#paint12_linear_989_6755)"/>
<path d="M162.772 111.604C161.431 112.298 156.214 112.018 156.214 112.018C156.214 112.018 158.77 107.71 160.111 107.021C161.451 106.332 163.135 106.791 163.869 108.056C164.603 109.322 164.119 110.91 162.772 111.604Z" fill="url(#paint13_linear_989_6755)"/>
<path d="M164.328 123.676C163.13 124.574 157.937 125.131 157.937 125.131C157.937 125.131 159.687 120.48 160.885 119.582C161.467 119.15 162.191 118.953 162.912 119.032C163.633 119.11 164.297 119.457 164.773 120.004C164.998 120.269 165.166 120.577 165.266 120.91C165.366 121.243 165.396 121.593 165.354 121.938C165.312 122.283 165.2 122.615 165.023 122.914C164.846 123.213 164.609 123.473 164.328 123.676Z" fill="url(#paint14_linear_989_6755)"/>
<g opacity="0.1">
<path opacity="0.1" d="M265.883 36.0944C266.062 35.6338 265.592 35.1831 265.531 34.6893C265.468 34.8286 265.441 34.9812 265.453 35.1334C265.484 35.5045 265.757 35.8508 265.83 36.1954C265.851 36.1633 265.869 36.1295 265.883 36.0944Z" fill="black"/>
</g>
<path d="M243.434 54.8633C243.467 54.8633 243.493 54.8367 243.493 54.804C243.493 54.7713 243.467 54.7447 243.434 54.7447C243.401 54.7447 243.375 54.7713 243.375 54.804C243.375 54.8367 243.401 54.8633 243.434 54.8633Z" fill="#E6E8EC"/>
<path d="M211.995 34.6432L168.665 62.754L196.942 113.753C197.074 113.992 197.254 114.2 197.471 114.366C197.688 114.531 197.936 114.65 198.201 114.714L223.822 120.964C224.261 121.07 224.723 121.023 225.131 120.829C225.539 120.636 225.869 120.309 226.065 119.902L238.773 93.4993L252.701 74.8808L219.65 35.7782C218.73 34.6906 217.445 33.9754 216.036 33.7665C214.627 33.5576 213.19 33.8693 211.995 34.6432Z" fill="#DCDFED"/>
<path opacity="0.1" d="M253.142 75.1009L253.019 75.2666L244.861 86.174L244.713 86.3711L239.214 93.7227L228.345 116.308L228.04 116.939L226.506 120.125C226.31 120.533 225.979 120.861 225.57 121.054C225.161 121.247 224.699 121.294 224.259 121.187L198.639 114.934C198.374 114.87 198.125 114.751 197.908 114.586C197.691 114.42 197.511 114.212 197.379 113.973L194.915 109.538L194.473 108.739L176.69 76.6518L176.537 76.3784L169.104 62.9742L170.002 62.3909L176.811 57.9753L176.968 57.8726L191.305 48.5708L192.21 47.9843L212.432 34.8634C213.628 34.0879 215.065 33.7752 216.475 33.9839C217.885 34.1925 219.17 34.9082 220.09 35.9967L235.168 53.8414L235.831 54.6367L246.774 67.5836L246.834 67.6549L252.337 74.1631L253.029 74.9833L253.142 75.1009Z" fill="black"/>
<path opacity="0.1" d="M246.41 67.4347L245.074 76.7133L244.672 79.5134L244.442 85.4782L244.423 85.9438L243.225 117.11C243.214 117.399 243.139 117.682 243.006 117.939C242.873 118.196 242.685 118.421 242.456 118.597C242.227 118.774 241.962 118.898 241.679 118.961C241.397 119.024 241.104 119.023 240.821 118.961L227.907 116.078L227.768 116.046L194.649 108.655L194.041 108.519L175.833 104.453L176.251 76.4316L176.264 75.4955L176.39 67.0139L176.529 57.6524L190.866 48.3506L191.771 47.7641C205.069 49.1277 222.755 51.7506 234.735 53.6212L235.398 54.4165L246.334 67.3635L246.41 67.4347Z" fill="black"/>
<path d="M247.923 56.4325L246.35 67.3679L244.909 77.3822L244.506 80.1757L244.276 86.1405L243.06 117.772C243.048 118.061 242.973 118.344 242.84 118.601C242.707 118.859 242.52 119.083 242.29 119.26C242.061 119.436 241.796 119.56 241.513 119.623C241.231 119.686 240.938 119.686 240.656 119.623L227.603 116.708L194.483 109.317L175.667 105.115L176.098 76.1577L176.224 67.6761L176.372 57.7547L176.522 47.5499C179.634 47.4024 184.754 47.7354 190.866 48.3501C204.552 49.7237 223.209 52.5023 235.407 54.416C242.876 55.5874 247.923 56.4325 247.923 56.4325Z" fill="url(#paint15_linear_989_6755)"/>
<path opacity="0.1" d="M251.912 73.9429L244.909 77.3776L209.165 94.9075L176.224 67.6832L169.565 62.1707L168.667 62.7539L176.1 76.1582L175.669 105.116L194.485 109.318L196.943 113.753C197.075 113.992 197.255 114.2 197.472 114.366C197.689 114.531 197.938 114.65 198.203 114.714L223.823 120.964C224.262 121.07 224.724 121.022 225.132 120.829C225.54 120.635 225.869 120.308 226.065 119.902L227.599 116.716L240.652 119.63C240.935 119.693 241.228 119.693 241.51 119.63C241.792 119.567 242.058 119.443 242.287 119.267C242.516 119.09 242.704 118.866 242.837 118.609C242.97 118.351 243.045 118.068 243.056 117.779L244.273 86.1475L252.579 75.0464L252.602 74.7664L251.912 73.9429Z" fill="black"/>
<path d="M168.665 62.7539L165.711 113.344C165.684 113.812 165.824 114.275 166.107 114.649C166.389 115.023 166.796 115.285 167.254 115.387L245.711 132.809C245.986 132.869 246.271 132.87 246.546 132.811C246.821 132.752 247.081 132.635 247.307 132.468C247.534 132.3 247.722 132.086 247.859 131.84C247.996 131.594 248.079 131.322 248.102 131.041L252.7 74.8807L209.165 96.233L168.665 62.7539Z" fill="#DCDFED"/>
<path opacity="0.1" d="M166.251 114.502L207.011 89.355C207.614 88.989 208.328 88.8481 209.025 88.9572C209.722 89.0664 210.359 89.4185 210.822 89.9514L247.303 132.499C247.436 132.651 247.5 132.542 247.303 132.499L166.251 114.502C166.019 114.45 166.049 114.623 166.251 114.502Z" fill="black"/>
<path d="M166.543 114.46L206.882 90.0925C207.519 89.7073 208.272 89.5596 209.008 89.6754C209.744 89.7912 210.416 90.1631 210.904 90.7254L247.056 132.302C247.116 132.371 247.153 132.457 247.161 132.548C247.169 132.64 247.148 132.731 247.101 132.81C247.054 132.888 246.984 132.95 246.9 132.987C246.816 133.023 246.723 133.032 246.634 133.013L166.674 115.257C166.589 115.239 166.511 115.195 166.451 115.132C166.391 115.069 166.351 114.989 166.337 114.903C166.323 114.817 166.335 114.729 166.372 114.65C166.408 114.571 166.468 114.505 166.543 114.46Z" fill="#E3E5F1"/>
<path d="M207.579 61L207.161 61.044L206.944 61.9553L206.317 61.2857L205.916 61.4594L206.752 62.746L206.351 64.4422L205.607 64.8947L204.872 65.338L203.243 64.8513L202.591 63.4574L202.249 63.718L202.5 64.6229L201.63 64.3618L201.373 64.7274L202.718 65.4056L203.178 67.0846L202.75 67.8721L202.324 68.6291L200.686 69.0553L199.451 68.1943L199.283 68.6028L199.935 69.2552L199.06 69.4815L199.008 69.9253L200.495 69.8208L201.707 71.0302V72.8132L200.629 73.8919L199 73.6919L199.025 74.1267L200.069 74.4574L199.284 75.2401L199.451 75.6577L200.821 74.6928L202.25 75.1452L202.642 75.9456L203.027 76.7283L202.409 78.6046L201.148 79.2479L201.398 79.5958L202.15 79.3696L201.931 80.0413L202.265 80.3367L202.892 79.1536L204.638 78.632L205.382 79.0844L206.119 79.5203L206.551 81.3279L205.766 82.5374L206.151 82.711L206.727 82.0849L206.927 82.9201L207.361 82.9807L207.262 81.5107L208.49 80.1882H210.202L211.37 81.4598L211.27 83L211.688 82.956L211.905 82.0447L212.532 82.7143L212.933 82.5406L212.097 81.254L212.509 79.5578L213.253 79.1053L213.988 78.6705L215.617 79.1573L216.269 80.5404L216.603 80.2799L216.352 79.375L217.221 79.636L217.479 79.2704L216.133 78.5923L215.675 76.9106L216.107 76.1365L216.525 75.3709L218.43 74.875L219.549 75.6577L219.725 75.2578L219.158 74.6837L219.794 74.5196L219.852 74.0757L218.64 74.1626L217.302 72.8224V71.0479L218.521 69.8213L220 69.9259L219.949 69.4911L219.073 69.2649L219.727 68.6119L219.551 68.1938L218.315 69.0633L216.686 68.6462L216.262 67.8721L215.835 67.1066L216.303 65.4104L217.632 64.7322L217.381 64.3752L216.512 64.6363L216.762 63.7319L216.42 63.4639L215.768 64.8577L214.147 65.3445L213.404 64.9011L212.669 64.4572L212.259 62.7418L213.087 61.4626L212.702 61.289L212.076 61.9676L211.858 61.0563L211.424 61.0027L211.533 62.5514L210.361 63.8102H208.657L207.479 62.5402L207.579 61ZM209.476 61.3136C209.211 61.3136 208.957 61.4231 208.77 61.6181C208.582 61.813 208.477 62.0774 208.477 62.3531C208.477 62.6288 208.582 62.8932 208.77 63.0881C208.957 63.283 209.211 63.3926 209.476 63.3926C209.607 63.3926 209.736 63.3657 209.858 63.3134C209.979 63.2612 210.089 63.1846 210.181 63.0881C210.274 62.9916 210.348 62.877 210.398 62.7509C210.448 62.6248 210.474 62.4896 210.474 62.3531C210.474 62.2166 210.448 62.0814 210.398 61.9553C210.348 61.8292 210.274 61.7146 210.181 61.6181C210.089 61.5215 209.979 61.445 209.858 61.3927C209.736 61.3405 209.607 61.3136 209.476 61.3136ZM214.012 62.5836C213.851 62.5949 213.694 62.6476 213.557 62.7371C213.42 62.8267 213.307 62.9502 213.227 63.0966C213.092 63.3343 213.053 63.618 213.119 63.8855C213.184 64.153 213.349 64.3823 213.578 64.5232C213.809 64.6612 214.084 64.6984 214.342 64.6267C214.6 64.555 214.821 64.3803 214.956 64.1404C215.043 63.9759 215.087 63.79 215.082 63.602C215.076 63.414 215.023 63.231 214.926 63.072C214.83 62.9131 214.694 62.7841 214.533 62.6985C214.372 62.613 214.192 62.574 214.012 62.5858V62.5836ZM204.763 62.6093C204.631 62.6297 204.503 62.6771 204.388 62.7487C204.274 62.8156 204.174 62.9053 204.094 63.0126C204.014 63.1198 203.956 63.2425 203.922 63.3736C203.887 63.5046 203.878 63.6414 203.895 63.7761C203.912 63.9108 203.955 64.0406 204.02 64.1581C204.11 64.3208 204.24 64.455 204.398 64.5466C204.555 64.6381 204.733 64.6836 204.914 64.678C205.094 64.6725 205.269 64.6163 205.421 64.5153C205.573 64.4142 205.696 64.2722 205.776 64.1043C205.857 63.9365 205.892 63.749 205.879 63.5618C205.865 63.3747 205.803 63.1948 205.699 63.0415C205.595 62.8881 205.453 62.7669 205.289 62.6909C205.124 62.6148 204.942 62.5866 204.763 62.6093ZM207.395 63.7491L208.389 65.2716L208.381 66.5239H210.628V65.2716L211.607 63.7491L211.731 65.5846L211.121 66.6568L213.077 67.8308L213.678 66.7522L215.258 65.9518L214.48 67.5939L213.435 68.2115L214.562 70.2384L215.598 69.6123L217.361 69.734L215.901 70.767L214.698 70.7498V73.0984H215.901L217.53 74.2382L215.45 74.3947L214.413 73.7616L213.285 75.7987L214.33 76.4163L215.107 78.0691L213.511 77.2601L212.926 76.1729L210.969 77.3475L211.571 78.4261L211.454 80.2525L210.468 78.7306L210.476 77.4863H208.222V78.7306L207.178 80.3469L207.045 78.3982L207.655 77.3196L205.707 76.145L205.105 77.2328L203.468 78.0674L204.394 76.3107L205.473 75.7526L204.444 73.6651L203.374 74.2301L201.762 74.0302L203.107 73.0909L204.31 73.0995V70.752H203.109L201.647 69.7334L203.41 69.6031L204.44 70.2379L205.568 68.2109L204.532 67.5848L203.753 65.9422L205.34 66.7426L205.933 67.8298L207.88 66.6557L207.278 65.5771L207.395 63.7501V63.7491ZM217.529 66.0805C217.306 66.0624 217.083 66.1226 216.897 66.2515C216.71 66.3805 216.571 66.5707 216.5 66.7919C216.429 67.0131 216.432 67.2525 216.507 67.4721C216.582 67.6916 216.726 67.8786 216.915 68.0032C217.105 68.1278 217.328 68.1829 217.551 68.1597C217.774 68.1365 217.983 68.0363 218.144 67.8751C218.306 67.7139 218.411 67.501 218.443 67.2703C218.475 67.0396 218.432 66.8044 218.321 66.6021C218.24 66.4542 218.126 66.3292 217.988 66.2383C217.85 66.1473 217.692 66.0931 217.529 66.0805ZM201.455 66.1154C201.291 66.1302 201.133 66.1863 200.995 66.2788C200.857 66.3712 200.743 66.4973 200.661 66.6461C200.595 66.763 200.552 66.8924 200.535 67.0268C200.517 67.1612 200.525 67.2979 200.559 67.4289C200.592 67.56 200.651 67.6828 200.73 67.7903C200.81 67.8977 200.909 67.9877 201.022 68.0549C201.136 68.1272 201.262 68.1752 201.394 68.1959C201.525 68.2166 201.66 68.2097 201.789 68.1756C201.918 68.1415 202.039 68.0809 202.146 67.9973C202.252 67.9137 202.341 67.8088 202.408 67.6888C202.475 67.5688 202.518 67.4361 202.535 67.2985C202.552 67.1609 202.542 67.0212 202.506 66.8875C202.471 66.7539 202.41 66.629 202.327 66.5202C202.244 66.4115 202.142 66.321 202.025 66.2542C201.854 66.1498 201.656 66.1014 201.459 66.1154H201.455ZM218.707 70.8646C218.576 70.8638 218.446 70.89 218.324 70.9416C218.203 70.9933 218.092 71.0694 217.999 71.1656C217.906 71.2618 217.831 71.3762 217.781 71.5023C217.73 71.6284 217.704 71.7636 217.703 71.9003C217.703 72.176 217.808 72.4404 217.996 72.6353C218.183 72.8302 218.437 72.9398 218.701 72.9398C218.966 72.9398 219.22 72.8302 219.407 72.6353C219.595 72.4404 219.7 72.176 219.7 71.9003C219.7 71.7643 219.675 71.6296 219.625 71.5039C219.575 71.3782 219.502 71.264 219.41 71.1677C219.318 71.0715 219.208 70.9952 219.088 70.9432C218.967 70.8911 218.838 70.8644 218.707 70.8646ZM200.301 70.9085C200.103 70.9094 199.911 70.9709 199.747 71.0855C199.584 71.2 199.457 71.3624 199.382 71.5522C199.307 71.7419 199.287 71.9506 199.326 72.1518C199.364 72.3531 199.459 72.5379 199.599 72.683C199.738 72.8281 199.916 72.927 200.109 72.9673C200.302 73.0075 200.503 72.9873 200.685 72.9092C200.867 72.831 201.023 72.6985 201.133 72.5282C201.243 72.3579 201.302 72.1575 201.303 71.9523C201.304 71.8151 201.278 71.6791 201.228 71.5522C201.178 71.4253 201.104 71.31 201.011 71.213C200.917 71.1159 200.807 71.0391 200.685 70.9868C200.563 70.9346 200.432 70.908 200.301 70.9085ZM201.32 75.5886C201.188 75.599 201.06 75.6373 200.944 75.7012C200.827 75.764 200.724 75.85 200.64 75.9545C200.555 76.0589 200.491 76.1796 200.452 76.3097C200.412 76.4398 200.398 76.5767 200.409 76.7126C200.42 76.8486 200.457 76.9809 200.518 77.102C200.576 77.2232 200.656 77.3311 200.755 77.4197C200.853 77.5082 200.968 77.5754 201.091 77.6175C201.215 77.6596 201.345 77.6757 201.475 77.6649C201.604 77.654 201.731 77.6165 201.846 77.5544C202.053 77.4465 202.218 77.2669 202.312 77.0463C202.406 76.8258 202.424 76.5781 202.361 76.3457C202.299 76.1133 202.161 75.9106 201.971 75.7725C201.781 75.6344 201.551 75.5693 201.32 75.5886ZM217.26 75.803C217.02 75.8186 216.794 75.9235 216.622 76.0985C216.45 76.2734 216.344 76.5069 216.324 76.7563C216.304 77.0057 216.37 77.2544 216.511 77.4571C216.652 77.6598 216.858 77.8029 217.092 77.8605C217.326 77.9181 217.572 77.8862 217.786 77.7707C217.999 77.6552 218.165 77.4638 218.254 77.2313C218.343 76.9988 218.349 76.7407 218.27 76.5041C218.192 76.2676 218.035 76.0682 217.827 75.9424C217.656 75.8399 217.459 75.7925 217.262 75.8062L217.26 75.803ZM204.63 79.3203C204.415 79.3347 204.211 79.4208 204.048 79.5657C203.884 79.7107 203.77 79.9067 203.722 80.1247C203.674 80.3427 203.695 80.571 203.782 80.7755C203.869 80.9801 204.017 81.1499 204.204 81.2599C204.317 81.3279 204.441 81.372 204.571 81.3896C204.7 81.4072 204.831 81.398 204.957 81.3624C205.083 81.3268 205.201 81.2656 205.304 81.1823C205.407 81.099 205.493 80.9953 205.557 80.8771C205.691 80.638 205.728 80.3537 205.66 80.0864C205.592 79.819 205.426 79.5904 205.197 79.4506C205.025 79.3487 204.828 79.3033 204.631 79.3203H204.63ZM213.846 79.3203C213.713 79.337 213.586 79.3813 213.47 79.4506C213.239 79.5913 213.072 79.821 213.003 80.0897C212.934 80.3585 212.97 80.6447 213.102 80.8862C213.238 81.1235 213.458 81.2952 213.715 81.3636C213.972 81.432 214.244 81.3916 214.472 81.2513C214.585 81.184 214.685 81.094 214.764 80.9865C214.844 80.879 214.902 80.7561 214.935 80.625C214.969 80.4939 214.977 80.3572 214.959 80.2227C214.942 80.0883 214.899 79.9589 214.833 79.8419C214.735 79.6638 214.59 79.5195 214.414 79.4268C214.238 79.334 214.04 79.297 213.845 79.3203H213.846ZM209.376 80.6069C209.11 80.6093 208.855 80.7213 208.667 80.9185C208.479 81.1157 208.374 81.3821 208.374 81.6598C208.374 81.9355 208.479 82.1999 208.666 82.3948C208.853 82.5897 209.107 82.6993 209.372 82.6993C209.637 82.6993 209.891 82.5897 210.078 82.3948C210.265 82.1999 210.37 81.9355 210.37 81.6598C210.372 81.383 210.268 81.117 210.081 80.9198C209.895 80.7226 209.641 80.6103 209.375 80.6074L209.376 80.6069Z" fill="white" fill-opacity="0.76"/>
</g>
</g>
<rect opacity="0.1" x="41.9866" y="345.409" width="318.805" height="61.0738" rx="6.10738" fill="url(#paint16_linear_989_6755)"/>
<g clip-path="url(#clip1_989_6755)">
<path d="M83.6697 378.969L75.9064 365.966C75.3195 364.978 74.2829 364.388 73.1337 364.388C71.9845 364.388 70.9479 364.978 70.361 365.966L62.5983 378.969C61.9989 379.978 61.9875 381.19 62.5675 382.21C63.1487 383.231 64.1959 383.84 65.3703 383.84H80.8971C82.0714 383.84 83.1187 383.231 83.6999 382.21C84.2799 381.19 84.2686 379.978 83.6697 378.969ZM73.1337 368.364C73.846 368.364 74.4234 368.941 74.4234 369.653V374.812C74.4234 375.524 73.846 376.102 73.1337 376.102C72.4214 376.102 71.8441 375.524 71.8441 374.812V369.653C71.844 368.941 72.4214 368.364 73.1337 368.364ZM73.1337 381.26C72.067 381.26 71.1992 380.393 71.1992 379.326C71.1992 378.259 72.067 377.391 73.1337 377.391C74.2005 377.391 75.0683 378.259 75.0683 379.326C75.0682 380.393 74.2005 381.26 73.1337 381.26Z" fill="url(#paint17_linear_989_6755)"/>
</g>
<rect x="103.671" y="363.121" width="232.081" height="10.9933" rx="2.44295" fill="#F3ECD9"/>
<rect x="103.671" y="379.611" width="238.188" height="10.9933" rx="2.44295" fill="#F3ECD9"/>
<rect x="41.3758" y="165.853" width="315.141" height="10.9933" rx="2.44295" fill="#F0F0F0"/>
<rect x="41.3758" y="182.343" width="295.597" height="10.9933" rx="2.44295" fill="#F0F0F0"/>
<rect x="41.3758" y="289.833" width="295.597" height="10.9933" rx="2.44295" fill="#F0F0F0"/>
<rect x="41.3758" y="214.712" width="309.644" height="10.9933" rx="2.44295" fill="#F0F0F0"/>
<rect x="41.3758" y="322.202" width="309.644" height="10.9933" rx="2.44295" fill="#F0F0F0"/>
<rect x="41.3758" y="417.476" width="309.644" height="10.9933" rx="2.44295" fill="#F0F0F0"/>
<rect x="41.3758" y="198.833" width="303.537" height="10.9933" rx="2.44295" fill="#F0F0F0"/>
<rect x="41.3758" y="306.323" width="303.537" height="10.9933" rx="2.44295" fill="#F0F0F0"/>
<path d="M131.154 245.859C131.154 244.847 131.975 244.027 132.987 244.027H270.403C271.415 244.027 272.235 244.847 272.235 245.859V270.899C272.235 271.911 271.415 272.731 270.403 272.731H132.987C131.975 272.731 131.154 271.911 131.154 270.899V245.859Z" fill="#5398DF"/>
<rect x="150.146" y="253.188" width="103.64" height="10.9933" rx="2.44295" fill="#6AACF0"/>
</g>
<defs>
<filter id="filter0_d_989_6755" x="0" y="0.170455" width="404" height="475.456" filterUnits="userSpaceOnUse" color-interpolation-filters="sRGB">
<feFlood flood-opacity="0" result="BackgroundImageFix"/>
<feColorMatrix in="SourceAlpha" type="matrix" values="0 0 0 0 0 0 0 0 0 0 0 0 0 0 0 0 0 0 127 0" result="hardAlpha"/>
<feOffset dy="5.17045"/>
<feGaussianBlur stdDeviation="10"/>
<feColorMatrix type="matrix" values="0 0 0 0 0.925 0 0 0 0 0.912153 0 0 0 0 0.905729 0 0 0 0.25 0"/>
<feBlend mode="normal" in2="BackgroundImageFix" result="effect1_dropShadow_989_6755"/>
<feBlend mode="normal" in="SourceGraphic" in2="effect1_dropShadow_989_6755" result="shape"/>
</filter>
<linearGradient id="paint0_linear_989_6755" x1="201.374" y1="127.193" x2="201.374" y2="136.909" gradientUnits="userSpaceOnUse">
<stop stop-color="#90C6FD"/>
<stop offset="1" stop-color="#5398DF"/>
</linearGradient>
<linearGradient id="paint1_linear_989_6755" x1="136.989" y1="90.3537" x2="136.989" y2="98.0324" gradientUnits="userSpaceOnUse">
<stop stop-color="#90C6FD"/>
<stop offset="1" stop-color="#5398DF"/>
</linearGradient>
<linearGradient id="paint2_linear_989_6755" x1="136.654" y1="98.3389" x2="136.654" y2="103.87" gradientUnits="userSpaceOnUse">
<stop stop-color="#90C6FD"/>
<stop offset="1" stop-color="#5398DF"/>
</linearGradient>
<linearGradient id="paint3_linear_989_6755" x1="142.183" y1="110.173" x2="142.183" y2="115.401" gradientUnits="userSpaceOnUse">
<stop stop-color="#90C6FD"/>
<stop offset="1" stop-color="#5398DF"/>
</linearGradient>
<linearGradient id="paint4_linear_989_6755" x1="149.722" y1="118.409" x2="149.722" y2="123.619" gradientUnits="userSpaceOnUse">
<stop stop-color="#90C6FD"/>
<stop offset="1" stop-color="#5398DF"/>
</linearGradient>
<linearGradient id="paint5_linear_989_6755" x1="143.353" y1="98.218" x2="143.353" y2="106.123" gradientUnits="userSpaceOnUse">
<stop stop-color="#90C6FD"/>
<stop offset="1" stop-color="#5398DF"/>
</linearGradient>
<linearGradient id="paint6_linear_989_6755" x1="151.516" y1="107.203" x2="151.516" y2="114.295" gradientUnits="userSpaceOnUse">
<stop stop-color="#90C6FD"/>
<stop offset="1" stop-color="#5398DF"/>
</linearGradient>
<linearGradient id="paint7_linear_989_6755" x1="158.233" y1="118.024" x2="158.233" y2="125.625" gradientUnits="userSpaceOnUse">
<stop stop-color="#90C6FD"/>
<stop offset="1" stop-color="#5398DF"/>
</linearGradient>
<linearGradient id="paint8_linear_989_6755" x1="154.988" y1="85.5612" x2="154.988" y2="93.8008" gradientUnits="userSpaceOnUse">
<stop stop-color="#90C6FD"/>
<stop offset="1" stop-color="#5398DF"/>
</linearGradient>
<linearGradient id="paint9_linear_989_6755" x1="150.533" y1="92.2936" x2="150.533" y2="99.5252" gradientUnits="userSpaceOnUse">
<stop stop-color="#90C6FD"/>
<stop offset="1" stop-color="#5398DF"/>
</linearGradient>
<linearGradient id="paint10_linear_989_6755" x1="151.12" y1="105.065" x2="151.12" y2="110.317" gradientUnits="userSpaceOnUse">
<stop stop-color="#90C6FD"/>
<stop offset="1" stop-color="#5398DF"/>
</linearGradient>
<linearGradient id="paint11_linear_989_6755" x1="154.268" y1="115.495" x2="154.268" y2="121.302" gradientUnits="userSpaceOnUse">
<stop stop-color="#90C6FD"/>
<stop offset="1" stop-color="#5398DF"/>
</linearGradient>
<linearGradient id="paint12_linear_989_6755" x1="156.761" y1="95.1919" x2="156.761" y2="101.865" gradientUnits="userSpaceOnUse">
<stop stop-color="#90C6FD"/>
<stop offset="1" stop-color="#5398DF"/>
</linearGradient>
<linearGradient id="paint13_linear_989_6755" x1="160.212" y1="106.701" x2="160.212" y2="112.074" gradientUnits="userSpaceOnUse">
<stop stop-color="#90C6FD"/>
<stop offset="1" stop-color="#5398DF"/>
</linearGradient>
<linearGradient id="paint14_linear_989_6755" x1="161.655" y1="119.015" x2="161.655" y2="125.131" gradientUnits="userSpaceOnUse">
<stop stop-color="#90C6FD"/>
<stop offset="1" stop-color="#5398DF"/>
</linearGradient>
<linearGradient id="paint15_linear_989_6755" x1="211.795" y1="47.5152" x2="211.795" y2="119.67" gradientUnits="userSpaceOnUse">
<stop stop-color="#90C6FD"/>
<stop offset="1" stop-color="#5398DF"/>
</linearGradient>
<linearGradient id="paint16_linear_989_6755" x1="201.389" y1="345.409" x2="201.389" y2="406.483" gradientUnits="userSpaceOnUse">
<stop stop-color="#FFD572"/>
<stop offset="1" stop-color="#FEBD38"/>
</linearGradient>
<linearGradient id="paint17_linear_989_6755" x1="73.1338" y1="364.388" x2="73.1338" y2="383.84" gradientUnits="userSpaceOnUse">
<stop stop-color="#FFD572"/>
<stop offset="1" stop-color="#FEBD38"/>
</linearGradient>
<clipPath id="clip0_989_6755">
<rect width="171.48" height="137.789" fill="white" transform="translate(129.225 -0.87915)"/>
</clipPath>
<clipPath id="clip1_989_6755">
<rect width="21.9866" height="21.9866" fill="white" transform="translate(62.1409 363.121)"/>
</clipPath>
</defs>
</svg>
