<svg width="63" height="62" viewBox="0 0 63 62" fill="none" xmlns="http://www.w3.org/2000/svg">
<g clip-path="url(#clip0_463_1435)">
<path d="M15.5 0V62H52.25L68 46.5V0H15.5Z" fill="#EFEEEE"/>
<path d="M52.25 46.5V62L68 46.5H52.25Z" fill="#ABABAB"/>
<path d="M36.5 62H52.25V46.5L36.5 62Z" fill="#DEDEDD"/>
<path d="M5 15.5V33.5833H47V15.5H5Z" fill="#4E95D0"/>
<path d="M14.8649 19.0288C15.6551 19.0288 16.2877 19.1554 16.7733 19.4086C17.2563 19.6617 17.6317 20.0208 17.8994 20.4936C18.1698 20.9637 18.3483 21.5269 18.4428 22.1908C18.5373 22.8521 18.5846 23.591 18.5846 24.4047C18.5846 25.3761 18.5268 26.2208 18.4061 26.939C18.2853 27.6546 18.0779 28.2487 17.7839 28.7137C17.4899 29.1813 17.0962 29.5249 16.6027 29.7522C16.1039 29.9821 15.4792 30.0958 14.7232 30.0958H11.1479V19.0288H14.8649ZM14.4239 28.4554C14.8229 28.4554 15.1432 28.3882 15.3847 28.2539C15.6262 28.1196 15.8178 27.8974 15.9596 27.5874C16.1039 27.2774 16.1984 26.8692 16.2431 26.3603C16.2903 25.8566 16.3139 25.2262 16.3139 24.4719C16.3139 23.8416 16.2903 23.2887 16.2509 22.8108C16.2089 22.3355 16.1223 21.9402 15.9911 21.6251C15.8572 21.3099 15.6656 21.0722 15.4057 20.9146C15.1484 20.7545 14.8046 20.6718 14.3741 20.6718H13.4159V28.4554H14.4239Z" fill="white"/>
<path d="M21.5356 22.245C21.6144 21.5398 21.7902 20.9301 22.0554 20.4238C22.3257 19.92 22.709 19.5222 23.213 19.238C23.7144 18.9564 24.3942 18.8118 25.2421 18.8118C26.0926 18.8118 26.7699 18.9564 27.2739 19.238C27.7752 19.5222 28.1637 19.92 28.4289 20.4238C28.6992 20.9301 28.8699 21.5398 28.9486 22.245C29.0274 22.9528 29.0667 23.7253 29.0667 24.5623C29.0667 25.407 29.0274 26.1846 28.9486 26.8847C28.8699 27.5873 28.6966 28.1918 28.4289 28.6982C28.1611 29.2045 27.7752 29.592 27.2739 29.8607C26.7699 30.1293 26.0926 30.2637 25.2421 30.2637C24.3942 30.2637 23.7144 30.1268 23.213 29.8607C22.709 29.592 22.3231 29.2045 22.0554 28.6982C21.7876 28.1918 21.6144 27.5873 21.5356 26.8847C21.4595 26.1846 21.4175 25.407 21.4175 24.5623C21.4175 23.7278 21.4595 22.9554 21.5356 22.245ZM23.7432 26.461C23.78 26.9828 23.8535 27.4065 23.9637 27.732C24.074 28.0575 24.2315 28.2952 24.4362 28.445C24.641 28.5948 24.9114 28.6698 25.2474 28.6698C25.5834 28.6698 25.8537 28.5948 26.0611 28.445C26.2659 28.2926 26.4234 28.0575 26.5336 27.732C26.6439 27.4065 26.7174 26.9828 26.7541 26.461C26.7909 25.9392 26.8092 25.3088 26.8092 24.5648C26.8092 23.8208 26.7882 23.1905 26.7541 22.6738C26.72 22.1572 26.6439 21.7335 26.5336 21.4028C26.4234 21.0722 26.2659 20.8319 26.0611 20.6847C25.8564 20.5323 25.5834 20.4573 25.2474 20.4573C24.9114 20.4573 24.6436 20.5323 24.4362 20.6847C24.2315 20.8345 24.074 21.0722 23.9637 21.4028C23.8535 21.7335 23.78 22.1572 23.7432 22.6738C23.7039 23.1905 23.6881 23.8208 23.6881 24.5648C23.6881 25.3088 23.7039 25.9392 23.7432 26.461Z" fill="white"/>
<path d="M36.4978 21.0074C36.3035 20.638 35.9491 20.4546 35.4346 20.4546C35.1538 20.4546 34.9201 20.5295 34.7338 20.6819C34.55 20.8318 34.4056 21.072 34.3006 21.4078C34.1956 21.7437 34.1221 22.1828 34.0801 22.7279C34.0381 23.2704 34.0198 23.9343 34.0198 24.7197C34.0198 25.5567 34.0486 26.2335 34.1038 26.7502C34.1615 27.2668 34.2534 27.6647 34.3741 27.9514C34.4949 28.2382 34.6471 28.4293 34.8309 28.5249C35.0146 28.6231 35.2273 28.6748 35.4688 28.6748C35.6683 28.6748 35.852 28.6412 36.0279 28.574C36.1985 28.5068 36.3508 28.3725 36.4768 28.171C36.6028 27.9695 36.7025 27.6853 36.776 27.3185C36.8469 26.9517 36.8863 26.4686 36.8863 25.8693H39.1516C39.1516 26.466 39.1044 27.0369 39.0099 27.5743C38.9154 28.1116 38.7395 28.5818 38.4823 28.9848C38.225 29.3852 37.8654 29.7003 37.3955 29.9277C36.9283 30.155 36.3245 30.2713 35.579 30.2713C34.7285 30.2713 34.0513 30.1343 33.5473 29.8683C33.0459 29.5996 32.6574 29.2121 32.3923 28.7058C32.1219 28.1994 31.9513 27.5949 31.8725 26.8923C31.7938 26.1922 31.7544 25.4146 31.7544 24.5698C31.7544 23.7328 31.7938 22.9604 31.8725 22.2526C31.9513 21.5473 32.1245 20.9377 32.3923 20.4313C32.66 19.9276 33.0459 19.5298 33.5473 19.2456C34.0513 18.964 34.7285 18.8193 35.579 18.8193C36.3875 18.8193 37.0254 18.9485 37.4926 19.2068C37.9599 19.4652 38.3116 19.7933 38.54 20.1911C38.7684 20.5889 38.9154 21.0178 38.9731 21.4776C39.0283 21.9374 39.0598 22.3688 39.0598 22.7718H36.7891C36.7891 21.9581 36.692 21.3717 36.4978 21.0074Z" fill="white"/>
</g>
<defs>
<clipPath id="clip0_463_1435">
<rect width="63" height="62" fill="white"/>
</clipPath>
</defs>
</svg>
