<svg width="63" height="62" viewBox="0 0 63 62" fill="none" xmlns="http://www.w3.org/2000/svg">
<path d="M10.5 0V62H47.25L63 46.5V0H10.5Z" fill="url(#paint0_linear_519_1521)"/>
<path d="M47.25 46.5V62L63 46.5H47.25Z" fill="#ABABAB"/>
<path d="M31.5 62H47.25V46.5L31.5 62Z" fill="#DEDEDD"/>
<path d="M0 15.5V33.5833H42V15.5H0Z" fill="#402D7A"/>
<path d="M9.77213 20.8583H5.91076V19.0293H12.384V20.7188L8.17876 28.2673H12.447V30.0963H5.62988V28.4688L9.77213 20.8583Z" fill="white"/>
<path d="M15.2979 19.0286H17.5659V30.0956H15.2979V19.0286Z" fill="white"/>
<path d="M24.7952 19.0261C25.3727 19.0261 25.8557 19.1243 26.252 19.3155C26.6484 19.5066 26.9634 19.7572 27.2049 20.0672C27.4464 20.3772 27.6197 20.7311 27.7247 21.129C27.827 21.5242 27.8822 21.9324 27.8822 22.3457C27.8822 22.914 27.7955 23.41 27.6223 23.8337C27.449 24.2574 27.2075 24.6035 26.8978 24.8696C26.588 25.1383 26.2127 25.3424 25.7717 25.4741C25.3307 25.6059 24.8424 25.6756 24.3043 25.6756H23.0915V30.0931H20.8262V19.0261H24.7952ZM24.1022 24.0404C24.5537 24.0404 24.9212 23.9035 25.1968 23.6348C25.475 23.3661 25.6142 22.9476 25.6142 22.3793C25.6142 21.8213 25.4934 21.3976 25.2519 21.1083C25.0104 20.8215 24.6062 20.6743 24.0392 20.6743H23.0942V24.0404H24.1022V24.0404Z" fill="white"/>
<defs>
<linearGradient id="paint0_linear_519_1521" x1="17.9373" y1="12.4872" x2="86.1893" y2="81.8348" gradientUnits="userSpaceOnUse">
<stop stop-color="#EFEEEE"/>
<stop offset="1" stop-color="#DEDEDD"/>
</linearGradient>
</defs>
</svg>
